Rajdhani_1.ufo
<glyph name="quotedbl" format="1">
  <advance width="353"/>
  <unicode hex="0022"/>
  <outline>
    <contour>
      <point x="149" y="624" type="line"/>
      <point x="151" y="637"/>
      <point x="144" y="643"/>
      <point x="132" y="643" type="curve" smooth="yes"/>
      <point x="55" y="643" type="line" smooth="yes"/>
      <point x="41" y="643"/>
      <point x="35" y="637"/>
      <point x="37" y="624" type="curve" smooth="yes"/>
      <point x="64" y="437" type="line"/>
      <point x="65" y="423"/>
      <point x="72" y="414"/>
      <point x="85" y="414" type="curve" smooth="yes"/>
      <point x="100" y="414" type="line" smooth="yes"/>
      <point x="114" y="414"/>
      <point x="120" y="422"/>
      <point x="123" y="435" type="curve"/>
    </contour>
    <contour>
      <point x="290" y="435" type="line"/>
      <point x="287" y="422"/>
      <point x="281" y="414"/>
      <point x="267" y="414" type="curve" smooth="yes"/>
      <point x="252" y="414" type="line" smooth="yes"/>
      <point x="239" y="414"/>
      <point x="232" y="423"/>
      <point x="231" y="437" type="curve"/>
      <point x="204" y="624" type="line" smooth="yes"/>
      <point x="202" y="637"/>
      <point x="208" y="643"/>
      <point x="222" y="643" type="curve" smooth="yes"/>
      <point x="299" y="643" type="line" smooth="yes"/>
      <point x="311" y="643"/>
      <point x="318" y="637"/>
      <point x="316" y="624" type="curve" smooth="yes"/>
    </contour>
  </outline>
</glyph>
<glyph name="numbersign" format="1">
  <advance width="669"/>
  <unicode hex="0023"/>
  <outline>
    <contour>
      <point x="355" y="621" type="line" smooth="yes"/>
      <point x="359" y="637"/>
      <point x="352" y="643"/>
      <point x="337" y="643" type="curve" smooth="yes"/>
      <point x="275" y="643" type="line" smooth="yes"/>
      <point x="261" y="643"/>
      <point x="256" y="636"/>
      <point x="253" y="622" type="curve" smooth="yes"/>
      <point x="107" y="22" type="line" smooth="yes"/>
      <point x="103" y="6"/>
      <point x="110" y="0"/>
      <point x="124" y="0" type="curve" smooth="yes"/>
      <point x="183" y="0" type="line" smooth="yes"/>
      <point x="198" y="0"/>
      <point x="205" y="6"/>
      <point x="209" y="21" type="curve" smooth="yes"/>
    </contour>
    <contour>
      <point x="634" y="482" type="line" smooth="yes"/>
      <point x="634" y="496"/>
      <point x="629" y="503"/>
      <point x="614" y="503" type="curve" smooth="yes"/>
      <point x="105" y="503" type="line" smooth="yes"/>
      <point x="89" y="503"/>
      <point x="84" y="497"/>
      <point x="84" y="482" type="curve" smooth="yes"/>
      <point x="84" y="423" type="line" smooth="yes"/>
      <point x="84" y="408"/>
      <point x="89" y="401"/>
      <point x="105" y="401" type="curve" smooth="yes"/>
      <point x="131" y="401"/>
      <point x="587" y="401"/>
      <point x="614" y="401" type="curve" smooth="yes"/>
      <point x="629" y="401"/>
      <point x="634" y="408"/>
      <point x="634" y="423" type="curve" smooth="yes"/>
    </contour>
    <contour>
      <point x="322" y="22" type="line" smooth="yes"/>
      <point x="318" y="6"/>
      <point x="325" y="0"/>
      <point x="339" y="0" type="curve" smooth="yes"/>
      <point x="402" y="0" type="line" smooth="yes"/>
      <point x="416" y="0"/>
      <point x="421" y="7"/>
      <point x="424" y="21" type="curve" smooth="yes"/>
      <point x="570" y="621" type="line" smooth="yes"/>
      <point x="574" y="637"/>
      <point x="567" y="643"/>
      <point x="552" y="643" type="curve" smooth="yes"/>
      <point x="494" y="643" type="line" smooth="yes"/>
      <point x="479" y="643"/>
      <point x="472" y="637"/>
      <point x="468" y="622" type="curve" smooth="yes"/>
    </contour>
    <contour>
      <point x="565" y="140" type="line" smooth="yes"/>
      <point x="580" y="140"/>
      <point x="585" y="146"/>
      <point x="585" y="161" type="curve" smooth="yes"/>
      <point x="585" y="220" type="line" smooth="yes"/>
      <point x="585" y="235"/>
      <point x="580" y="242"/>
      <point x="565" y="242" type="curve" smooth="yes"/>
      <point x="538" y="242"/>
      <point x="82" y="242"/>
      <point x="56" y="242" type="curve" smooth="yes"/>
      <point x="40" y="242"/>
      <point x="35" y="235"/>
      <point x="35" y="220" type="curve" smooth="yes"/>
      <point x="35" y="161" type="line" smooth="yes"/>
      <point x="35" y="147"/>
      <point x="40" y="140"/>
      <point x="56" y="140" type="curve" smooth="yes"/>
    </contour>
  </outline>
</glyph>
<glyph name="asterisk" format="1">
  <advance width="398"/>
  <unicode hex="002A"/>
  <outline>
    <contour>
      <point x="242" y="624" type="line"/>
      <point x="242" y="638"/>
      <point x="235" y="643"/>
      <point x="222" y="643" type="curve" smooth="yes"/>
      <point x="172" y="643" type="line" smooth="yes"/>
      <point x="159" y="643"/>
      <point x="152" y="638"/>
      <point x="152" y="624" type="curve" smooth="yes"/>
      <point x="152" y="615" type="line" smooth="yes"/>
      <point x="152" y="546"/>
      <point x="199" y="486"/>
      <point x="200" y="484" type="curve"/>
      <point x="201" y="486"/>
      <point x="242" y="546"/>
      <point x="242" y="615" type="curve" smooth="yes"/>
    </contour>
    <contour>
      <point x="83" y="395" type="line"/>
      <point x="74" y="384"/>
      <point x="77" y="374"/>
      <point x="88" y="368" type="curve"/>
      <point x="128" y="338" type="line"/>
      <point x="139" y="331"/>
      <point x="149" y="331"/>
      <point x="156" y="341" type="curve" smooth="yes"/>
      <point x="161" y="349" type="line" smooth="yes"/>
      <point x="202" y="405"/>
      <point x="199" y="481"/>
      <point x="200" y="484" type="curve"/>
      <point x="197" y="482"/>
      <point x="129" y="458"/>
      <point x="88" y="402" type="curve" smooth="yes"/>
    </contour>
    <contour>
      <point x="80" y="566" type="line"/>
      <point x="66" y="571"/>
      <point x="59" y="566"/>
      <point x="55" y="554" type="curve" smooth="yes"/>
      <point x="40" y="506" type="line" smooth="yes"/>
      <point x="36" y="494"/>
      <point x="39" y="485"/>
      <point x="51" y="481" type="curve" smooth="yes"/>
      <point x="60" y="478" type="line" smooth="yes"/>
      <point x="126" y="457"/>
      <point x="197" y="484"/>
      <point x="200" y="484" type="curve"/>
      <point x="198" y="485"/>
      <point x="154" y="542"/>
      <point x="87" y="564" type="curve" smooth="yes"/>
    </contour>
    <contour>
      <point x="346" y="487" type="line"/>
      <point x="360" y="491"/>
      <point x="363" y="500"/>
      <point x="359" y="512" type="curve" smooth="yes"/>
      <point x="344" y="560" type="line"/>
      <point x="339" y="572"/>
      <point x="332" y="577"/>
      <point x="319" y="573" type="curve" smooth="yes"/>
      <point x="310" y="570" type="line" smooth="yes"/>
      <point x="243" y="550"/>
      <point x="202" y="485"/>
      <point x="200" y="484" type="curve"/>
      <point x="203" y="483"/>
      <point x="272" y="462"/>
      <point x="338" y="484" type="curve" smooth="yes"/>
    </contour>
    <contour>
      <point x="248" y="346" type="line"/>
      <point x="257" y="335"/>
      <point x="265" y="335"/>
      <point x="276" y="342" type="curve" smooth="yes"/>
      <point x="317" y="371" type="line" smooth="yes"/>
      <point x="327" y="378"/>
      <point x="328" y="388"/>
      <point x="321" y="398" type="curve" smooth="yes"/>
      <point x="316" y="406" type="line" smooth="yes"/>
      <point x="275" y="462"/>
      <point x="202" y="482"/>
      <point x="200" y="484" type="curve"/>
      <point x="200" y="481"/>
      <point x="199" y="407"/>
      <point x="243" y="352" type="curve" smooth="yes"/>
    </contour>
  </outline>
</glyph>
<glyph name="two" format="1">
  <advance width="493"/>
  <unicode hex="0032"/>
  <outline>
    <contour>
      <point x="47" y="21" type="line" smooth="yes"/>
      <point x="47" y="6"/>
      <point x="54" y="0"/>
      <point x="68" y="0" type="curve" smooth="yes"/>
      <point x="428" y="0" type="line" smooth="yes"/>
      <point x="442" y="0"/>
      <point x="449" y="6"/>
      <point x="449" y="21" type="curve" smooth="yes"/>
      <point x="449" y="91" type="line" smooth="yes"/>
      <point x="449" y="106"/>
      <point x="442" y="112"/>
      <point x="428" y="112" type="curve" smooth="yes"/>
      <point x="189" y="112" type="line"/>
      <point x="189" y="128" type="line" smooth="yes"/>
      <point x="189" y="138"/>
      <point x="192" y="144"/>
      <point x="201" y="152" type="curve" smooth="yes"/>
      <point x="389" y="312" type="line" smooth="yes"/>
      <point x="427" y="344"/>
      <point x="449" y="387"/>
      <point x="449" y="441" type="curve" smooth="yes"/>
      <point x="449" y="481" type="line" smooth="yes"/>
      <point x="449" y="586"/>
      <point x="388" y="643"/>
      <point x="284" y="643" type="curve" smooth="yes"/>
      <point x="208" y="643" type="line" smooth="yes"/>
      <point x="103" y="643"/>
      <point x="43" y="586"/>
      <point x="43" y="481" type="curve" smooth="yes"/>
      <point x="43" y="447" type="line" smooth="yes"/>
      <point x="43" y="432"/>
      <point x="50" y="425"/>
      <point x="64" y="425" type="curve" smooth="yes"/>
      <point x="149" y="425" type="line" smooth="yes"/>
      <point x="163" y="425"/>
      <point x="170" y="432"/>
      <point x="170" y="447" type="curve" smooth="yes"/>
      <point x="170" y="479" type="line" smooth="yes"/>
      <point x="170" y="521"/>
      <point x="186" y="537"/>
      <point x="228" y="537" type="curve" smooth="yes"/>
      <point x="263" y="537" type="line" smooth="yes"/>
      <point x="306" y="537"/>
      <point x="325" y="521"/>
      <point x="325" y="479" type="curve" smooth="yes"/>
      <point x="325" y="449" type="line" smooth="yes"/>
      <point x="325" y="426"/>
      <point x="314" y="397"/>
      <point x="280" y="369" type="curve" smooth="yes"/>
      <point x="96" y="213" type="line"/>
      <point x="65" y="188"/>
      <point x="47" y="160"/>
      <point x="47" y="116" type="curve" smooth="yes"/>
    </contour>
  </outline>
</glyph>
<glyph name="three" format="1">
  <advance width="509"/>
  <unicode hex="0033"/>
  <outline>
    <contour>
      <point x="219" y="374" type="line" smooth="yes"/>
      <point x="204" y="374"/>
      <point x="198" y="367"/>
      <point x="198" y="352" type="curve" smooth="yes"/>
      <point x="198" y="292" type="line" smooth="yes"/>
      <point x="198" y="278"/>
      <point x="204" y="271"/>
      <point x="219" y="271" type="curve" smooth="yes"/>
      <point x="270" y="271" type="line" smooth="yes"/>
      <point x="313" y="271"/>
      <point x="332" y="255"/>
      <point x="332" y="213" type="curve" smooth="yes"/>
      <point x="332" y="164" type="line" smooth="yes"/>
      <point x="332" y="122"/>
      <point x="313" y="106"/>
      <point x="270" y="106" type="curve" smooth="yes"/>
      <point x="222" y="106" type="line" smooth="yes"/>
      <point x="180" y="106"/>
      <point x="164" y="122"/>
      <point x="164" y="164" type="curve" smooth="yes"/>
      <point x="164" y="190" type="line" smooth="yes"/>
      <point x="164" y="206"/>
      <point x="157" y="212"/>
      <point x="143" y="212" type="curve" smooth="yes"/>
      <point x="58" y="212" type="line" smooth="yes"/>
      <point x="44" y="212"/>
      <point x="37" y="206"/>
      <point x="37" y="190" type="curve" smooth="yes"/>
      <point x="37" y="162" type="line" smooth="yes"/>
      <point x="37" y="57"/>
      <point x="97" y="0"/>
      <point x="202" y="0" type="curve" smooth="yes"/>
      <point x="291" y="0" type="line" smooth="yes"/>
      <point x="395" y="0"/>
      <point x="456" y="57"/>
      <point x="456" y="162" type="curve" smooth="yes"/>
      <point x="456" y="213" type="line" smooth="yes"/>
      <point x="456" y="282"/>
      <point x="419" y="313"/>
      <point x="377" y="322" type="curve"/>
      <point x="427" y="338"/>
      <point x="456" y="375"/>
      <point x="456" y="431" type="curve" smooth="yes"/>
      <point x="456" y="481" type="line" smooth="yes"/>
      <point x="456" y="586"/>
      <point x="395" y="643"/>
      <point x="291" y="643" type="curve" smooth="yes"/>
      <point x="202" y="643" type="line" smooth="yes"/>
      <point x="97" y="643"/>
      <point x="37" y="586"/>
      <point x="37" y="481" type="curve" smooth="yes"/>
      <point x="37" y="454" type="line" smooth="yes"/>
      <point x="37" y="439"/>
      <point x="44" y="433"/>
      <point x="58" y="433" type="curve" smooth="yes"/>
      <point x="143" y="433" type="line" smooth="yes"/>
      <point x="157" y="433"/>
      <point x="164" y="439"/>
      <point x="164" y="454" type="curve" smooth="yes"/>
      <point x="164" y="479" type="line" smooth="yes"/>
      <point x="164" y="521"/>
      <point x="180" y="537"/>
      <point x="222" y="537" type="curve" smooth="yes"/>
      <point x="270" y="537" type="line" smooth="yes"/>
      <point x="313" y="537"/>
      <point x="332" y="521"/>
      <point x="332" y="479" type="curve" smooth="yes"/>
      <point x="332" y="432" type="line" smooth="yes"/>
      <point x="332" y="390"/>
      <point x="313" y="374"/>
      <point x="270" y="374" type="curve" smooth="yes"/>
    </contour>
  </outline>
</glyph>
<glyph name="five" format="1">
  <advance width="506"/>
  <unicode hex="0035"/>
  <outline>
    <contour>
      <point x="273" y="327" type="line"/>
      <point x="323" y="327"/>
      <point x="339" y="311"/>
      <point x="339" y="254" type="curve" smooth="yes"/>
      <point x="339" y="164" type="line" smooth="yes"/>
      <point x="339" y="123"/>
      <point x="320" y="106"/>
      <point x="277" y="106" type="curve" smooth="yes"/>
      <point x="230" y="106" type="line" smooth="yes"/>
      <point x="188" y="106"/>
      <point x="172" y="123"/>
      <point x="172" y="164" type="curve" smooth="yes"/>
      <point x="172" y="183" type="line" smooth="yes"/>
      <point x="172" y="199"/>
      <point x="165" y="205"/>
      <point x="151" y="205" type="curve" smooth="yes"/>
      <point x="66" y="205" type="line" smooth="yes"/>
      <point x="52" y="205"/>
      <point x="45" y="199"/>
      <point x="45" y="183" type="curve" smooth="yes"/>
      <point x="45" y="163" type="line" smooth="yes"/>
      <point x="45" y="58"/>
      <point x="105" y="0"/>
      <point x="210" y="0" type="curve" smooth="yes"/>
      <point x="298" y="0" type="line" smooth="yes"/>
      <point x="402" y="0"/>
      <point x="462" y="58"/>
      <point x="462" y="163" type="curve" smooth="yes"/>
      <point x="462" y="273" type="line" smooth="yes"/>
      <point x="462" y="377"/>
      <point x="409" y="428"/>
      <point x="307" y="428" type="curve" smooth="yes"/>
      <point x="265" y="428" type="line" smooth="yes"/>
      <point x="222" y="428"/>
      <point x="192" y="410"/>
      <point x="181" y="378" type="curve"/>
      <point x="181" y="525" type="line"/>
      <point x="423" y="525" type="line" smooth="yes"/>
      <point x="439" y="525"/>
      <point x="444" y="532"/>
      <point x="444" y="546" type="curve" smooth="yes"/>
      <point x="444" y="622" type="line" smooth="yes"/>
      <point x="444" y="636"/>
      <point x="439" y="643"/>
      <point x="423" y="643" type="curve" smooth="yes"/>
      <point x="75" y="643" type="line" smooth="yes"/>
      <point x="60" y="643"/>
      <point x="54" y="636"/>
      <point x="54" y="622" type="curve" smooth="yes"/>
      <point x="54" y="305" type="line" smooth="yes"/>
      <point x="54" y="290"/>
      <point x="61" y="285"/>
      <point x="75" y="285" type="curve" smooth="yes"/>
      <point x="158" y="285" type="line" smooth="yes"/>
      <point x="191" y="285"/>
      <point x="178" y="327"/>
      <point x="226" y="327" type="curve" smooth="yes"/>
    </contour>
  </outline>
</glyph>
<glyph name="six" format="1">
  <advance width="525"/>
  <unicode hex="0036"/>
  <outline>
    <contour>
      <point x="315" y="0" type="line" smooth="yes"/>
      <point x="420" y="0"/>
      <point x="480" y="58"/>
      <point x="480" y="163" type="curve" smooth="yes"/>
      <point x="480" y="244" type="line" smooth="yes"/>
      <point x="480" y="349"/>
      <point x="420" y="407"/>
      <point x="315" y="407" type="curve" smooth="yes"/>
      <point x="179" y="407" type="line"/>
      <point x="179" y="474" type="line" smooth="yes"/>
      <point x="179" y="516"/>
      <point x="195" y="533"/>
      <point x="237" y="533" type="curve" smooth="yes"/>
      <point x="421" y="533" type="line" smooth="yes"/>
      <point x="435" y="533"/>
      <point x="442" y="540"/>
      <point x="442" y="553" type="curve" smooth="yes"/>
      <point x="442" y="622" type="line" smooth="yes"/>
      <point x="442" y="636"/>
      <point x="435" y="643"/>
      <point x="421" y="643" type="curve" smooth="yes"/>
      <point x="217" y="643" type="line" smooth="yes"/>
      <point x="112" y="643"/>
      <point x="52" y="585"/>
      <point x="52" y="480" type="curve" smooth="yes"/>
      <point x="52" y="163" type="line" smooth="yes"/>
      <point x="52" y="58"/>
      <point x="112" y="0"/>
      <point x="217" y="0" type="curve" smooth="yes"/>
    </contour>
    <contour>
      <point x="237" y="110" type="line" smooth="yes"/>
      <point x="194" y="110"/>
      <point x="179" y="127"/>
      <point x="179" y="169" type="curve" smooth="yes"/>
      <point x="179" y="297" type="line"/>
      <point x="294" y="297" type="line" smooth="yes"/>
      <point x="337" y="297"/>
      <point x="353" y="280"/>
      <point x="353" y="238" type="curve" smooth="yes"/>
      <point x="353" y="169" type="line" smooth="yes"/>
      <point x="353" y="127"/>
      <point x="337" y="110"/>
      <point x="294" y="110" type="curve" smooth="yes"/>
    </contour>
  </outline>
</glyph>
<glyph name="seven" format="1">
  <advance width="431"/>
  <unicode hex="0037"/>
  <outline>
    <contour>
      <point x="169" y="0" type="line" smooth="yes"/>
      <point x="189" y="0"/>
      <point x="196" y="3"/>
      <point x="203" y="19" type="curve" smooth="yes"/>
      <point x="397" y="484" type="line" smooth="yes"/>
      <point x="404" y="501"/>
      <point x="411" y="513"/>
      <point x="411" y="538" type="curve" smooth="yes"/>
      <point x="411" y="622" type="line" smooth="yes"/>
      <point x="411" y="636"/>
      <point x="405" y="643"/>
      <point x="390" y="643" type="curve" smooth="yes"/>
      <point x="40" y="643" type="line" smooth="yes"/>
      <point x="24" y="643"/>
      <point x="19" y="636"/>
      <point x="19" y="622" type="curve" smooth="yes"/>
      <point x="19" y="548" type="line" smooth="yes"/>
      <point x="19" y="534"/>
      <point x="24" y="527"/>
      <point x="40" y="527" type="curve" smooth="yes"/>
      <point x="275" y="527" type="line"/>
      <point x="64" y="21" type="line"/>
      <point x="57" y="8"/>
      <point x="63" y="0"/>
      <point x="75" y="0" type="curve" smooth="yes"/>
    </contour>
  </outline>
</glyph>
<glyph name="greater" format="1">
  <advance width="567"/>
  <unicode hex="003E"/>
  <outline>
    <contour>
      <point x="71" y="435" type="line" smooth="yes"/>
      <point x="71" y="419"/>
      <point x="74" y="410"/>
      <point x="90" y="406" type="curve" smooth="yes"/>
      <point x="391" y="327" type="line"/>
      <point x="90" y="248" type="line"/>
      <point x="74" y="245"/>
      <point x="71" y="236"/>
      <point x="71" y="219" type="curve" smooth="yes"/>
      <point x="71" y="154" type="line" smooth="yes"/>
      <point x="71" y="139"/>
      <point x="79" y="134"/>
      <point x="95" y="139" type="curve" smooth="yes"/>
      <point x="469" y="260" type="line" smooth="yes"/>
      <point x="488" y="266"/>
      <point x="496" y="279"/>
      <point x="496" y="300" type="curve" smooth="yes"/>
      <point x="496" y="354" type="line" smooth="yes"/>
      <point x="496" y="376"/>
      <point x="488" y="388"/>
      <point x="469" y="394" type="curve" smooth="yes"/>
      <point x="95" y="515" type="line"/>
      <point x="79" y="521"/>
      <point x="71" y="516"/>
      <point x="71" y="501" type="curve" smooth="yes"/>
    </contour>
  </outline>
</glyph>
<glyph name="C" format="1">
  <advance width="538"/>
  <unicode hex="0043"/>
  <outline>
    <contour>
      <point x="329" y="0" type="line"/>
      <point x="433" y="0"/>
      <point x="494" y="58"/>
      <point x="494" y="163" type="curve" smooth="yes"/>
      <point x="494" y="166"/>
      <point x="494" y="210"/>
      <point x="494" y="210" type="curve"/>
      <point x="494" y="225"/>
      <point x="487" y="232"/>
      <point x="472" y="232" type="curve" smooth="yes"/>
      <point x="388" y="232" type="line" smooth="yes"/>
      <point x="374" y="232"/>
      <point x="367" y="225"/>
      <point x="367" y="210" type="curve" smooth="yes"/>
      <point x="367" y="210"/>
      <point x="367" y="169"/>
      <point x="367" y="169" type="curve"/>
      <point x="367" y="127"/>
      <point x="351" y="110"/>
      <point x="308" y="110" type="curve" smooth="yes"/>
      <point x="240" y="110" type="line" smooth="yes"/>
      <point x="198" y="110"/>
      <point x="182" y="127"/>
      <point x="182" y="169" type="curve" smooth="yes"/>
      <point x="182" y="474" type="line" smooth="yes"/>
      <point x="182" y="516"/>
      <point x="198" y="533"/>
      <point x="240" y="533" type="curve" smooth="yes"/>
      <point x="308" y="533" type="line" smooth="yes"/>
      <point x="351" y="533"/>
      <point x="367" y="516"/>
      <point x="367" y="474" type="curve" smooth="yes"/>
      <point x="367" y="474"/>
      <point x="367" y="433"/>
      <point x="367" y="433" type="curve"/>
      <point x="367" y="418"/>
      <point x="374" y="411"/>
      <point x="388" y="411" type="curve" smooth="yes"/>
      <point x="472" y="411" type="line" smooth="yes"/>
      <point x="487" y="411"/>
      <point x="494" y="418"/>
      <point x="494" y="433" type="curve" smooth="yes"/>
      <point x="494" y="433"/>
      <point x="494" y="480"/>
      <point x="494" y="480" type="curve"/>
      <point x="494" y="585"/>
      <point x="433" y="643"/>
      <point x="329" y="643" type="curve" smooth="yes"/>
      <point x="220" y="643" type="line" smooth="yes"/>
      <point x="115" y="643"/>
      <point x="55" y="585"/>
      <point x="55" y="480" type="curve" smooth="yes"/>
      <point x="55" y="163" type="line" smooth="yes"/>
      <point x="55" y="58"/>
      <point x="115" y="0"/>
      <point x="220" y="0" type="curve" smooth="yes"/>
    </contour>
  </outline>
</glyph>
<glyph name="D" format="1">
  <advance width="553"/>
  <unicode hex="0044"/>
  <outline>
    <contour>
      <point x="65" y="21" type="line"/>
      <point x="65" y="5"/>
      <point x="72" y="0"/>
      <point x="86" y="0" type="curve" smooth="yes"/>
      <point x="333" y="0" type="line" smooth="yes"/>
      <point x="437" y="0"/>
      <point x="498" y="58"/>
      <point x="498" y="163" type="curve" smooth="yes"/>
      <point x="498" y="480" type="line" smooth="yes"/>
      <point x="498" y="585"/>
      <point x="437" y="643"/>
      <point x="333" y="643" type="curve" smooth="yes"/>
      <point x="86" y="643" type="line" smooth="yes"/>
      <point x="72" y="643"/>
      <point x="65" y="638"/>
      <point x="65" y="622" type="curve" smooth="yes"/>
    </contour>
    <contour>
      <point x="203" y="110" type="line" smooth="yes"/>
      <point x="196" y="110"/>
      <point x="192" y="113"/>
      <point x="192" y="121" type="curve" smooth="yes"/>
      <point x="192" y="522" type="line" smooth="yes"/>
      <point x="192" y="530"/>
      <point x="196" y="533"/>
      <point x="203" y="533" type="curve" smooth="yes"/>
      <point x="312" y="533" type="line" smooth="yes"/>
      <point x="355" y="533"/>
      <point x="371" y="516"/>
      <point x="371" y="474" type="curve" smooth="yes"/>
      <point x="371" y="169" type="line" smooth="yes"/>
      <point x="371" y="127"/>
      <point x="355" y="110"/>
      <point x="312" y="110" type="curve" smooth="yes"/>
    </contour>
  </outline>
</glyph>
<glyph name="F" format="1">
  <advance width="450"/>
  <unicode hex="0046"/>
  <outline>
    <contour>
      <point x="171" y="0" type="line"/>
      <point x="185" y="0"/>
      <point x="192" y="5"/>
      <point x="192" y="21" type="curve" smooth="yes"/>
      <point x="192" y="234" type="line" smooth="yes"/>
      <point x="192" y="242"/>
      <point x="196" y="245"/>
      <point x="204" y="245" type="curve" smooth="yes"/>
      <point x="375" y="245" type="line" smooth="yes"/>
      <point x="390" y="245"/>
      <point x="396" y="252"/>
      <point x="396" y="267" type="curve" smooth="yes"/>
      <point x="396" y="334" type="line" smooth="yes"/>
      <point x="396" y="348"/>
      <point x="390" y="355"/>
      <point x="375" y="355" type="curve" smooth="yes"/>
      <point x="204" y="355" type="line" smooth="yes"/>
      <point x="196" y="355"/>
      <point x="192" y="358"/>
      <point x="192" y="367" type="curve" smooth="yes"/>
      <point x="192" y="522" type="line" smooth="yes"/>
      <point x="192" y="530"/>
      <point x="196" y="533"/>
      <point x="204" y="533" type="curve" smooth="yes"/>
      <point x="405" y="533" type="line" smooth="yes"/>
      <point x="420" y="533"/>
      <point x="425" y="540"/>
      <point x="425" y="554" type="curve" smooth="yes"/>
      <point x="425" y="622" type="line" smooth="yes"/>
      <point x="425" y="636"/>
      <point x="420" y="643"/>
      <point x="405" y="643" type="curve" smooth="yes"/>
      <point x="86" y="643" type="line" smooth="yes"/>
      <point x="72" y="643"/>
      <point x="65" y="638"/>
      <point x="65" y="622" type="curve" smooth="yes"/>
      <point x="65" y="21" type="line" smooth="yes"/>
      <point x="65" y="5"/>
      <point x="72" y="0"/>
      <point x="86" y="0" type="curve" smooth="yes"/>
    </contour>
  </outline>
</glyph>
<glyph name="K" format="1">
  <advance width="558"/>
  <unicode hex="004B"/>
  <outline>
    <contour>
      <point x="171" y="0" type="line" smooth="yes"/>
      <point x="185" y="0"/>
      <point x="192" y="5"/>
      <point x="192" y="21" type="curve" smooth="yes"/>
      <point x="192" y="192" type="line"/>
      <point x="255" y="266" type="line"/>
      <point x="408" y="21" type="line" smooth="yes"/>
      <point x="418" y="4"/>
      <point x="433" y="0"/>
      <point x="455" y="0" type="curve" smooth="yes"/>
      <point x="528" y="0" type="line" smooth="yes"/>
      <point x="546" y="0"/>
      <point x="554" y="9"/>
      <point x="544" y="25" type="curve" smooth="yes"/>
      <point x="332" y="357" type="line"/>
      <point x="522" y="620" type="line" smooth="yes"/>
      <point x="533" y="634"/>
      <point x="528" y="643"/>
      <point x="514" y="643" type="curve" smooth="yes"/>
      <point x="416" y="643" type="line" smooth="yes"/>
      <point x="394" y="643"/>
      <point x="387" y="638"/>
      <point x="377" y="622" type="curve"/>
      <point x="225" y="399" type="line" smooth="yes"/>
      <point x="217" y="386"/>
      <point x="202" y="362"/>
      <point x="194" y="337" type="curve"/>
      <point x="192" y="337" type="line"/>
      <point x="192" y="622" type="line" smooth="yes"/>
      <point x="192" y="638"/>
      <point x="185" y="643"/>
      <point x="171" y="643" type="curve" smooth="yes"/>
      <point x="86" y="643" type="line" smooth="yes"/>
      <point x="72" y="643"/>
      <point x="65" y="638"/>
      <point x="65" y="622" type="curve" smooth="yes"/>
      <point x="65" y="21" type="line" smooth="yes"/>
      <point x="65" y="5"/>
      <point x="72" y="0"/>
      <point x="86" y="0" type="curve" smooth="yes"/>
    </contour>
  </outline>
</glyph>
<glyph name="L" format="1">
  <advance width="449"/>
  <unicode hex="004C"/>
  <outline>
    <contour>
      <point x="415" y="0" type="line" smooth="yes"/>
      <point x="430" y="0"/>
      <point x="435" y="7"/>
      <point x="435" y="21" type="curve" smooth="yes"/>
      <point x="435" y="89" type="line" smooth="yes"/>
      <point x="435" y="103"/>
      <point x="430" y="111"/>
      <point x="415" y="111" type="curve" smooth="yes"/>
      <point x="204" y="111" type="line" smooth="yes"/>
      <point x="196" y="111"/>
      <point x="192" y="114"/>
      <point x="192" y="122" type="curve" smooth="yes"/>
      <point x="192" y="622" type="line" smooth="yes"/>
      <point x="192" y="638"/>
      <point x="185" y="643"/>
      <point x="171" y="643" type="curve" smooth="yes"/>
      <point x="86" y="643" type="line" smooth="yes"/>
      <point x="72" y="643"/>
      <point x="65" y="638"/>
      <point x="65" y="622" type="curve" smooth="yes"/>
      <point x="65" y="21" type="line" smooth="yes"/>
      <point x="65" y="5"/>
      <point x="72" y="0"/>
      <point x="86" y="0" type="curve" smooth="yes"/>
    </contour>
  </outline>
</glyph>
<glyph name="R" format="1">
  <advance width="547"/>
  <unicode hex="0052"/>
  <outline>
    <contour>
      <point x="203" y="339" type="line" smooth="yes"/>
      <point x="196" y="339"/>
      <point x="192" y="342"/>
      <point x="192" y="350" type="curve" smooth="yes"/>
      <point x="192" y="522" type="line" smooth="yes"/>
      <point x="192" y="530"/>
      <point x="196" y="533"/>
      <point x="203" y="533" type="curve" smooth="yes"/>
      <point x="301" y="533" type="line" smooth="yes"/>
      <point x="344" y="533"/>
      <point x="363" y="516"/>
      <point x="363" y="474" type="curve" smooth="yes"/>
      <point x="363" y="396" type="line" smooth="yes"/>
      <point x="363" y="356"/>
      <point x="344" y="339"/>
      <point x="301" y="339" type="curve" smooth="yes"/>
    </contour>
    <contour>
      <point x="171" y="0" type="line"/>
      <point x="185" y="0"/>
      <point x="192" y="5"/>
      <point x="192" y="21" type="curve" smooth="yes"/>
      <point x="192" y="226" type="line" smooth="yes"/>
      <point x="192" y="234"/>
      <point x="196" y="237"/>
      <point x="204" y="237" type="curve" smooth="yes"/>
      <point x="271" y="237" type="line"/>
      <point x="371" y="21" type="line"/>
      <point x="378" y="4"/>
      <point x="387" y="0"/>
      <point x="410" y="0" type="curve" smooth="yes"/>
      <point x="491" y="0" type="line" smooth="yes"/>
      <point x="505" y="0"/>
      <point x="517" y="7"/>
      <point x="508" y="24" type="curve"/>
      <point x="401" y="247" type="line"/>
      <point x="401" y="251" type="line"/>
      <point x="458" y="275"/>
      <point x="490" y="326"/>
      <point x="490" y="401" type="curve" smooth="yes"/>
      <point x="490" y="479" type="line" smooth="yes"/>
      <point x="490" y="583"/>
      <point x="428" y="643"/>
      <point x="324" y="643" type="curve" smooth="yes"/>
      <point x="86" y="643" type="line" smooth="yes"/>
      <point x="72" y="643"/>
      <point x="65" y="638"/>
      <point x="65" y="622" type="curve" smooth="yes"/>
      <point x="65" y="21" type="line" smooth="yes"/>
      <point x="65" y="5"/>
      <point x="72" y="0"/>
      <point x="86" y="0" type="curve" smooth="yes"/>
    </contour>
  </outline>
</glyph>
<glyph name="S" format="1">
  <advance width="539"/>
  <unicode hex="0053"/>
  <outline>
    <contour>
      <point x="49" y="164" type="curve" smooth="yes"/>
      <point x="49" y="60"/>
      <point x="111" y="0"/>
      <point x="215" y="0" type="curve" smooth="yes"/>
      <point x="324" y="0" type="line" smooth="yes"/>
      <point x="428" y="0"/>
      <point x="490" y="60"/>
      <point x="490" y="164" type="curve" smooth="yes"/>
      <point x="490" y="198" type="line" smooth="yes"/>
      <point x="490" y="453"/>
      <point x="175" y="329"/>
      <point x="175" y="438" type="curve" smooth="yes"/>
      <point x="175" y="457" type="line" smooth="yes"/>
      <point x="175" y="517"/>
      <point x="191" y="533"/>
      <point x="245" y="533" type="curve" smooth="yes"/>
      <point x="284" y="533" type="line" smooth="yes"/>
      <point x="337" y="533"/>
      <point x="354" y="518"/>
      <point x="354" y="466" type="curve" smooth="yes"/>
      <point x="354" y="465"/>
      <point x="354" y="460"/>
      <point x="354" y="460" type="curve"/>
      <point x="354" y="444"/>
      <point x="361" y="439"/>
      <point x="375" y="439" type="curve" smooth="yes"/>
      <point x="460" y="439" type="line" smooth="yes"/>
      <point x="474" y="439"/>
      <point x="481" y="444"/>
      <point x="481" y="460" type="curve" smooth="yes"/>
      <point x="481" y="465"/>
      <point x="481" y="474"/>
      <point x="481" y="479" type="curve" smooth="yes"/>
      <point x="481" y="583"/>
      <point x="419" y="643"/>
      <point x="314" y="643" type="curve" smooth="yes"/>
      <point x="214" y="643" type="line" smooth="yes"/>
      <point x="110" y="643"/>
      <point x="48" y="583"/>
      <point x="48" y="479" type="curve" smooth="yes"/>
      <point x="48" y="444" type="line" smooth="yes"/>
      <point x="48" y="180"/>
      <point x="363" y="320"/>
      <point x="363" y="193" type="curve" smooth="yes"/>
      <point x="363" y="181" type="line" smooth="yes"/>
      <point x="363" y="126"/>
      <point x="345" y="110"/>
      <point x="293" y="110" type="curve" smooth="yes"/>
      <point x="246" y="110" type="line" smooth="yes"/>
      <point x="193" y="110"/>
      <point x="176" y="125"/>
      <point x="176" y="176" type="curve" smooth="yes"/>
      <point x="176" y="177"/>
      <point x="176" y="183"/>
      <point x="176" y="184" type="curve" smooth="yes"/>
      <point x="176" y="200"/>
      <point x="169" y="205"/>
      <point x="155" y="205" type="curve" smooth="yes"/>
      <point x="70" y="205" type="line" smooth="yes"/>
      <point x="56" y="205"/>
      <point x="49" y="200"/>
      <point x="49" y="184" type="curve" smooth="yes"/>
      <point x="49" y="180"/>
      <point x="49" y="168"/>
    </contour>
  </outline>
</glyph>
<glyph name="T" format="1">
  <advance width="443"/>
  <unicode hex="0054"/>
  <outline>
    <contour>
      <point x="264" y="0" type="line"/>
      <point x="278" y="0"/>
      <point x="285" y="5"/>
      <point x="285" y="21" type="curve" smooth="yes"/>
      <point x="285" y="522" type="line" smooth="yes"/>
      <point x="285" y="530"/>
      <point x="289" y="533"/>
      <point x="297" y="533" type="curve" smooth="yes"/>
      <point x="411" y="533" type="line" smooth="yes"/>
      <point x="426" y="533"/>
      <point x="432" y="540"/>
      <point x="432" y="554" type="curve" smooth="yes"/>
      <point x="432" y="622" type="line" smooth="yes"/>
      <point x="432" y="636"/>
      <point x="426" y="643"/>
      <point x="411" y="643" type="curve" smooth="yes"/>
      <point x="33" y="643" type="line" smooth="yes"/>
      <point x="17" y="643"/>
      <point x="12" y="636"/>
      <point x="12" y="622" type="curve" smooth="yes"/>
      <point x="12" y="554" type="line" smooth="yes"/>
      <point x="12" y="540"/>
      <point x="17" y="533"/>
      <point x="33" y="533" type="curve" smooth="yes"/>
      <point x="147" y="533" type="line" smooth="yes"/>
      <point x="155" y="533"/>
      <point x="158" y="530"/>
      <point x="158" y="522" type="curve" smooth="yes"/>
      <point x="158" y="21" type="line" smooth="yes"/>
      <point x="158" y="5"/>
      <point x="165" y="0"/>
      <point x="180" y="0" type="curve" smooth="yes"/>
    </contour>
  </outline>
</glyph>
<glyph name="U" format="1">
  <advance width="560"/>
  <unicode hex="0055"/>
  <outline>
    <contour>
      <point x="394" y="643" type="line"/>
      <point x="380" y="643"/>
      <point x="373" y="638"/>
      <point x="373" y="622" type="curve" smooth="yes"/>
      <point x="373" y="169" type="line" smooth="yes"/>
      <point x="373" y="127"/>
      <point x="357" y="110"/>
      <point x="314" y="110" type="curve" smooth="yes"/>
      <point x="245" y="110" type="line" smooth="yes"/>
      <point x="203" y="110"/>
      <point x="187" y="127"/>
      <point x="187" y="169" type="curve" smooth="yes"/>
      <point x="187" y="622" type="line" smooth="yes"/>
      <point x="187" y="638"/>
      <point x="180" y="643"/>
      <point x="166" y="643" type="curve" smooth="yes"/>
      <point x="81" y="643" type="line" smooth="yes"/>
      <point x="67" y="643"/>
      <point x="60" y="638"/>
      <point x="60" y="622" type="curve" smooth="yes"/>
      <point x="60" y="163" type="line" smooth="yes"/>
      <point x="60" y="58"/>
      <point x="120" y="0"/>
      <point x="225" y="0" type="curve" smooth="yes"/>
      <point x="335" y="0" type="line" smooth="yes"/>
      <point x="439" y="0"/>
      <point x="500" y="58"/>
      <point x="500" y="163" type="curve" smooth="yes"/>
      <point x="500" y="623" type="line" smooth="yes"/>
      <point x="500" y="638"/>
      <point x="493" y="643"/>
      <point x="478" y="643" type="curve" smooth="yes"/>
    </contour>
  </outline>
</glyph>
<glyph name="V" format="1">
  <advance width="521"/>
  <unicode hex="0056"/>
  <outline>
    <contour>
      <point x="327" y="0" type="line" smooth="yes"/>
      <point x="339" y="0"/>
      <point x="347" y="5"/>
      <point x="351" y="21" type="curve" smooth="yes"/>
      <point x="506" y="620" type="line" smooth="yes"/>
      <point x="509" y="634"/>
      <point x="502" y="643"/>
      <point x="486" y="643" type="curve" smooth="yes"/>
      <point x="392" y="643" type="line" smooth="yes"/>
      <point x="377" y="643"/>
      <point x="371" y="638"/>
      <point x="368" y="622" type="curve" smooth="yes"/>
      <point x="263" y="130" type="line"/>
      <point x="263" y="130"/>
      <point x="259" y="130"/>
      <point x="259" y="130" type="curve"/>
      <point x="154" y="622" type="line" smooth="yes"/>
      <point x="151" y="638"/>
      <point x="145" y="643"/>
      <point x="130" y="643" type="curve" smooth="yes"/>
      <point x="36" y="643" type="line" smooth="yes"/>
      <point x="19" y="643"/>
      <point x="12" y="634"/>
      <point x="16" y="620" type="curve" smooth="yes"/>
      <point x="171" y="21" type="line"/>
      <point x="174" y="5"/>
      <point x="183" y="0"/>
      <point x="196" y="0" type="curve" smooth="yes"/>
    </contour>
  </outline>
</glyph>
<glyph name="X" format="1">
  <advance width="540"/>
  <unicode hex="0058"/>
  <outline>
    <contour>
      <point x="371" y="20" type="line"/>
      <point x="377" y="5"/>
      <point x="387" y="0"/>
      <point x="400" y="0" type="curve" smooth="yes"/>
      <point x="500" y="0" type="line" smooth="yes"/>
      <point x="514" y="0"/>
      <point x="521" y="10"/>
      <point x="514" y="23" type="curve" smooth="yes"/>
      <point x="359" y="329" type="line"/>
      <point x="511" y="620" type="line" smooth="yes"/>
      <point x="516" y="630"/>
      <point x="510" y="643"/>
      <point x="496" y="643" type="curve" smooth="yes"/>
      <point x="398" y="643" type="line" smooth="yes"/>
      <point x="384" y="643"/>
      <point x="374" y="638"/>
      <point x="366" y="622" type="curve"/>
      <point x="272" y="407" type="line"/>
      <point x="268" y="407" type="line"/>
      <point x="173" y="622" type="line"/>
      <point x="167" y="638"/>
      <point x="154" y="643"/>
      <point x="140" y="643" type="curve" smooth="yes"/>
      <point x="44" y="643" type="line" smooth="yes"/>
      <point x="31" y="643"/>
      <point x="24" y="632"/>
      <point x="30" y="621" type="curve" smooth="yes"/>
      <point x="180" y="329" type="line"/>
      <point x="25" y="22" type="line" smooth="yes"/>
      <point x="19" y="10"/>
      <point x="26" y="0"/>
      <point x="39" y="0" type="curve" smooth="yes"/>
      <point x="138" y="0" type="line" smooth="yes"/>
      <point x="152" y="0"/>
      <point x="161" y="5"/>
      <point x="168" y="20" type="curve" smooth="yes"/>
      <point x="268" y="236" type="line"/>
      <point x="272" y="236" type="line"/>
    </contour>
  </outline>
</glyph>
<glyph name="bracketleft" format="1">
  <advance width="323"/>
  <unicode hex="005B"/>
  <outline>
    <contour>
      <point x="241" y="-98" type="line" smooth="yes"/>
      <point x="256" y="-98"/>
      <point x="261" y="-91"/>
      <point x="261" y="-77" type="curve" smooth="yes"/>
      <point x="261" y="-34" type="line" smooth="yes"/>
      <point x="261" y="-20"/>
      <point x="256" y="-13"/>
      <point x="241" y="-13" type="curve" smooth="yes"/>
      <point x="191" y="-13" type="line" smooth="yes"/>
      <point x="183" y="-13"/>
      <point x="179" y="-10"/>
      <point x="179" y="-1" type="curve" smooth="yes"/>
      <point x="179" y="546" type="line" smooth="yes"/>
      <point x="179" y="555"/>
      <point x="183" y="558"/>
      <point x="191" y="558" type="curve" smooth="yes"/>
      <point x="241" y="558" type="line" smooth="yes"/>
      <point x="256" y="558"/>
      <point x="261" y="565"/>
      <point x="261" y="579" type="curve" smooth="yes"/>
      <point x="261" y="622" type="line" smooth="yes"/>
      <point x="261" y="636"/>
      <point x="256" y="643"/>
      <point x="241" y="643" type="curve" smooth="yes"/>
      <point x="97" y="643" type="line" smooth="yes"/>
      <point x="82" y="643"/>
      <point x="77" y="636"/>
      <point x="77" y="622" type="curve" smooth="yes"/>
      <point x="77" y="-76" type="line" smooth="yes"/>
      <point x="77" y="-91"/>
      <point x="82" y="-98"/>
      <point x="97" y="-98" type="curve" smooth="yes"/>
    </contour>
  </outline>
</glyph>
<glyph name="backslash" format="1">
  <advance width="409"/>
  <unicode hex="005C"/>
  <outline>
    <contour>
      <point x="259" y="21" type="line"/>
      <point x="265" y="5"/>
      <point x="272" y="0"/>
      <point x="286" y="0" type="curve" smooth="yes"/>
      <point x="363" y="0" type="line" smooth="yes"/>
      <point x="377" y="0"/>
      <point x="385" y="6"/>
      <point x="379" y="21" type="curve" smooth="yes"/>
      <point x="315" y="186"/>
      <point x="215" y="457"/>
      <point x="151" y="622" type="curve" smooth="yes"/>
      <point x="145" y="636"/>
      <point x="139" y="643"/>
      <point x="124" y="643" type="curve" smooth="yes"/>
      <point x="46" y="643" type="line" smooth="yes"/>
      <point x="32" y="643"/>
      <point x="25" y="637"/>
      <point x="31" y="622" type="curve" smooth="yes"/>
    </contour>
  </outline>
</glyph>
<glyph name="bracketright" format="1">
  <advance width="323"/>
  <unicode hex="005D"/>
  <outline>
    <contour>
      <point x="60" y="-77" type="line"/>
      <point x="60" y="-91"/>
      <point x="65" y="-98"/>
      <point x="81" y="-98" type="curve" smooth="yes"/>
      <point x="224" y="-98" type="line" smooth="yes"/>
      <point x="239" y="-98"/>
      <point x="244" y="-91"/>
      <point x="244" y="-76" type="curve" smooth="yes"/>
      <point x="244" y="622" type="line" smooth="yes"/>
      <point x="244" y="636"/>
      <point x="239" y="643"/>
      <point x="224" y="643" type="curve" smooth="yes"/>
      <point x="81" y="643" type="line" smooth="yes"/>
      <point x="65" y="643"/>
      <point x="60" y="636"/>
      <point x="60" y="622" type="curve" smooth="yes"/>
      <point x="60" y="579" type="line" smooth="yes"/>
      <point x="60" y="565"/>
      <point x="65" y="558"/>
      <point x="81" y="558" type="curve" smooth="yes"/>
      <point x="131" y="558" type="line" smooth="yes"/>
      <point x="138" y="558"/>
      <point x="142" y="555"/>
      <point x="142" y="546" type="curve" smooth="yes"/>
      <point x="142" y="-1" type="line" smooth="yes"/>
      <point x="142" y="-10"/>
      <point x="138" y="-13"/>
      <point x="131" y="-13" type="curve" smooth="yes"/>
      <point x="81" y="-13" type="line" smooth="yes"/>
      <point x="65" y="-13"/>
      <point x="60" y="-20"/>
      <point x="60" y="-34" type="curve" smooth="yes"/>
    </contour>
  </outline>
</glyph>
<glyph name="c" format="1">
  <advance width="411"/>
  <unicode hex="0063"/>
  <outline>
    <contour>
      <point x="380" y="89" type="line"/>
      <point x="380" y="103"/>
      <point x="374" y="110"/>
      <point x="359" y="110" type="curve" smooth="yes"/>
      <point x="230" y="110" type="line" smooth="yes"/>
      <point x="188" y="110"/>
      <point x="172" y="127"/>
      <point x="172" y="169" type="curve" smooth="yes"/>
      <point x="172" y="341" type="line" smooth="yes"/>
      <point x="172" y="383"/>
      <point x="188" y="400"/>
      <point x="230" y="400" type="curve" smooth="yes"/>
      <point x="359" y="400" type="line" smooth="yes"/>
      <point x="375" y="400"/>
      <point x="380" y="405"/>
      <point x="380" y="420" type="curve" smooth="yes"/>
      <point x="380" y="489" type="line" smooth="yes"/>
      <point x="380" y="503"/>
      <point x="374" y="510"/>
      <point x="359" y="510" type="curve" smooth="yes"/>
      <point x="210" y="510" type="line" smooth="yes"/>
      <point x="105" y="510"/>
      <point x="45" y="452"/>
      <point x="45" y="347" type="curve" smooth="yes"/>
      <point x="45" y="163" type="line" smooth="yes"/>
      <point x="45" y="58"/>
      <point x="105" y="0"/>
      <point x="210" y="0" type="curve" smooth="yes"/>
      <point x="359" y="0" type="line" smooth="yes"/>
      <point x="375" y="0"/>
      <point x="380" y="5"/>
      <point x="380" y="20" type="curve" smooth="yes"/>
    </contour>
  </outline>
</glyph>
<glyph name="i" format="1">
  <advance width="247"/>
  <unicode hex="0069"/>
  <outline>
    <contour>
      <point x="60" y="21" type="line"/>
      <point x="60" y="5"/>
      <point x="67" y="0"/>
      <point x="81" y="0" type="curve" smooth="yes"/>
      <point x="167" y="0" type="line" smooth="yes"/>
      <point x="182" y="0"/>
      <point x="187" y="4"/>
      <point x="187" y="21" type="curve" smooth="yes"/>
      <point x="187" y="489" type="line" smooth="yes"/>
      <point x="187" y="505"/>
      <point x="180" y="510"/>
      <point x="166" y="510" type="curve" smooth="yes"/>
      <point x="80" y="510" type="line" smooth="yes"/>
      <point x="66" y="510"/>
      <point x="60" y="505"/>
      <point x="60" y="489" type="curve" smooth="yes"/>
    </contour>
    <contour>
      <point x="60" y="596" type="line"/>
      <point x="60" y="583"/>
      <point x="66" y="576"/>
      <point x="80" y="576" type="curve" smooth="yes"/>
      <point x="167" y="576" type="line" smooth="yes"/>
      <point x="181" y="576"/>
      <point x="187" y="583"/>
      <point x="187" y="596" type="curve" smooth="yes"/>
      <point x="187" y="684" type="line" smooth="yes"/>
      <point x="187" y="697"/>
      <point x="180" y="703"/>
      <point x="167" y="703" type="curve" smooth="yes"/>
      <point x="80" y="703" type="line" smooth="yes"/>
      <point x="66" y="703"/>
      <point x="60" y="697"/>
      <point x="60" y="683" type="curve" smooth="yes"/>
    </contour>
  </outline>
</glyph>
<glyph name="k" format="1">
  <advance width="472"/>
  <unicode hex="006B"/>
  <outline>
    <contour>
      <point x="193" y="277" type="line"/>
      <point x="188" y="267"/>
      <point x="188" y="253"/>
      <point x="193" y="244" type="curve" smooth="yes"/>
      <point x="320" y="21" type="line" smooth="yes"/>
      <point x="330" y="4"/>
      <point x="337" y="0"/>
      <point x="360" y="0" type="curve" smooth="yes"/>
      <point x="446" y="0" type="line" smooth="yes"/>
      <point x="464" y="0"/>
      <point x="471" y="12"/>
      <point x="463" y="25" type="curve" smooth="yes"/>
      <point x="324" y="262" type="line"/>
      <point x="324" y="266" type="line"/>
      <point x="457" y="485" type="line"/>
      <point x="467" y="500"/>
      <point x="459" y="510"/>
      <point x="444" y="510" type="curve" smooth="yes"/>
      <point x="347" y="510" type="line" smooth="yes"/>
      <point x="332" y="510"/>
      <point x="321" y="505"/>
      <point x="313" y="490" type="curve" smooth="yes"/>
    </contour>
    <contour>
      <point x="161" y="0" type="line" smooth="yes"/>
      <point x="175" y="0"/>
      <point x="182" y="5"/>
      <point x="182" y="21" type="curve" smooth="yes"/>
      <point x="182" y="59"/>
      <point x="182" y="644"/>
      <point x="182" y="682" type="curve" smooth="yes"/>
      <point x="182" y="698"/>
      <point x="175" y="703"/>
      <point x="161" y="703" type="curve" smooth="yes"/>
      <point x="76" y="703" type="line" smooth="yes"/>
      <point x="62" y="703"/>
      <point x="55" y="698"/>
      <point x="55" y="682" type="curve" smooth="yes"/>
      <point x="55" y="21" type="line" smooth="yes"/>
      <point x="55" y="5"/>
      <point x="62" y="0"/>
      <point x="76" y="0" type="curve" smooth="yes"/>
    </contour>
  </outline>
</glyph>
<glyph name="t" format="1">
  <advance width="353"/>
  <unicode hex="0074"/>
  <outline>
    <contour>
      <point x="66" y="400" type="line"/>
      <point x="74" y="400"/>
      <point x="77" y="397"/>
      <point x="77" y="389" type="curve" smooth="yes"/>
      <point x="77" y="162" type="line" smooth="yes"/>
      <point x="77" y="57"/>
      <point x="139" y="0"/>
      <point x="243" y="0" type="curve" smooth="yes"/>
      <point x="304" y="0" type="line" smooth="yes"/>
      <point x="320" y="0"/>
      <point x="325" y="5"/>
      <point x="325" y="20" type="curve" smooth="yes"/>
      <point x="325" y="89" type="line" smooth="yes"/>
      <point x="325" y="103"/>
      <point x="320" y="110"/>
      <point x="304" y="110" type="curve" smooth="yes"/>
      <point x="264" y="110" type="line" smooth="yes"/>
      <point x="221" y="110"/>
      <point x="204" y="127"/>
      <point x="204" y="168" type="curve" smooth="yes"/>
      <point x="204" y="389" type="line" smooth="yes"/>
      <point x="204" y="397"/>
      <point x="208" y="400"/>
      <point x="216" y="400" type="curve" smooth="yes"/>
      <point x="294" y="400" type="line" smooth="yes"/>
      <point x="310" y="400"/>
      <point x="315" y="405"/>
      <point x="315" y="420" type="curve" smooth="yes"/>
      <point x="315" y="489" type="line" smooth="yes"/>
      <point x="315" y="503"/>
      <point x="310" y="510"/>
      <point x="294" y="510" type="curve" smooth="yes"/>
      <point x="216" y="510" type="line" smooth="yes"/>
      <point x="208" y="510"/>
      <point x="204" y="513"/>
      <point x="204" y="521" type="curve" smooth="yes"/>
      <point x="204" y="616" type="line" smooth="yes"/>
      <point x="204" y="631"/>
      <point x="197" y="637"/>
      <point x="183" y="637" type="curve" smooth="yes"/>
      <point x="99" y="637" type="line" smooth="yes"/>
      <point x="85" y="637"/>
      <point x="77" y="631"/>
      <point x="77" y="616" type="curve" smooth="yes"/>
      <point x="77" y="521" type="line" smooth="yes"/>
      <point x="77" y="513"/>
      <point x="74" y="510"/>
      <point x="66" y="510" type="curve" smooth="yes"/>
      <point x="26" y="510" type="line" smooth="yes"/>
      <point x="10" y="510"/>
      <point x="5" y="503"/>
      <point x="5" y="489" type="curve" smooth="yes"/>
      <point x="5" y="420" type="line" smooth="yes"/>
      <point x="5" y="405"/>
      <point x="9" y="400"/>
      <point x="26" y="400" type="curve" smooth="yes"/>
    </contour>
  </outline>
</glyph>
<glyph name="v" format="1">
  <advance width="468"/>
  <unicode hex="0076"/>
  <outline>
    <contour>
      <point x="143" y="22" type="line"/>
      <point x="147" y="7"/>
      <point x="156" y="0"/>
      <point x="170" y="0" type="curve" smooth="yes"/>
      <point x="297" y="0" type="line" smooth="yes"/>
      <point x="312" y="0"/>
      <point x="321" y="7"/>
      <point x="324" y="22" type="curve"/>
      <point x="450" y="489" type="line" smooth="yes"/>
      <point x="454" y="504"/>
      <point x="449" y="510"/>
      <point x="435" y="510" type="curve" smooth="yes"/>
      <point x="347" y="510" type="line" smooth="yes"/>
      <point x="332" y="510"/>
      <point x="325" y="505"/>
      <point x="322" y="489" type="curve" smooth="yes"/>
      <point x="238" y="113" type="line"/>
      <point x="231" y="113" type="line"/>
      <point x="145" y="489" type="line"/>
      <point x="142" y="505"/>
      <point x="135" y="510"/>
      <point x="121" y="510" type="curve" smooth="yes"/>
      <point x="33" y="510" type="line" smooth="yes"/>
      <point x="19" y="510"/>
      <point x="14" y="504"/>
      <point x="18" y="489" type="curve" smooth="yes"/>
    </contour>
  </outline>
</glyph>
<glyph name="w" format="1">
  <advance width="696"/>
  <unicode hex="0077"/>
  <outline>
    <contour>
      <point x="259" y="0" type="line"/>
      <point x="275" y="0"/>
      <point x="281" y="6"/>
      <point x="283" y="21" type="curve"/>
      <point x="343" y="359" type="line"/>
      <point x="351" y="359" type="line"/>
      <point x="412" y="21" type="line" smooth="yes"/>
      <point x="415" y="5"/>
      <point x="421" y="0"/>
      <point x="436" y="0" type="curve" smooth="yes"/>
      <point x="550" y="0" type="line" smooth="yes"/>
      <point x="565" y="0"/>
      <point x="571" y="5"/>
      <point x="574" y="21" type="curve" smooth="yes"/>
      <point x="674" y="489" type="line" smooth="yes"/>
      <point x="677" y="502"/>
      <point x="672" y="510"/>
      <point x="659" y="510" type="curve" smooth="yes"/>
      <point x="563" y="510" type="line" smooth="yes"/>
      <point x="549" y="510"/>
      <point x="541" y="505"/>
      <point x="539" y="489" type="curve" smooth="yes"/>
      <point x="493" y="147" type="line"/>
      <point x="485" y="147" type="line"/>
      <point x="416" y="489" type="line" smooth="yes"/>
      <point x="413" y="505"/>
      <point x="405" y="510"/>
      <point x="391" y="510" type="curve" smooth="yes"/>
      <point x="303" y="510" type="line" smooth="yes"/>
      <point x="290" y="510"/>
      <point x="282" y="504"/>
      <point x="280" y="489" type="curve"/>
      <point x="209" y="147" type="line"/>
      <point x="201" y="147" type="line"/>
      <point x="156" y="489" type="line" smooth="yes"/>
      <point x="154" y="506"/>
      <point x="146" y="510"/>
      <point x="132" y="510" type="curve" smooth="yes"/>
      <point x="36" y="510" type="line" smooth="yes"/>
      <point x="22" y="510"/>
      <point x="18" y="504"/>
      <point x="21" y="489" type="curve" smooth="yes"/>
      <point x="121" y="21" type="line" smooth="yes"/>
      <point x="124" y="7"/>
      <point x="131" y="0"/>
      <point x="145" y="0" type="curve" smooth="yes"/>
    </contour>
  </outline>
</glyph>
<glyph name="x" format="1">
  <advance width="462"/>
  <unicode hex="0078"/>
  <outline>
    <contour>
      <point x="137" y="0" type="line" smooth="yes"/>
      <point x="151" y="0"/>
      <point x="161" y="4"/>
      <point x="167" y="21" type="curve"/>
      <point x="230" y="174" type="line"/>
      <point x="234" y="174" type="line"/>
      <point x="297" y="21" type="line" smooth="yes"/>
      <point x="304" y="4"/>
      <point x="313" y="0"/>
      <point x="327" y="0" type="curve" smooth="yes"/>
      <point x="430" y="0" type="line" smooth="yes"/>
      <point x="444" y="0"/>
      <point x="449" y="9"/>
      <point x="442" y="21" type="curve" smooth="yes"/>
      <point x="313" y="260" type="line"/>
      <point x="433" y="489" type="line"/>
      <point x="442" y="503"/>
      <point x="434" y="510"/>
      <point x="420" y="510" type="curve" smooth="yes"/>
      <point x="320" y="510" type="line" smooth="yes"/>
      <point x="306" y="510"/>
      <point x="295" y="507"/>
      <point x="289" y="489" type="curve" smooth="yes"/>
      <point x="234" y="337" type="line"/>
      <point x="230" y="337" type="line"/>
      <point x="167" y="489" type="line"/>
      <point x="161" y="506"/>
      <point x="150" y="510"/>
      <point x="136" y="510" type="curve" smooth="yes"/>
      <point x="34" y="510" type="line" smooth="yes"/>
      <point x="22" y="510"/>
      <point x="14" y="503"/>
      <point x="22" y="489" type="curve" smooth="yes"/>
      <point x="148" y="260" type="line"/>
      <point x="22" y="21" type="line" smooth="yes"/>
      <point x="14" y="7"/>
      <point x="22" y="0"/>
      <point x="36" y="0" type="curve" smooth="yes"/>
    </contour>
  </outline>
</glyph>
<glyph name="braceright" format="1">
  <advance width="315"/>
  <unicode hex="007D"/>
  <outline>
    <contour>
      <point x="201" y="480" type="line" smooth="yes"/>
      <point x="201" y="585"/>
      <point x="153" y="643"/>
      <point x="51" y="643" type="curve" smooth="yes"/>
      <point x="44" y="643" type="line" smooth="yes"/>
      <point x="28" y="643"/>
      <point x="23" y="636"/>
      <point x="23" y="622" type="curve" smooth="yes"/>
      <point x="23" y="575" type="line" smooth="yes"/>
      <point x="23" y="561"/>
      <point x="28" y="554"/>
      <point x="44" y="554" type="curve" smooth="yes"/>
      <point x="47" y="554" type="line" smooth="yes"/>
      <point x="88" y="554"/>
      <point x="100" y="537"/>
      <point x="100" y="495" type="curve" smooth="yes"/>
      <point x="100" y="369" type="line" smooth="yes"/>
      <point x="100" y="316"/>
      <point x="116" y="285"/>
      <point x="162" y="270" type="curve"/>
      <point x="118" y="258"/>
      <point x="100" y="225"/>
      <point x="100" y="172" type="curve" smooth="yes"/>
      <point x="100" y="46" type="line" smooth="yes"/>
      <point x="100" y="4"/>
      <point x="88" y="-13"/>
      <point x="47" y="-13" type="curve" smooth="yes"/>
      <point x="44" y="-13" type="line" smooth="yes"/>
      <point x="28" y="-13"/>
      <point x="23" y="-20"/>
      <point x="23" y="-34" type="curve" smooth="yes"/>
      <point x="23" y="-81" type="line" smooth="yes"/>
      <point x="23" y="-95"/>
      <point x="28" y="-102"/>
      <point x="44" y="-102" type="curve" smooth="yes"/>
      <point x="51" y="-102" type="line" smooth="yes"/>
      <point x="153" y="-102"/>
      <point x="201" y="-44"/>
      <point x="201" y="61" type="curve" smooth="yes"/>
      <point x="201" y="162" type="line" smooth="yes"/>
      <point x="201" y="202"/>
      <point x="215" y="215"/>
      <point x="243" y="215" type="curve" smooth="yes"/>
      <point x="258" y="215"/>
      <point x="263" y="222"/>
      <point x="263" y="237" type="curve" smooth="yes"/>
      <point x="263" y="304" type="line" smooth="yes"/>
      <point x="263" y="318"/>
      <point x="258" y="326"/>
      <point x="243" y="326" type="curve" smooth="yes"/>
      <point x="215" y="326"/>
      <point x="201" y="339"/>
      <point x="201" y="379" type="curve" smooth="yes"/>
    </contour>
  </outline>
</glyph>
<glyph name="exclamdown" format="1">
  <advance width="238"/>
  <unicode hex="00A1"/>
  <outline>
    <contour>
      <point x="90" y="283" type="line" smooth="yes"/>
      <point x="76" y="283"/>
      <point x="70" y="278"/>
      <point x="67" y="262" type="curve"/>
      <point x="67" y="258"/>
      <point x="50" y="126"/>
      <point x="50" y="44" type="curve" smooth="yes"/>
      <point x="50" y="-111" type="line" smooth="yes"/>
      <point x="50" y="-127"/>
      <point x="57" y="-132"/>
      <point x="71" y="-132" type="curve" smooth="yes"/>
      <point x="166" y="-132" type="line" smooth="yes"/>
      <point x="180" y="-132"/>
      <point x="187" y="-127"/>
      <point x="187" y="-111" type="curve" smooth="yes"/>
      <point x="187" y="44" type="line" smooth="yes"/>
      <point x="187" y="126"/>
      <point x="170" y="258"/>
      <point x="170" y="262" type="curve"/>
      <point x="167" y="278"/>
      <point x="161" y="283"/>
      <point x="147" y="283" type="curve" smooth="yes"/>
    </contour>
    <contour>
      <point x="164" y="348" type="line"/>
      <point x="176" y="348"/>
      <point x="184" y="354"/>
      <point x="184" y="367" type="curve" smooth="yes"/>
      <point x="184" y="490" type="line" smooth="yes"/>
      <point x="184" y="504"/>
      <point x="177" y="511"/>
      <point x="164" y="511" type="curve" smooth="yes"/>
      <point x="76" y="511" type="line" smooth="yes"/>
      <point x="62" y="511"/>
      <point x="56" y="502"/>
      <point x="56" y="489" type="curve" smooth="yes"/>
      <point x="56" y="368" type="line" smooth="yes"/>
      <point x="56" y="354"/>
      <point x="62" y="348"/>
      <point x="76" y="348" type="curve" smooth="yes"/>
    </contour>
  </outline>
</glyph>
<glyph name="cent" format="1">
  <advance width="430"/>
  <unicode hex="00A2"/>
  <outline>
    <contour>
      <point x="287" y="-94" type="line"/>
      <point x="299" y="-94"/>
      <point x="306" y="-89"/>
      <point x="306" y="-75" type="curve" smooth="yes"/>
      <point x="306" y="0" type="line"/>
      <point x="369" y="0" type="line" smooth="yes"/>
      <point x="384" y="0"/>
      <point x="391" y="7"/>
      <point x="391" y="21" type="curve" smooth="yes"/>
      <point x="391" y="90" type="line" smooth="yes"/>
      <point x="391" y="103"/>
      <point x="384" y="110"/>
      <point x="369" y="110" type="curve" smooth="yes"/>
      <point x="230" y="110" type="line" smooth="yes"/>
      <point x="188" y="110"/>
      <point x="172" y="127"/>
      <point x="172" y="169" type="curve" smooth="yes"/>
      <point x="172" y="341" type="line" smooth="yes"/>
      <point x="172" y="383"/>
      <point x="188" y="400"/>
      <point x="230" y="400" type="curve" smooth="yes"/>
      <point x="369" y="400" type="line" smooth="yes"/>
      <point x="384" y="400"/>
      <point x="391" y="407"/>
      <point x="391" y="420" type="curve" smooth="yes"/>
      <point x="391" y="489" type="line" smooth="yes"/>
      <point x="391" y="503"/>
      <point x="367" y="510"/>
      <point x="353" y="510" type="curve" smooth="yes"/>
      <point x="306" y="510" type="line"/>
      <point x="306" y="588" type="line" smooth="yes"/>
      <point x="306" y="601"/>
      <point x="299" y="607"/>
      <point x="287" y="607" type="curve" smooth="yes"/>
      <point x="224" y="607" type="line" smooth="yes"/>
      <point x="211" y="607"/>
      <point x="204" y="600"/>
      <point x="204" y="587" type="curve" smooth="yes"/>
      <point x="204" y="510" type="line"/>
      <point x="197" y="510" type="line" smooth="yes"/>
      <point x="100" y="510"/>
      <point x="45" y="448"/>
      <point x="45" y="347" type="curve" smooth="yes"/>
      <point x="45" y="163" type="line" smooth="yes"/>
      <point x="45" y="62"/>
      <point x="100" y="0"/>
      <point x="197" y="0" type="curve" smooth="yes"/>
      <point x="204" y="0" type="line"/>
      <point x="204" y="-74" type="line" smooth="yes"/>
      <point x="204" y="-88"/>
      <point x="211" y="-94"/>
      <point x="224" y="-94" type="curve" smooth="yes"/>
    </contour>
  </outline>
</glyph>
<glyph name="copyright" format="1">
  <advance width="703"/>
  <unicode hex="00A9"/>
  <outline>
    <contour>
      <point x="189" y="643" type="line" smooth="yes"/>
      <point x="111" y="643"/>
      <point x="63" y="597"/>
      <point x="63" y="519" type="curve" smooth="yes"/>
      <point x="63" y="124" type="line" smooth="yes"/>
      <point x="63" y="46"/>
      <point x="111" y="0"/>
      <point x="189" y="0" type="curve" smooth="yes"/>
      <point x="515" y="0" type="line" smooth="yes"/>
      <point x="593" y="0"/>
      <point x="641" y="46"/>
      <point x="641" y="124" type="curve" smooth="yes"/>
      <point x="641" y="519" type="line" smooth="yes"/>
      <point x="641" y="597"/>
      <point x="593" y="643"/>
      <point x="515" y="643" type="curve" smooth="yes"/>
    </contour>
    <contour>
      <point x="214" y="74" type="line"/>
      <point x="165" y="74"/>
      <point x="143" y="91"/>
      <point x="143" y="140" type="curve" smooth="yes"/>
      <point x="143" y="503" type="line" smooth="yes"/>
      <point x="143" y="552"/>
      <point x="165" y="569"/>
      <point x="214" y="569" type="curve" smooth="yes"/>
      <point x="489" y="569" type="line" smooth="yes"/>
      <point x="538" y="569"/>
      <point x="560" y="552"/>
      <point x="560" y="503" type="curve" smooth="yes"/>
      <point x="560" y="140" type="line" smooth="yes"/>
      <point x="560" y="91"/>
      <point x="538" y="74"/>
      <point x="489" y="74" type="curve" smooth="yes"/>
    </contour>
    <contour>
      <point x="490" y="403" type="line"/>
      <point x="490" y="473"/>
      <point x="450" y="509"/>
      <point x="381" y="509" type="curve" smooth="yes"/>
      <point x="329" y="509" type="line" smooth="yes"/>
      <point x="260" y="509"/>
      <point x="219" y="473"/>
      <point x="219" y="403" type="curve" smooth="yes"/>
      <point x="219" y="241" type="line" smooth="yes"/>
      <point x="219" y="172"/>
      <point x="260" y="135"/>
      <point x="329" y="135" type="curve" smooth="yes"/>
      <point x="381" y="135" type="line" smooth="yes"/>
      <point x="450" y="135"/>
      <point x="490" y="172"/>
      <point x="490" y="241" type="curve" smooth="yes"/>
      <point x="490" y="270" type="line" smooth="yes"/>
      <point x="490" y="280"/>
      <point x="486" y="284"/>
      <point x="477" y="284" type="curve" smooth="yes"/>
      <point x="424" y="284" type="line" smooth="yes"/>
      <point x="415" y="284"/>
      <point x="410" y="280"/>
      <point x="410" y="270" type="curve" smooth="yes"/>
      <point x="410" y="256" type="line" smooth="yes"/>
      <point x="410" y="209"/>
      <point x="404" y="205"/>
      <point x="357" y="205" type="curve" smooth="yes"/>
      <point x="352" y="205" type="line" smooth="yes"/>
      <point x="306" y="205"/>
      <point x="300" y="209"/>
      <point x="300" y="256" type="curve" smooth="yes"/>
      <point x="300" y="389" type="line" smooth="yes"/>
      <point x="300" y="435"/>
      <point x="306" y="439"/>
      <point x="352" y="439" type="curve" smooth="yes"/>
      <point x="357" y="439" type="line" smooth="yes"/>
      <point x="404" y="439"/>
      <point x="410" y="435"/>
      <point x="410" y="389" type="curve" smooth="yes"/>
      <point x="410" y="375" type="line" smooth="yes"/>
      <point x="410" y="365"/>
      <point x="415" y="362"/>
      <point x="424" y="362" type="curve" smooth="yes"/>
      <point x="477" y="362" type="line" smooth="yes"/>
      <point x="486" y="362"/>
      <point x="490" y="365"/>
      <point x="490" y="375" type="curve" smooth="yes"/>
    </contour>
  </outline>
</glyph>
<glyph name="ordfeminine" format="1">
  <advance width="367"/>
  <unicode hex="00AA"/>
  <outline>
    <contour>
      <point x="230" y="464" type="line"/>
      <point x="230" y="437"/>
      <point x="221" y="416"/>
      <point x="186" y="416" type="curve" smooth="yes"/>
      <point x="174" y="416" type="line" smooth="yes"/>
      <point x="146" y="416"/>
      <point x="137" y="427"/>
      <point x="137" y="453" type="curve" smooth="yes"/>
      <point x="137" y="526" type="line" smooth="yes"/>
      <point x="137" y="553"/>
      <point x="146" y="564"/>
      <point x="174" y="564" type="curve" smooth="yes"/>
      <point x="222" y="564" type="line" smooth="yes"/>
      <point x="227" y="564"/>
      <point x="230" y="562"/>
      <point x="230" y="557" type="curve" smooth="yes"/>
    </contour>
    <contour>
      <point x="165" y="339" type="line" smooth="yes"/>
      <point x="189" y="339"/>
      <point x="214" y="348"/>
      <point x="224" y="373" type="curve"/>
      <point x="230" y="373" type="line"/>
      <point x="230" y="352" type="line" smooth="yes"/>
      <point x="230" y="342"/>
      <point x="234" y="339"/>
      <point x="243" y="339" type="curve" smooth="yes"/>
      <point x="306" y="339" type="line" smooth="yes"/>
      <point x="315" y="339"/>
      <point x="319" y="342"/>
      <point x="319" y="352" type="curve" smooth="yes"/>
      <point x="319" y="630" type="line" smooth="yes"/>
      <point x="319" y="640"/>
      <point x="315" y="643"/>
      <point x="306" y="643" type="curve" smooth="yes"/>
      <point x="161" y="643" type="line" smooth="yes"/>
      <point x="94" y="643"/>
      <point x="47" y="606"/>
      <point x="47" y="540" type="curve" smooth="yes"/>
      <point x="47" y="442" type="line" smooth="yes"/>
      <point x="47" y="375"/>
      <point x="94" y="339"/>
      <point x="161" y="339" type="curve" smooth="yes"/>
    </contour>
  </outline>
</glyph>
<glyph name="guillemotleft" format="1">
  <advance width="454"/>
  <unicode hex="00AB"/>
  <outline>
    <contour>
      <point x="215" y="334" type="line"/>
      <point x="232" y="344"/>
      <point x="235" y="350"/>
      <point x="235" y="363" type="curve" smooth="yes"/>
      <point x="235" y="418" type="line" smooth="yes"/>
      <point x="235" y="433"/>
      <point x="226" y="438"/>
      <point x="214" y="428" type="curve" smooth="yes"/>
      <point x="65" y="313" type="line" smooth="yes"/>
      <point x="51" y="303"/>
      <point x="45" y="298"/>
      <point x="45" y="278" type="curve" smooth="yes"/>
      <point x="45" y="237" type="line" smooth="yes"/>
      <point x="45" y="216"/>
      <point x="50" y="211"/>
      <point x="65" y="200" type="curve" smooth="yes"/>
      <point x="214" y="85" type="line" smooth="yes"/>
      <point x="226" y="75"/>
      <point x="235" y="80"/>
      <point x="235" y="95" type="curve" smooth="yes"/>
      <point x="235" y="150" type="line" smooth="yes"/>
      <point x="235" y="164"/>
      <point x="232" y="169"/>
      <point x="215" y="180" type="curve"/>
      <point x="113" y="257" type="line"/>
    </contour>
    <contour>
      <point x="389" y="334" type="line"/>
      <point x="406" y="344"/>
      <point x="409" y="350"/>
      <point x="409" y="363" type="curve" smooth="yes"/>
      <point x="409" y="418" type="line" smooth="yes"/>
      <point x="409" y="433"/>
      <point x="400" y="438"/>
      <point x="388" y="428" type="curve" smooth="yes"/>
      <point x="239" y="313" type="line" smooth="yes"/>
      <point x="225" y="303"/>
      <point x="219" y="298"/>
      <point x="219" y="278" type="curve" smooth="yes"/>
      <point x="219" y="237" type="line" smooth="yes"/>
      <point x="219" y="216"/>
      <point x="224" y="211"/>
      <point x="239" y="200" type="curve" smooth="yes"/>
      <point x="388" y="85" type="line" smooth="yes"/>
      <point x="400" y="75"/>
      <point x="409" y="80"/>
      <point x="409" y="95" type="curve" smooth="yes"/>
      <point x="409" y="150" type="line" smooth="yes"/>
      <point x="409" y="164"/>
      <point x="406" y="169"/>
      <point x="389" y="180" type="curve"/>
      <point x="287" y="257" type="line"/>
    </contour>
  </outline>
</glyph>
<glyph name="logicalnot" format="1">
  <advance width="533"/>
  <unicode hex="00AC"/>
  <outline>
    <contour>
      <point x="493" y="334" type="line" smooth="yes"/>
      <point x="493" y="352"/>
      <point x="486" y="358"/>
      <point x="469" y="358" type="curve" smooth="yes"/>
      <point x="410" y="358" type="line" smooth="yes"/>
      <point x="393" y="358"/>
      <point x="386" y="352"/>
      <point x="386" y="334" type="curve" smooth="yes"/>
      <point x="386" y="146" type="line" smooth="yes"/>
      <point x="386" y="128"/>
      <point x="393" y="122"/>
      <point x="410" y="122" type="curve" smooth="yes"/>
      <point x="469" y="122" type="line" smooth="yes"/>
      <point x="486" y="122"/>
      <point x="493" y="128"/>
      <point x="493" y="146" type="curve" smooth="yes"/>
    </contour>
    <contour>
      <point x="61" y="370" type="line" smooth="yes"/>
      <point x="45" y="370"/>
      <point x="40" y="363"/>
      <point x="40" y="348" type="curve" smooth="yes"/>
      <point x="40" y="306" type="line"/>
      <point x="40" y="292"/>
      <point x="45" y="284"/>
      <point x="61" y="284" type="curve" smooth="yes"/>
      <point x="473" y="284" type="line" smooth="yes"/>
      <point x="488" y="284"/>
      <point x="493" y="292"/>
      <point x="493" y="306" type="curve" smooth="yes"/>
      <point x="493" y="348" type="line" smooth="yes"/>
      <point x="493" y="363"/>
      <point x="488" y="370"/>
      <point x="473" y="370" type="curve" smooth="yes"/>
    </contour>
  </outline>
</glyph>
<glyph name="degree" format="1">
  <advance width="379"/>
  <unicode hex="00B0"/>
  <outline>
    <contour>
      <point x="196" y="557" type="curve"/>
      <point x="196" y="557"/>
      <point x="182" y="557"/>
      <point x="182" y="557" type="curve"/>
      <point x="164" y="557"/>
      <point x="160" y="561"/>
      <point x="160" y="578" type="curve" smooth="yes"/>
      <point x="160" y="634" type="line" smooth="yes"/>
      <point x="160" y="653"/>
      <point x="164" y="656"/>
      <point x="182" y="656" type="curve" smooth="yes"/>
      <point x="182" y="656"/>
      <point x="196" y="656"/>
      <point x="196" y="656" type="curve"/>
      <point x="213" y="656"/>
      <point x="218" y="653"/>
      <point x="218" y="634" type="curve" smooth="yes"/>
      <point x="218" y="578" type="line" smooth="yes"/>
      <point x="218" y="561"/>
      <point x="213" y="557"/>
    </contour>
    <contour>
      <point x="220" y="510" type="line" smooth="yes"/>
      <point x="250" y="510"/>
      <point x="270" y="528"/>
      <point x="270" y="559" type="curve" smooth="yes"/>
      <point x="270" y="656" type="line" smooth="yes"/>
      <point x="270" y="686"/>
      <point x="250" y="703"/>
      <point x="220" y="703" type="curve" smooth="yes"/>
      <point x="158" y="703" type="line" smooth="yes"/>
      <point x="127" y="703"/>
      <point x="109" y="686"/>
      <point x="109" y="656" type="curve" smooth="yes"/>
      <point x="109" y="559" type="line" smooth="yes"/>
      <point x="109" y="528"/>
      <point x="127" y="510"/>
      <point x="158" y="510" type="curve" smooth="yes"/>
    </contour>
  </outline>
</glyph>
<glyph name="plusminus" format="1">
  <advance width="565"/>
  <unicode hex="00B1"/>
  <outline>
    <contour>
      <point x="336" y="510" type="line" smooth="yes"/>
      <point x="336" y="528"/>
      <point x="329" y="534"/>
      <point x="312" y="534" type="curve" smooth="yes"/>
      <point x="253" y="534" type="line" smooth="yes"/>
      <point x="236" y="534"/>
      <point x="229" y="528"/>
      <point x="229" y="510" type="curve" smooth="yes"/>
      <point x="229" y="272" type="line" smooth="yes"/>
      <point x="229" y="254"/>
      <point x="236" y="248"/>
      <point x="253" y="248" type="curve" smooth="yes"/>
      <point x="312" y="248" type="line" smooth="yes"/>
      <point x="329" y="248"/>
      <point x="336" y="254"/>
      <point x="336" y="272" type="curve" smooth="yes"/>
    </contour>
    <contour>
      <point x="93" y="442" type="line" smooth="yes"/>
      <point x="75" y="442"/>
      <point x="70" y="435"/>
      <point x="70" y="418" type="curve" smooth="yes"/>
      <point x="70" y="365" type="line" smooth="yes"/>
      <point x="70" y="348"/>
      <point x="75" y="341"/>
      <point x="93" y="341" type="curve" smooth="yes"/>
      <point x="472" y="341" type="line" smooth="yes"/>
      <point x="490" y="341"/>
      <point x="495" y="348"/>
      <point x="495" y="365" type="curve" smooth="yes"/>
      <point x="495" y="418" type="line" smooth="yes"/>
      <point x="495" y="435"/>
      <point x="490" y="442"/>
      <point x="472" y="442" type="curve" smooth="yes"/>
    </contour>
    <contour>
      <point x="93" y="209" type="line" smooth="yes"/>
      <point x="75" y="209"/>
      <point x="70" y="202"/>
      <point x="70" y="186" type="curve" smooth="yes"/>
      <point x="70" y="132" type="line" smooth="yes"/>
      <point x="70" y="116"/>
      <point x="75" y="108"/>
      <point x="93" y="108" type="curve" smooth="yes"/>
      <point x="472" y="108" type="line" smooth="yes"/>
      <point x="490" y="108"/>
      <point x="495" y="116"/>
      <point x="495" y="132" type="curve" smooth="yes"/>
      <point x="495" y="186" type="line" smooth="yes"/>
      <point x="495" y="202"/>
      <point x="490" y="209"/>
      <point x="472" y="209" type="curve" smooth="yes"/>
    </contour>
  </outline>
</glyph>
<glyph name="paragraph" format="1">
  <advance width="546"/>
  <unicode hex="00B6"/>
  <outline>
    <contour>
      <point x="257" y="0" type="line"/>
      <point x="271" y="0"/>
      <point x="278" y="5"/>
      <point x="278" y="21" type="curve" smooth="yes"/>
      <point x="278" y="538" type="line" smooth="yes"/>
      <point x="278" y="546"/>
      <point x="282" y="549"/>
      <point x="290" y="549" type="curve" smooth="yes"/>
      <point x="358" y="549" type="line" smooth="yes"/>
      <point x="366" y="549"/>
      <point x="370" y="546"/>
      <point x="370" y="538" type="curve" smooth="yes"/>
      <point x="370" y="21" type="line" smooth="yes"/>
      <point x="370" y="5"/>
      <point x="377" y="0"/>
      <point x="391" y="0" type="curve" smooth="yes"/>
      <point x="451" y="0" type="line" smooth="yes"/>
      <point x="465" y="0"/>
      <point x="472" y="5"/>
      <point x="472" y="21" type="curve" smooth="yes"/>
      <point x="472" y="623" type="line" smooth="yes"/>
      <point x="472" y="638"/>
      <point x="465" y="643"/>
      <point x="451" y="643" type="curve" smooth="yes"/>
      <point x="196" y="643" type="line" smooth="yes"/>
      <point x="125" y="643"/>
      <point x="50" y="613"/>
      <point x="50" y="517" type="curve" smooth="yes"/>
      <point x="50" y="443" type="line" smooth="yes"/>
      <point x="50" y="355"/>
      <point x="113" y="318"/>
      <point x="176" y="318" type="curve"/>
      <point x="176" y="21" type="line" smooth="yes"/>
      <point x="176" y="5"/>
      <point x="183" y="0"/>
      <point x="197" y="0" type="curve" smooth="yes"/>
    </contour>
  </outline>
</glyph>
<glyph name="cedilla" format="1">
  <advance width="266"/>
  <unicode hex="00B8"/>
  <outline>
    <contour>
      <point x="62" y="-39" type="line"/>
      <point x="44" y="-60"/>
      <point x="57" y="-94"/>
      <point x="81" y="-94" type="curve" smooth="yes"/>
      <point x="89" y="-94"/>
      <point x="98" y="-94"/>
      <point x="106" y="-94" type="curve" smooth="yes"/>
      <point x="142" y="-94"/>
      <point x="151" y="-98"/>
      <point x="151" y="-118" type="curve" smooth="yes"/>
      <point x="151" y="-120" type="line" smooth="yes"/>
      <point x="151" y="-138"/>
      <point x="143" y="-143"/>
      <point x="106" y="-143" type="curve" smooth="yes"/>
      <point x="106" y="-143"/>
      <point x="73" y="-143"/>
      <point x="73" y="-143" type="curve"/>
      <point x="58" y="-143"/>
      <point x="55" y="-147"/>
      <point x="55" y="-162" type="curve" smooth="yes"/>
      <point x="55" y="-182" type="line" smooth="yes"/>
      <point x="55" y="-196"/>
      <point x="58" y="-200"/>
      <point x="73" y="-200" type="curve" smooth="yes"/>
      <point x="73" y="-200"/>
      <point x="118" y="-200"/>
      <point x="118" y="-200" type="curve"/>
      <point x="173" y="-200"/>
      <point x="212" y="-179"/>
      <point x="212" y="-130" type="curve" smooth="yes"/>
      <point x="212" y="-124"/>
      <point x="212" y="-118"/>
      <point x="212" y="-112" type="curve" smooth="yes"/>
      <point x="212" y="-57"/>
      <point x="183" y="-37"/>
      <point x="138" y="-37" type="curve"/>
      <point x="138" y="-36"/>
      <point x="138" y="-33"/>
      <point x="138" y="-33" type="curve"/>
      <point x="191" y="20" type="line"/>
      <point x="113" y="20" type="line"/>
    </contour>
  </outline>
</glyph>
<glyph name="onesuperior" format="1">
  <advance width="213"/>
  <unicode hex="00B9"/>
  <outline>
    <contour>
      <point x="87" y="561" type="line"/>
      <point x="87" y="311" type="line" smooth="yes"/>
      <point x="87" y="303"/>
      <point x="91" y="300"/>
      <point x="98" y="300" type="curve" smooth="yes"/>
      <point x="160" y="300" type="line" smooth="yes"/>
      <point x="168" y="300"/>
      <point x="171" y="302"/>
      <point x="171" y="311" type="curve" smooth="yes"/>
      <point x="171" y="632" type="line" smooth="yes"/>
      <point x="171" y="640"/>
      <point x="167" y="643"/>
      <point x="160" y="643" type="curve" smooth="yes"/>
      <point x="101" y="643" type="line" smooth="yes"/>
      <point x="93" y="643"/>
      <point x="88" y="640"/>
      <point x="80" y="636" type="curve" smooth="yes"/>
      <point x="31" y="604" type="line" smooth="yes"/>
      <point x="25" y="601"/>
      <point x="23" y="598"/>
      <point x="23" y="591" type="curve" smooth="yes"/>
      <point x="23" y="537" type="line" smooth="yes"/>
      <point x="23" y="530"/>
      <point x="25" y="526"/>
      <point x="34" y="530" type="curve"/>
    </contour>
  </outline>
</glyph>
<glyph name="questiondown" format="1">
  <advance width="466"/>
  <unicode hex="00BF"/>
  <outline>
    <contour>
      <point x="177" y="236" type="line" smooth="yes"/>
      <point x="177" y="219"/>
      <point x="171" y="207"/>
      <point x="151" y="188" type="curve"/>
      <point x="83" y="133" type="line"/>
      <point x="55" y="109"/>
      <point x="38" y="78"/>
      <point x="38" y="45" type="curve" smooth="yes"/>
      <point x="38" y="31" type="line" smooth="yes"/>
      <point x="38" y="-74"/>
      <point x="98" y="-131"/>
      <point x="203" y="-131" type="curve" smooth="yes"/>
      <point x="262" y="-131" type="line" smooth="yes"/>
      <point x="366" y="-131"/>
      <point x="427" y="-74"/>
      <point x="427" y="31" type="curve" smooth="yes"/>
      <point x="427" y="54" type="line" smooth="yes"/>
      <point x="427" y="69"/>
      <point x="420" y="76"/>
      <point x="406" y="76" type="curve" smooth="yes"/>
      <point x="321" y="76" type="line" smooth="yes"/>
      <point x="307" y="76"/>
      <point x="300" y="69"/>
      <point x="300" y="54" type="curve" smooth="yes"/>
      <point x="300" y="33" type="line" smooth="yes"/>
      <point x="300" y="-9"/>
      <point x="284" y="-25"/>
      <point x="241" y="-25" type="curve" smooth="yes"/>
      <point x="223" y="-25" type="line" smooth="yes"/>
      <point x="181" y="-25"/>
      <point x="162" y="-9"/>
      <point x="162" y="33" type="curve" smooth="yes"/>
      <point x="162" y="39" type="line" smooth="yes"/>
      <point x="162" y="61"/>
      <point x="171" y="77"/>
      <point x="194" y="94" type="curve"/>
      <point x="250" y="140" type="line" smooth="yes"/>
      <point x="283" y="167"/>
      <point x="298" y="190"/>
      <point x="298" y="235" type="curve" smooth="yes"/>
      <point x="298" y="262" type="line" smooth="yes"/>
      <point x="298" y="277"/>
      <point x="291" y="283"/>
      <point x="277" y="283" type="curve" smooth="yes"/>
      <point x="198" y="283" type="line" smooth="yes"/>
      <point x="184" y="283"/>
      <point x="177" y="277"/>
      <point x="177" y="262" type="curve" smooth="yes"/>
    </contour>
    <contour>
      <point x="177" y="367" type="line" smooth="yes"/>
      <point x="177" y="354"/>
      <point x="184" y="348"/>
      <point x="197" y="348" type="curve" smooth="yes"/>
      <point x="286" y="348" type="line" smooth="yes"/>
      <point x="299" y="348"/>
      <point x="305" y="354"/>
      <point x="305" y="368" type="curve" smooth="yes"/>
      <point x="305" y="489" type="line" smooth="yes"/>
      <point x="305" y="502"/>
      <point x="299" y="511"/>
      <point x="286" y="511" type="curve" smooth="yes"/>
      <point x="197" y="511" type="line" smooth="yes"/>
      <point x="183" y="511"/>
      <point x="177" y="504"/>
      <point x="177" y="490" type="curve" smooth="yes"/>
    </contour>
  </outline>
</glyph>
<glyph name="Acircumflex" format="1">
  <advance width="556"/>
  <unicode hex="00C2"/>
  <outline>
    <contour>
      <point x="277" y="522" type="line"/>
      <point x="281" y="522" type="line"/>
      <point x="353" y="233" type="line"/>
      <point x="205" y="233" type="line"/>
    </contour>
    <contour>
      <point x="132" y="0" type="line"/>
      <point x="146" y="0"/>
      <point x="150" y="5"/>
      <point x="153" y="21" type="curve"/>
      <point x="181" y="131" type="line"/>
      <point x="376" y="131" type="line"/>
      <point x="404" y="21" type="line"/>
      <point x="406" y="5"/>
      <point x="411" y="0"/>
      <point x="425" y="0" type="curve" smooth="yes"/>
      <point x="521" y="0" type="line" smooth="yes"/>
      <point x="535" y="0"/>
      <point x="537" y="6"/>
      <point x="533" y="21" type="curve" smooth="yes"/>
      <point x="375" y="622" type="line" smooth="yes"/>
      <point x="371" y="638"/>
      <point x="361" y="643"/>
      <point x="345" y="643" type="curve" smooth="yes"/>
      <point x="212" y="643" type="line" smooth="yes"/>
      <point x="196" y="643"/>
      <point x="187" y="638"/>
      <point x="182" y="622" type="curve"/>
      <point x="24" y="21" type="line" smooth="yes"/>
      <point x="20" y="6"/>
      <point x="22" y="0"/>
      <point x="36" y="0" type="curve" smooth="yes"/>
    </contour>
    <contour>
      <point x="333" y="825" type="line"/>
      <point x="328" y="832"/>
      <point x="322" y="836"/>
      <point x="311" y="836" type="curve" smooth="yes"/>
      <point x="311" y="836"/>
      <point x="246" y="836"/>
      <point x="246" y="836" type="curve"/>
      <point x="236" y="836"/>
      <point x="229" y="832"/>
      <point x="224" y="825" type="curve"/>
      <point x="162" y="720" type="line" smooth="yes"/>
      <point x="158" y="713"/>
      <point x="160" y="707"/>
      <point x="170" y="707" type="curve" smooth="yes"/>
      <point x="229" y="707" type="line" smooth="yes"/>
      <point x="237" y="707"/>
      <point x="243" y="710"/>
      <point x="246" y="719" type="curve"/>
      <point x="279" y="785" type="line"/>
      <point x="311" y="719" type="line" smooth="yes"/>
      <point x="315" y="710"/>
      <point x="320" y="707"/>
      <point x="329" y="707" type="curve" smooth="yes"/>
      <point x="389" y="707" type="line" smooth="yes"/>
      <point x="398" y="707"/>
      <point x="400" y="713"/>
      <point x="396" y="720" type="curve" smooth="yes"/>
    </contour>
  </outline>
</glyph>
<glyph name="Atilde" format="1">
  <advance width="556"/>
  <unicode hex="00C3"/>
  <outline>
    <contour>
      <point x="277" y="522" type="line"/>
      <point x="281" y="522" type="line"/>
      <point x="353" y="233" type="line"/>
      <point x="205" y="233" type="line"/>
    </contour>
    <contour>
      <point x="132" y="0" type="line"/>
      <point x="146" y="0"/>
      <point x="150" y="5"/>
      <point x="153" y="21" type="curve"/>
      <point x="181" y="131" type="line"/>
      <point x="376" y="131" type="line"/>
      <point x="404" y="21" type="line"/>
      <point x="406" y="5"/>
      <point x="411" y="0"/>
      <point x="425" y="0" type="curve" smooth="yes"/>
      <point x="521" y="0" type="line" smooth="yes"/>
      <point x="535" y="0"/>
      <point x="537" y="6"/>
      <point x="533" y="21" type="curve" smooth="yes"/>
      <point x="375" y="622" type="line" smooth="yes"/>
      <point x="371" y="638"/>
      <point x="361" y="643"/>
      <point x="345" y="643" type="curve" smooth="yes"/>
      <point x="212" y="643" type="line" smooth="yes"/>
      <point x="196" y="643"/>
      <point x="187" y="638"/>
      <point x="182" y="622" type="curve"/>
      <point x="24" y="21" type="line" smooth="yes"/>
      <point x="20" y="6"/>
      <point x="22" y="0"/>
      <point x="36" y="0" type="curve" smooth="yes"/>
    </contour>
    <contour>
      <point x="294" y="738" type="curve"/>
      <point x="312" y="760"/>
      <point x="315" y="765"/>
      <point x="323" y="765" type="curve" smooth="yes"/>
      <point x="335" y="765"/>
      <point x="339" y="760"/>
      <point x="339" y="729" type="curve" smooth="yes"/>
      <point x="339" y="719" type="line" smooth="yes"/>
      <point x="339" y="710"/>
      <point x="341" y="706"/>
      <point x="349" y="706" type="curve" smooth="yes"/>
      <point x="389" y="706" type="line" smooth="yes"/>
      <point x="397" y="706"/>
      <point x="399" y="710"/>
      <point x="399" y="719" type="curve" smooth="yes"/>
      <point x="399" y="756" type="line" smooth="yes"/>
      <point x="399" y="796"/>
      <point x="383" y="833"/>
      <point x="327" y="833" type="curve" smooth="yes"/>
      <point x="304" y="833"/>
      <point x="287" y="826"/>
      <point x="267" y="801" type="curve" smooth="yes"/>
      <point x="247" y="775"/>
      <point x="242" y="769"/>
      <point x="235" y="769" type="curve" smooth="yes"/>
      <point x="224" y="769"/>
      <point x="220" y="775"/>
      <point x="220" y="805" type="curve" smooth="yes"/>
      <point x="220" y="817" type="line" smooth="yes"/>
      <point x="220" y="826"/>
      <point x="217" y="828"/>
      <point x="209" y="828" type="curve" smooth="yes"/>
      <point x="170" y="828" type="line" smooth="yes"/>
      <point x="161" y="828"/>
      <point x="159" y="826"/>
      <point x="159" y="817" type="curve" smooth="yes"/>
      <point x="159" y="778" type="line" smooth="yes"/>
      <point x="159" y="738"/>
      <point x="175" y="702"/>
      <point x="231" y="702" type="curve" smooth="yes"/>
      <point x="254" y="702"/>
      <point x="272" y="708"/>
    </contour>
  </outline>
</glyph>
<glyph name="Adieresis" format="1">
  <advance width="556"/>
  <unicode hex="00C4"/>
  <outline>
    <contour>
      <point x="277" y="522" type="line"/>
      <point x="281" y="522" type="line"/>
      <point x="353" y="233" type="line"/>
      <point x="205" y="233" type="line"/>
    </contour>
    <contour>
      <point x="132" y="0" type="line"/>
      <point x="146" y="0"/>
      <point x="150" y="5"/>
      <point x="153" y="21" type="curve"/>
      <point x="181" y="131" type="line"/>
      <point x="376" y="131" type="line"/>
      <point x="404" y="21" type="line"/>
      <point x="406" y="5"/>
      <point x="411" y="0"/>
      <point x="425" y="0" type="curve" smooth="yes"/>
      <point x="521" y="0" type="line" smooth="yes"/>
      <point x="535" y="0"/>
      <point x="537" y="6"/>
      <point x="533" y="21" type="curve" smooth="yes"/>
      <point x="375" y="622" type="line" smooth="yes"/>
      <point x="371" y="638"/>
      <point x="361" y="643"/>
      <point x="345" y="643" type="curve" smooth="yes"/>
      <point x="212" y="643" type="line" smooth="yes"/>
      <point x="196" y="643"/>
      <point x="187" y="638"/>
      <point x="182" y="622" type="curve"/>
      <point x="24" y="21" type="line" smooth="yes"/>
      <point x="20" y="6"/>
      <point x="22" y="0"/>
      <point x="36" y="0" type="curve" smooth="yes"/>
    </contour>
    <contour>
      <point x="314" y="728" type="line"/>
      <point x="314" y="714"/>
      <point x="320" y="707"/>
      <point x="333" y="707" type="curve" smooth="yes"/>
      <point x="413" y="707" type="line" smooth="yes"/>
      <point x="426" y="707"/>
      <point x="432" y="714"/>
      <point x="432" y="728" type="curve" smooth="yes"/>
      <point x="432" y="817" type="line" smooth="yes"/>
      <point x="432" y="831"/>
      <point x="425" y="836"/>
      <point x="413" y="836" type="curve" smooth="yes"/>
      <point x="333" y="836" type="line" smooth="yes"/>
      <point x="320" y="836"/>
      <point x="314" y="830"/>
      <point x="314" y="816" type="curve" smooth="yes"/>
    </contour>
    <contour>
      <point x="124" y="728" type="line"/>
      <point x="124" y="714"/>
      <point x="130" y="707"/>
      <point x="143" y="707" type="curve" smooth="yes"/>
      <point x="223" y="707" type="line" smooth="yes"/>
      <point x="236" y="707"/>
      <point x="242" y="714"/>
      <point x="242" y="728" type="curve" smooth="yes"/>
      <point x="242" y="817" type="line" smooth="yes"/>
      <point x="242" y="831"/>
      <point x="235" y="836"/>
      <point x="223" y="836" type="curve" smooth="yes"/>
      <point x="143" y="836" type="line" smooth="yes"/>
      <point x="130" y="836"/>
      <point x="124" y="830"/>
      <point x="124" y="816" type="curve" smooth="yes"/>
    </contour>
  </outline>
</glyph>
<glyph name="AE" format="1">
  <advance width="781"/>
  <unicode hex="00C6"/>
  <outline>
    <contour>
      <point x="364" y="522" type="line"/>
      <point x="368" y="522" type="line"/>
      <point x="368" y="243" type="line"/>
      <point x="237" y="243" type="line"/>
    </contour>
    <contour>
      <point x="112" y="0" type="line"/>
      <point x="126" y="0"/>
      <point x="133" y="5"/>
      <point x="139" y="21" type="curve"/>
      <point x="190" y="132" type="line"/>
      <point x="368" y="132" type="line"/>
      <point x="368" y="21" type="line" smooth="yes"/>
      <point x="368" y="5"/>
      <point x="375" y="0"/>
      <point x="389" y="0" type="curve" smooth="yes"/>
      <point x="716" y="0" type="line" smooth="yes"/>
      <point x="731" y="0"/>
      <point x="736" y="7"/>
      <point x="736" y="21" type="curve" smooth="yes"/>
      <point x="736" y="89" type="line" smooth="yes"/>
      <point x="736" y="103"/>
      <point x="731" y="110"/>
      <point x="716" y="110" type="curve" smooth="yes"/>
      <point x="507" y="110" type="line" smooth="yes"/>
      <point x="499" y="110"/>
      <point x="495" y="113"/>
      <point x="495" y="121" type="curve" smooth="yes"/>
      <point x="495" y="260" type="line" smooth="yes"/>
      <point x="495" y="268"/>
      <point x="499" y="271"/>
      <point x="507" y="271" type="curve" smooth="yes"/>
      <point x="678" y="271" type="line" smooth="yes"/>
      <point x="693" y="271"/>
      <point x="699" y="278"/>
      <point x="699" y="292" type="curve" smooth="yes"/>
      <point x="699" y="360" type="line" smooth="yes"/>
      <point x="699" y="374"/>
      <point x="693" y="381"/>
      <point x="678" y="381" type="curve" smooth="yes"/>
      <point x="507" y="381" type="line" smooth="yes"/>
      <point x="499" y="381"/>
      <point x="495" y="384"/>
      <point x="495" y="392" type="curve" smooth="yes"/>
      <point x="495" y="522" type="line" smooth="yes"/>
      <point x="495" y="530"/>
      <point x="499" y="533"/>
      <point x="507" y="533" type="curve" smooth="yes"/>
      <point x="716" y="533" type="line" smooth="yes"/>
      <point x="731" y="533"/>
      <point x="736" y="540"/>
      <point x="736" y="554" type="curve" smooth="yes"/>
      <point x="736" y="622" type="line" smooth="yes"/>
      <point x="736" y="636"/>
      <point x="731" y="643"/>
      <point x="716" y="643" type="curve" smooth="yes"/>
      <point x="317" y="643" type="line" smooth="yes"/>
      <point x="300" y="643"/>
      <point x="292" y="638"/>
      <point x="284" y="622" type="curve" smooth="yes"/>
      <point x="7" y="22" type="line" smooth="yes"/>
      <point x="1" y="8"/>
      <point x="5" y="0"/>
      <point x="20" y="0" type="curve" smooth="yes"/>
    </contour>
  </outline>
</glyph>
<glyph name="Ccedilla" format="1">
  <advance width="538"/>
  <unicode hex="00C7"/>
  <outline>
    <contour>
      <point x="329" y="0" type="line"/>
      <point x="433" y="0"/>
      <point x="494" y="58"/>
      <point x="494" y="163" type="curve" smooth="yes"/>
      <point x="494" y="166"/>
      <point x="494" y="210"/>
      <point x="494" y="210" type="curve"/>
      <point x="494" y="225"/>
      <point x="487" y="232"/>
      <point x="472" y="232" type="curve" smooth="yes"/>
      <point x="388" y="232" type="line" smooth="yes"/>
      <point x="374" y="232"/>
      <point x="367" y="225"/>
      <point x="367" y="210" type="curve" smooth="yes"/>
      <point x="367" y="210"/>
      <point x="367" y="169"/>
      <point x="367" y="169" type="curve"/>
      <point x="367" y="127"/>
      <point x="351" y="110"/>
      <point x="308" y="110" type="curve" smooth="yes"/>
      <point x="240" y="110" type="line" smooth="yes"/>
      <point x="198" y="110"/>
      <point x="182" y="127"/>
      <point x="182" y="169" type="curve" smooth="yes"/>
      <point x="182" y="474" type="line" smooth="yes"/>
      <point x="182" y="516"/>
      <point x="198" y="533"/>
      <point x="240" y="533" type="curve" smooth="yes"/>
      <point x="308" y="533" type="line" smooth="yes"/>
      <point x="351" y="533"/>
      <point x="367" y="516"/>
      <point x="367" y="474" type="curve" smooth="yes"/>
      <point x="367" y="474"/>
      <point x="367" y="433"/>
      <point x="367" y="433" type="curve"/>
      <point x="367" y="418"/>
      <point x="374" y="411"/>
      <point x="388" y="411" type="curve" smooth="yes"/>
      <point x="472" y="411" type="line" smooth="yes"/>
      <point x="487" y="411"/>
      <point x="494" y="418"/>
      <point x="494" y="433" type="curve" smooth="yes"/>
      <point x="494" y="433"/>
      <point x="494" y="480"/>
      <point x="494" y="480" type="curve"/>
      <point x="494" y="585"/>
      <point x="433" y="643"/>
      <point x="329" y="643" type="curve" smooth="yes"/>
      <point x="220" y="643" type="line" smooth="yes"/>
      <point x="115" y="643"/>
      <point x="55" y="585"/>
      <point x="55" y="480" type="curve" smooth="yes"/>
      <point x="55" y="163" type="line" smooth="yes"/>
      <point x="55" y="58"/>
      <point x="115" y="0"/>
      <point x="220" y="0" type="curve" smooth="yes"/>
    </contour>
    <contour>
      <point x="212" y="-47" type="line"/>
      <point x="193" y="-68"/>
      <point x="206" y="-102"/>
      <point x="230" y="-102" type="curve" smooth="yes"/>
      <point x="239" y="-102"/>
      <point x="247" y="-102"/>
      <point x="256" y="-102" type="curve" smooth="yes"/>
      <point x="292" y="-102"/>
      <point x="301" y="-106"/>
      <point x="301" y="-126" type="curve" smooth="yes"/>
      <point x="301" y="-127"/>
      <point x="301" y="-128"/>
      <point x="301" y="-129" type="curve" smooth="yes"/>
      <point x="301" y="-146"/>
      <point x="292" y="-151"/>
      <point x="256" y="-151" type="curve" smooth="yes"/>
      <point x="256" y="-151"/>
      <point x="222" y="-151"/>
      <point x="222" y="-151" type="curve"/>
      <point x="208" y="-151"/>
      <point x="204" y="-155"/>
      <point x="204" y="-171" type="curve" smooth="yes"/>
      <point x="204" y="-190" type="line" smooth="yes"/>
      <point x="204" y="-204"/>
      <point x="207" y="-209"/>
      <point x="222" y="-209" type="curve" smooth="yes"/>
      <point x="222" y="-209"/>
      <point x="268" y="-209"/>
      <point x="268" y="-209" type="curve"/>
      <point x="322" y="-209"/>
      <point x="362" y="-188"/>
      <point x="362" y="-138" type="curve" smooth="yes"/>
      <point x="362" y="-133"/>
      <point x="362" y="-126"/>
      <point x="362" y="-120" type="curve" smooth="yes"/>
      <point x="362" y="-65"/>
      <point x="332" y="-45"/>
      <point x="288" y="-45" type="curve"/>
      <point x="288" y="-44"/>
      <point x="288" y="-42"/>
      <point x="288" y="-41" type="curve"/>
      <point x="340" y="12" type="line"/>
      <point x="262" y="12" type="line"/>
    </contour>
  </outline>
</glyph>
<glyph name="Egrave" format="1">
  <advance width="479"/>
  <unicode hex="00C8"/>
  <outline>
    <contour>
      <point x="413" y="0" type="line"/>
      <point x="428" y="0"/>
      <point x="433" y="7"/>
      <point x="433" y="21" type="curve" smooth="yes"/>
      <point x="433" y="89" type="line" smooth="yes"/>
      <point x="433" y="103"/>
      <point x="428" y="110"/>
      <point x="413" y="110" type="curve" smooth="yes"/>
      <point x="204" y="110" type="line" smooth="yes"/>
      <point x="196" y="110"/>
      <point x="192" y="113"/>
      <point x="192" y="121" type="curve" smooth="yes"/>
      <point x="192" y="260" type="line" smooth="yes"/>
      <point x="192" y="268"/>
      <point x="196" y="271"/>
      <point x="204" y="271" type="curve" smooth="yes"/>
      <point x="375" y="271" type="line" smooth="yes"/>
      <point x="390" y="271"/>
      <point x="396" y="278"/>
      <point x="396" y="292" type="curve" smooth="yes"/>
      <point x="396" y="360" type="line" smooth="yes"/>
      <point x="396" y="374"/>
      <point x="390" y="381"/>
      <point x="375" y="381" type="curve" smooth="yes"/>
      <point x="204" y="381" type="line" smooth="yes"/>
      <point x="196" y="381"/>
      <point x="192" y="384"/>
      <point x="192" y="392" type="curve" smooth="yes"/>
      <point x="192" y="522" type="line" smooth="yes"/>
      <point x="192" y="530"/>
      <point x="196" y="533"/>
      <point x="204" y="533" type="curve" smooth="yes"/>
      <point x="413" y="533" type="line" smooth="yes"/>
      <point x="428" y="533"/>
      <point x="433" y="540"/>
      <point x="433" y="554" type="curve" smooth="yes"/>
      <point x="433" y="622" type="line" smooth="yes"/>
      <point x="433" y="636"/>
      <point x="428" y="643"/>
      <point x="413" y="643" type="curve" smooth="yes"/>
      <point x="86" y="643" type="line" smooth="yes"/>
      <point x="72" y="643"/>
      <point x="65" y="638"/>
      <point x="65" y="622" type="curve" smooth="yes"/>
      <point x="65" y="21" type="line" smooth="yes"/>
      <point x="65" y="5"/>
      <point x="72" y="0"/>
      <point x="86" y="0" type="curve" smooth="yes"/>
    </contour>
    <contour>
      <point x="245" y="817" type="line" smooth="yes"/>
      <point x="238" y="831"/>
      <point x="228" y="836"/>
      <point x="215" y="836" type="curve" smooth="yes"/>
      <point x="117" y="836" type="line" smooth="yes"/>
      <point x="103" y="836"/>
      <point x="98" y="827"/>
      <point x="107" y="816" type="curve" smooth="yes"/>
      <point x="188" y="720" type="line" smooth="yes"/>
      <point x="194" y="712"/>
      <point x="204" y="707"/>
      <point x="214" y="707" type="curve" smooth="yes"/>
      <point x="280" y="707" type="line" smooth="yes"/>
      <point x="293" y="707"/>
      <point x="297" y="713"/>
      <point x="290" y="728" type="curve" smooth="yes"/>
    </contour>
  </outline>
</glyph>
<glyph name="Ecircumflex" format="1">
  <advance width="479"/>
  <unicode hex="00CA"/>
  <outline>
    <contour>
      <point x="413" y="0" type="line"/>
      <point x="428" y="0"/>
      <point x="433" y="7"/>
      <point x="433" y="21" type="curve" smooth="yes"/>
      <point x="433" y="89" type="line" smooth="yes"/>
      <point x="433" y="103"/>
      <point x="428" y="110"/>
      <point x="413" y="110" type="curve" smooth="yes"/>
      <point x="204" y="110" type="line" smooth="yes"/>
      <point x="196" y="110"/>
      <point x="192" y="113"/>
      <point x="192" y="121" type="curve" smooth="yes"/>
      <point x="192" y="260" type="line" smooth="yes"/>
      <point x="192" y="268"/>
      <point x="196" y="271"/>
      <point x="204" y="271" type="curve" smooth="yes"/>
      <point x="375" y="271" type="line" smooth="yes"/>
      <point x="390" y="271"/>
      <point x="396" y="278"/>
      <point x="396" y="292" type="curve" smooth="yes"/>
      <point x="396" y="360" type="line" smooth="yes"/>
      <point x="396" y="374"/>
      <point x="390" y="381"/>
      <point x="375" y="381" type="curve" smooth="yes"/>
      <point x="204" y="381" type="line" smooth="yes"/>
      <point x="196" y="381"/>
      <point x="192" y="384"/>
      <point x="192" y="392" type="curve" smooth="yes"/>
      <point x="192" y="522" type="line" smooth="yes"/>
      <point x="192" y="530"/>
      <point x="196" y="533"/>
      <point x="204" y="533" type="curve" smooth="yes"/>
      <point x="413" y="533" type="line" smooth="yes"/>
      <point x="428" y="533"/>
      <point x="433" y="540"/>
      <point x="433" y="554" type="curve" smooth="yes"/>
      <point x="433" y="622" type="line" smooth="yes"/>
      <point x="433" y="636"/>
      <point x="428" y="643"/>
      <point x="413" y="643" type="curve" smooth="yes"/>
      <point x="86" y="643" type="line" smooth="yes"/>
      <point x="72" y="643"/>
      <point x="65" y="638"/>
      <point x="65" y="622" type="curve" smooth="yes"/>
      <point x="65" y="21" type="line" smooth="yes"/>
      <point x="65" y="5"/>
      <point x="72" y="0"/>
      <point x="86" y="0" type="curve" smooth="yes"/>
    </contour>
    <contour>
      <point x="303" y="825" type="line"/>
      <point x="298" y="832"/>
      <point x="291" y="836"/>
      <point x="281" y="836" type="curve" smooth="yes"/>
      <point x="281" y="836"/>
      <point x="216" y="836"/>
      <point x="216" y="836" type="curve"/>
      <point x="205" y="836"/>
      <point x="199" y="832"/>
      <point x="194" y="825" type="curve" smooth="yes"/>
      <point x="131" y="720" type="line" smooth="yes"/>
      <point x="127" y="713"/>
      <point x="130" y="707"/>
      <point x="139" y="707" type="curve" smooth="yes"/>
      <point x="198" y="707" type="line" smooth="yes"/>
      <point x="207" y="707"/>
      <point x="212" y="710"/>
      <point x="216" y="719" type="curve" smooth="yes"/>
      <point x="248" y="785" type="line"/>
      <point x="281" y="719" type="line"/>
      <point x="284" y="710"/>
      <point x="290" y="707"/>
      <point x="298" y="707" type="curve" smooth="yes"/>
      <point x="358" y="707" type="line" smooth="yes"/>
      <point x="368" y="707"/>
      <point x="369" y="713"/>
      <point x="365" y="720" type="curve" smooth="yes"/>
    </contour>
  </outline>
</glyph>
<glyph name="Edieresis" format="1">
  <advance width="479"/>
  <unicode hex="00CB"/>
  <outline>
    <contour>
      <point x="413" y="0" type="line"/>
      <point x="428" y="0"/>
      <point x="433" y="7"/>
      <point x="433" y="21" type="curve" smooth="yes"/>
      <point x="433" y="89" type="line" smooth="yes"/>
      <point x="433" y="103"/>
      <point x="428" y="110"/>
      <point x="413" y="110" type="curve" smooth="yes"/>
      <point x="204" y="110" type="line" smooth="yes"/>
      <point x="196" y="110"/>
      <point x="192" y="113"/>
      <point x="192" y="121" type="curve" smooth="yes"/>
      <point x="192" y="260" type="line" smooth="yes"/>
      <point x="192" y="268"/>
      <point x="196" y="271"/>
      <point x="204" y="271" type="curve" smooth="yes"/>
      <point x="375" y="271" type="line" smooth="yes"/>
      <point x="390" y="271"/>
      <point x="396" y="278"/>
      <point x="396" y="292" type="curve" smooth="yes"/>
      <point x="396" y="360" type="line" smooth="yes"/>
      <point x="396" y="374"/>
      <point x="390" y="381"/>
      <point x="375" y="381" type="curve" smooth="yes"/>
      <point x="204" y="381" type="line" smooth="yes"/>
      <point x="196" y="381"/>
      <point x="192" y="384"/>
      <point x="192" y="392" type="curve" smooth="yes"/>
      <point x="192" y="522" type="line" smooth="yes"/>
      <point x="192" y="530"/>
      <point x="196" y="533"/>
      <point x="204" y="533" type="curve" smooth="yes"/>
      <point x="413" y="533" type="line" smooth="yes"/>
      <point x="428" y="533"/>
      <point x="433" y="540"/>
      <point x="433" y="554" type="curve" smooth="yes"/>
      <point x="433" y="622" type="line" smooth="yes"/>
      <point x="433" y="636"/>
      <point x="428" y="643"/>
      <point x="413" y="643" type="curve" smooth="yes"/>
      <point x="86" y="643" type="line" smooth="yes"/>
      <point x="72" y="643"/>
      <point x="65" y="638"/>
      <point x="65" y="622" type="curve" smooth="yes"/>
      <point x="65" y="21" type="line" smooth="yes"/>
      <point x="65" y="5"/>
      <point x="72" y="0"/>
      <point x="86" y="0" type="curve" smooth="yes"/>
    </contour>
    <contour>
      <point x="285" y="728" type="line"/>
      <point x="285" y="714"/>
      <point x="291" y="707"/>
      <point x="304" y="707" type="curve" smooth="yes"/>
      <point x="384" y="707" type="line" smooth="yes"/>
      <point x="397" y="707"/>
      <point x="404" y="714"/>
      <point x="404" y="728" type="curve" smooth="yes"/>
      <point x="404" y="817" type="line" smooth="yes"/>
      <point x="404" y="831"/>
      <point x="396" y="836"/>
      <point x="384" y="836" type="curve" smooth="yes"/>
      <point x="304" y="836" type="line" smooth="yes"/>
      <point x="291" y="836"/>
      <point x="285" y="830"/>
      <point x="285" y="816" type="curve" smooth="yes"/>
    </contour>
    <contour>
      <point x="95" y="728" type="line"/>
      <point x="95" y="714"/>
      <point x="101" y="707"/>
      <point x="114" y="707" type="curve" smooth="yes"/>
      <point x="194" y="707" type="line" smooth="yes"/>
      <point x="207" y="707"/>
      <point x="214" y="714"/>
      <point x="214" y="728" type="curve" smooth="yes"/>
      <point x="214" y="817" type="line" smooth="yes"/>
      <point x="214" y="831"/>
      <point x="206" y="836"/>
      <point x="194" y="836" type="curve" smooth="yes"/>
      <point x="114" y="836" type="line" smooth="yes"/>
      <point x="101" y="836"/>
      <point x="95" y="830"/>
      <point x="95" y="816" type="curve" smooth="yes"/>
    </contour>
  </outline>
</glyph>
<glyph name="Igrave" format="1">
  <advance width="267"/>
  <unicode hex="00CC"/>
  <outline>
    <contour>
      <point x="197" y="622" type="line" smooth="yes"/>
      <point x="197" y="638"/>
      <point x="190" y="643"/>
      <point x="176" y="643" type="curve" smooth="yes"/>
      <point x="91" y="643" type="line" smooth="yes"/>
      <point x="77" y="643"/>
      <point x="70" y="638"/>
      <point x="70" y="622" type="curve" smooth="yes"/>
      <point x="70" y="21" type="line" smooth="yes"/>
      <point x="70" y="5"/>
      <point x="77" y="0"/>
      <point x="91" y="0" type="curve" smooth="yes"/>
      <point x="176" y="0" type="line" smooth="yes"/>
      <point x="190" y="0"/>
      <point x="197" y="5"/>
      <point x="197" y="21" type="curve" smooth="yes"/>
    </contour>
    <contour>
      <point x="132" y="817" type="line" smooth="yes"/>
      <point x="125" y="831"/>
      <point x="115" y="836"/>
      <point x="102" y="836" type="curve" smooth="yes"/>
      <point x="3" y="836" type="line" smooth="yes"/>
      <point x="-10" y="836"/>
      <point x="-15" y="827"/>
      <point x="-6" y="816" type="curve" smooth="yes"/>
      <point x="75" y="720" type="line" smooth="yes"/>
      <point x="81" y="712"/>
      <point x="91" y="707"/>
      <point x="101" y="707" type="curve" smooth="yes"/>
      <point x="166" y="707" type="line" smooth="yes"/>
      <point x="180" y="707"/>
      <point x="184" y="713"/>
      <point x="177" y="728" type="curve" smooth="yes"/>
    </contour>
  </outline>
</glyph>
<glyph name="Iacute" format="1">
  <advance width="267"/>
  <unicode hex="00CD"/>
  <outline>
    <contour>
      <point x="197" y="622" type="line" smooth="yes"/>
      <point x="197" y="638"/>
      <point x="190" y="643"/>
      <point x="176" y="643" type="curve" smooth="yes"/>
      <point x="91" y="643" type="line" smooth="yes"/>
      <point x="77" y="643"/>
      <point x="70" y="638"/>
      <point x="70" y="622" type="curve" smooth="yes"/>
      <point x="70" y="21" type="line" smooth="yes"/>
      <point x="70" y="5"/>
      <point x="77" y="0"/>
      <point x="91" y="0" type="curve" smooth="yes"/>
      <point x="176" y="0" type="line" smooth="yes"/>
      <point x="190" y="0"/>
      <point x="197" y="5"/>
      <point x="197" y="21" type="curve" smooth="yes"/>
    </contour>
    <contour>
      <point x="164" y="836" type="line"/>
      <point x="152" y="836"/>
      <point x="142" y="831"/>
      <point x="134" y="817" type="curve"/>
      <point x="90" y="728" type="line" smooth="yes"/>
      <point x="83" y="713"/>
      <point x="87" y="707"/>
      <point x="100" y="707" type="curve" smooth="yes"/>
      <point x="165" y="707" type="line" smooth="yes"/>
      <point x="175" y="707"/>
      <point x="185" y="712"/>
      <point x="192" y="720" type="curve" smooth="yes"/>
      <point x="273" y="816" type="line" smooth="yes"/>
      <point x="282" y="827"/>
      <point x="277" y="836"/>
      <point x="263" y="836" type="curve" smooth="yes"/>
    </contour>
  </outline>
</glyph>
<glyph name="Icircumflex" format="1">
  <advance width="265"/>
  <unicode hex="00CE"/>
  <outline>
    <contour>
      <point x="197" y="622" type="line" smooth="yes"/>
      <point x="197" y="638"/>
      <point x="190" y="643"/>
      <point x="176" y="643" type="curve" smooth="yes"/>
      <point x="91" y="643" type="line" smooth="yes"/>
      <point x="77" y="643"/>
      <point x="70" y="638"/>
      <point x="70" y="622" type="curve" smooth="yes"/>
      <point x="70" y="21" type="line" smooth="yes"/>
      <point x="70" y="5"/>
      <point x="77" y="0"/>
      <point x="91" y="0" type="curve" smooth="yes"/>
      <point x="176" y="0" type="line" smooth="yes"/>
      <point x="190" y="0"/>
      <point x="197" y="5"/>
      <point x="197" y="21" type="curve" smooth="yes"/>
    </contour>
    <contour>
      <point x="187" y="825" type="line"/>
      <point x="182" y="832"/>
      <point x="175" y="836"/>
      <point x="165" y="836" type="curve" smooth="yes"/>
      <point x="165" y="836"/>
      <point x="100" y="836"/>
      <point x="100" y="836" type="curve"/>
      <point x="89" y="836"/>
      <point x="83" y="832"/>
      <point x="78" y="825" type="curve" smooth="yes"/>
      <point x="15" y="720" type="line" smooth="yes"/>
      <point x="11" y="713"/>
      <point x="14" y="707"/>
      <point x="24" y="707" type="curve" smooth="yes"/>
      <point x="82" y="707" type="line" smooth="yes"/>
      <point x="91" y="707"/>
      <point x="96" y="710"/>
      <point x="100" y="719" type="curve" smooth="yes"/>
      <point x="132" y="785" type="line"/>
      <point x="165" y="719" type="line" smooth="yes"/>
      <point x="169" y="710"/>
      <point x="174" y="707"/>
      <point x="182" y="707" type="curve" smooth="yes"/>
      <point x="242" y="707" type="line" smooth="yes"/>
      <point x="252" y="707"/>
      <point x="253" y="713"/>
      <point x="249" y="720" type="curve" smooth="yes"/>
    </contour>
  </outline>
</glyph>
<glyph name="Idieresis" format="1">
  <advance width="266"/>
  <unicode hex="00CF"/>
  <outline>
    <contour>
      <point x="197" y="622" type="line" smooth="yes"/>
      <point x="197" y="638"/>
      <point x="190" y="643"/>
      <point x="176" y="643" type="curve" smooth="yes"/>
      <point x="91" y="643" type="line" smooth="yes"/>
      <point x="77" y="643"/>
      <point x="70" y="638"/>
      <point x="70" y="622" type="curve" smooth="yes"/>
      <point x="70" y="21" type="line" smooth="yes"/>
      <point x="70" y="5"/>
      <point x="77" y="0"/>
      <point x="91" y="0" type="curve" smooth="yes"/>
      <point x="176" y="0" type="line" smooth="yes"/>
      <point x="190" y="0"/>
      <point x="197" y="5"/>
      <point x="197" y="21" type="curve" smooth="yes"/>
    </contour>
    <contour>
      <point x="169" y="728" type="line"/>
      <point x="169" y="714"/>
      <point x="175" y="707"/>
      <point x="188" y="707" type="curve" smooth="yes"/>
      <point x="268" y="707" type="line" smooth="yes"/>
      <point x="281" y="707"/>
      <point x="288" y="714"/>
      <point x="288" y="728" type="curve" smooth="yes"/>
      <point x="288" y="817" type="line" smooth="yes"/>
      <point x="288" y="831"/>
      <point x="281" y="836"/>
      <point x="268" y="836" type="curve" smooth="yes"/>
      <point x="188" y="836" type="line" smooth="yes"/>
      <point x="175" y="836"/>
      <point x="169" y="830"/>
      <point x="169" y="816" type="curve" smooth="yes"/>
    </contour>
    <contour>
      <point x="-21" y="728" type="line"/>
      <point x="-21" y="714"/>
      <point x="-15" y="707"/>
      <point x="-2" y="707" type="curve" smooth="yes"/>
      <point x="78" y="707" type="line" smooth="yes"/>
      <point x="91" y="707"/>
      <point x="98" y="714"/>
      <point x="98" y="728" type="curve" smooth="yes"/>
      <point x="98" y="817" type="line" smooth="yes"/>
      <point x="98" y="831"/>
      <point x="90" y="836"/>
      <point x="78" y="836" type="curve" smooth="yes"/>
      <point x="-2" y="836" type="line" smooth="yes"/>
      <point x="-15" y="836"/>
      <point x="-21" y="830"/>
      <point x="-21" y="816" type="curve" smooth="yes"/>
    </contour>
  </outline>
</glyph>
<glyph name="Ntilde" format="1">
  <advance width="585"/>
  <unicode hex="00D1"/>
  <outline>
    <contour>
      <point x="169" y="0" type="line"/>
      <point x="183" y="0"/>
      <point x="190" y="5"/>
      <point x="190" y="21" type="curve" smooth="yes"/>
      <point x="190" y="392" type="line"/>
      <point x="194" y="392" type="line"/>
      <point x="394" y="20" type="line" smooth="yes"/>
      <point x="395" y="19"/>
      <point x="404" y="0"/>
      <point x="426" y="0" type="curve" smooth="yes"/>
      <point x="499" y="0" type="line" smooth="yes"/>
      <point x="513" y="0"/>
      <point x="520" y="5"/>
      <point x="520" y="21" type="curve" smooth="yes"/>
      <point x="520" y="622" type="line" smooth="yes"/>
      <point x="520" y="638"/>
      <point x="513" y="643"/>
      <point x="499" y="643" type="curve" smooth="yes"/>
      <point x="416" y="643" type="line" smooth="yes"/>
      <point x="402" y="643"/>
      <point x="395" y="638"/>
      <point x="395" y="622" type="curve" smooth="yes"/>
      <point x="395" y="250" type="line"/>
      <point x="391" y="250" type="line"/>
      <point x="189" y="629" type="line" smooth="yes"/>
      <point x="188" y="631"/>
      <point x="181" y="643"/>
      <point x="161" y="643" type="curve" smooth="yes"/>
      <point x="86" y="643" type="line" smooth="yes"/>
      <point x="72" y="643"/>
      <point x="65" y="638"/>
      <point x="65" y="622" type="curve" smooth="yes"/>
      <point x="65" y="21" type="line" smooth="yes"/>
      <point x="65" y="5"/>
      <point x="72" y="0"/>
      <point x="86" y="0" type="curve" smooth="yes"/>
    </contour>
    <contour>
      <point x="308" y="738" type="curve"/>
      <point x="326" y="760"/>
      <point x="330" y="765"/>
      <point x="338" y="765" type="curve" smooth="yes"/>
      <point x="349" y="765"/>
      <point x="353" y="760"/>
      <point x="353" y="729" type="curve" smooth="yes"/>
      <point x="353" y="719" type="line" smooth="yes"/>
      <point x="353" y="710"/>
      <point x="355" y="706"/>
      <point x="364" y="706" type="curve" smooth="yes"/>
      <point x="403" y="706" type="line" smooth="yes"/>
      <point x="411" y="706"/>
      <point x="414" y="710"/>
      <point x="414" y="719" type="curve" smooth="yes"/>
      <point x="414" y="756" type="line" smooth="yes"/>
      <point x="414" y="796"/>
      <point x="398" y="833"/>
      <point x="342" y="833" type="curve" smooth="yes"/>
      <point x="318" y="833"/>
      <point x="301" y="826"/>
      <point x="282" y="801" type="curve" smooth="yes"/>
      <point x="261" y="775"/>
      <point x="256" y="769"/>
      <point x="249" y="769" type="curve" smooth="yes"/>
      <point x="238" y="769"/>
      <point x="234" y="775"/>
      <point x="234" y="805" type="curve" smooth="yes"/>
      <point x="234" y="817" type="line" smooth="yes"/>
      <point x="234" y="826"/>
      <point x="232" y="828"/>
      <point x="223" y="828" type="curve" smooth="yes"/>
      <point x="184" y="828" type="line" smooth="yes"/>
      <point x="176" y="828"/>
      <point x="174" y="826"/>
      <point x="174" y="817" type="curve" smooth="yes"/>
      <point x="174" y="778" type="line" smooth="yes"/>
      <point x="174" y="738"/>
      <point x="190" y="702"/>
      <point x="245" y="702" type="curve" smooth="yes"/>
      <point x="268" y="702"/>
      <point x="287" y="708"/>
    </contour>
  </outline>
</glyph>
<glyph name="Otilde" format="1">
  <advance width="552"/>
  <unicode hex="00D5"/>
  <outline>
    <contour>
      <point x="332" y="0" type="line"/>
      <point x="437" y="0"/>
      <point x="497" y="58"/>
      <point x="497" y="163" type="curve" smooth="yes"/>
      <point x="497" y="480" type="line" smooth="yes"/>
      <point x="497" y="585"/>
      <point x="437" y="643"/>
      <point x="332" y="643" type="curve" smooth="yes"/>
      <point x="220" y="643" type="line" smooth="yes"/>
      <point x="115" y="643"/>
      <point x="55" y="585"/>
      <point x="55" y="480" type="curve" smooth="yes"/>
      <point x="55" y="163" type="line" smooth="yes"/>
      <point x="55" y="58"/>
      <point x="115" y="0"/>
      <point x="220" y="0" type="curve" smooth="yes"/>
    </contour>
    <contour>
      <point x="240" y="110" type="line"/>
      <point x="197" y="110"/>
      <point x="182" y="127"/>
      <point x="182" y="169" type="curve" smooth="yes"/>
      <point x="182" y="474" type="line" smooth="yes"/>
      <point x="182" y="516"/>
      <point x="197" y="533"/>
      <point x="240" y="533" type="curve" smooth="yes"/>
      <point x="311" y="533" type="line" smooth="yes"/>
      <point x="354" y="533"/>
      <point x="370" y="516"/>
      <point x="370" y="474" type="curve" smooth="yes"/>
      <point x="370" y="169" type="line" smooth="yes"/>
      <point x="370" y="127"/>
      <point x="354" y="110"/>
      <point x="311" y="110" type="curve" smooth="yes"/>
    </contour>
    <contour>
      <point x="291" y="738" type="curve"/>
      <point x="309" y="760"/>
      <point x="313" y="765"/>
      <point x="321" y="765" type="curve" smooth="yes"/>
      <point x="332" y="765"/>
      <point x="336" y="760"/>
      <point x="336" y="729" type="curve" smooth="yes"/>
      <point x="336" y="719" type="line" smooth="yes"/>
      <point x="336" y="710"/>
      <point x="338" y="706"/>
      <point x="347" y="706" type="curve" smooth="yes"/>
      <point x="386" y="706" type="line" smooth="yes"/>
      <point x="394" y="706"/>
      <point x="396" y="710"/>
      <point x="396" y="719" type="curve" smooth="yes"/>
      <point x="396" y="756" type="line" smooth="yes"/>
      <point x="396" y="796"/>
      <point x="380" y="833"/>
      <point x="325" y="833" type="curve" smooth="yes"/>
      <point x="301" y="833"/>
      <point x="284" y="826"/>
      <point x="265" y="801" type="curve" smooth="yes"/>
      <point x="244" y="775"/>
      <point x="239" y="769"/>
      <point x="232" y="769" type="curve" smooth="yes"/>
      <point x="221" y="769"/>
      <point x="217" y="775"/>
      <point x="217" y="805" type="curve" smooth="yes"/>
      <point x="217" y="817" type="line" smooth="yes"/>
      <point x="217" y="826"/>
      <point x="215" y="828"/>
      <point x="206" y="828" type="curve" smooth="yes"/>
      <point x="167" y="828" type="line" smooth="yes"/>
      <point x="159" y="828"/>
      <point x="156" y="826"/>
      <point x="156" y="817" type="curve" smooth="yes"/>
      <point x="156" y="778" type="line" smooth="yes"/>
      <point x="156" y="738"/>
      <point x="172" y="702"/>
      <point x="228" y="702" type="curve" smooth="yes"/>
      <point x="251" y="702"/>
      <point x="270" y="708"/>
    </contour>
  </outline>
</glyph>
<glyph name="multiply" format="1">
  <advance width="521"/>
  <unicode hex="00D7"/>
  <outline>
    <contour>
      <point x="160" y="497" type="line" smooth="yes"/>
      <point x="148" y="510"/>
      <point x="139" y="509"/>
      <point x="127" y="497" type="curve" smooth="yes"/>
      <point x="85" y="454" type="line"/>
      <point x="73" y="443"/>
      <point x="72" y="434"/>
      <point x="84" y="421" type="curve" smooth="yes"/>
      <point x="360" y="145" type="line" smooth="yes"/>
      <point x="373" y="133"/>
      <point x="382" y="134"/>
      <point x="393" y="146" type="curve"/>
      <point x="436" y="188" type="line" smooth="yes"/>
      <point x="448" y="200"/>
      <point x="449" y="209"/>
      <point x="436" y="221" type="curve" smooth="yes"/>
    </contour>
    <contour>
      <point x="83" y="221" type="line" smooth="yes"/>
      <point x="71" y="209"/>
      <point x="72" y="200"/>
      <point x="84" y="188" type="curve" smooth="yes"/>
      <point x="127" y="146" type="line"/>
      <point x="138" y="134"/>
      <point x="147" y="133"/>
      <point x="159" y="145" type="curve" smooth="yes"/>
      <point x="435" y="421" type="line" smooth="yes"/>
      <point x="448" y="434"/>
      <point x="447" y="443"/>
      <point x="435" y="454" type="curve"/>
      <point x="393" y="497" type="line" smooth="yes"/>
      <point x="381" y="509"/>
      <point x="372" y="510"/>
      <point x="359" y="497" type="curve" smooth="yes"/>
    </contour>
  </outline>
</glyph>
<glyph name="Oslash" format="1">
  <advance width="580"/>
  <unicode hex="00D8"/>
  <outline>
    <contour>
      <point x="531" y="598" type="line"/>
      <point x="539" y="611"/>
      <point x="537" y="620"/>
      <point x="525" y="628" type="curve" smooth="yes"/>
      <point x="504" y="643" type="line" smooth="yes"/>
      <point x="492" y="651"/>
      <point x="482" y="650"/>
      <point x="473" y="638" type="curve" smooth="yes"/>
      <point x="51" y="45" type="line" smooth="yes"/>
      <point x="42" y="32"/>
      <point x="45" y="23"/>
      <point x="56" y="15" type="curve" smooth="yes"/>
      <point x="77" y="-1" type="line"/>
      <point x="89" y="-8"/>
      <point x="99" y="-8"/>
      <point x="108" y="4" type="curve" smooth="yes"/>
    </contour>
    <contour>
      <point x="351" y="0" type="line"/>
      <point x="455" y="0"/>
      <point x="515" y="58"/>
      <point x="515" y="163" type="curve" smooth="yes"/>
      <point x="515" y="480" type="line" smooth="yes"/>
      <point x="515" y="585"/>
      <point x="455" y="643"/>
      <point x="351" y="643" type="curve" smooth="yes"/>
      <point x="230" y="643" type="line" smooth="yes"/>
      <point x="125" y="643"/>
      <point x="65" y="585"/>
      <point x="65" y="480" type="curve" smooth="yes"/>
      <point x="65" y="163" type="line" smooth="yes"/>
      <point x="65" y="58"/>
      <point x="125" y="0"/>
      <point x="230" y="0" type="curve" smooth="yes"/>
    </contour>
    <contour>
      <point x="250" y="110" type="line"/>
      <point x="207" y="110"/>
      <point x="192" y="127"/>
      <point x="192" y="169" type="curve" smooth="yes"/>
      <point x="192" y="474" type="line" smooth="yes"/>
      <point x="192" y="516"/>
      <point x="207" y="533"/>
      <point x="250" y="533" type="curve" smooth="yes"/>
      <point x="330" y="533" type="line" smooth="yes"/>
      <point x="373" y="533"/>
      <point x="388" y="516"/>
      <point x="388" y="474" type="curve" smooth="yes"/>
      <point x="388" y="169" type="line" smooth="yes"/>
      <point x="388" y="127"/>
      <point x="373" y="110"/>
      <point x="330" y="110" type="curve" smooth="yes"/>
    </contour>
  </outline>
</glyph>
<glyph name="Uacute" format="1">
  <advance width="560"/>
  <unicode hex="00DA"/>
  <outline>
    <contour>
      <point x="394" y="643" type="line"/>
      <point x="380" y="643"/>
      <point x="373" y="638"/>
      <point x="373" y="622" type="curve" smooth="yes"/>
      <point x="373" y="169" type="line" smooth="yes"/>
      <point x="373" y="127"/>
      <point x="357" y="110"/>
      <point x="314" y="110" type="curve" smooth="yes"/>
      <point x="245" y="110" type="line" smooth="yes"/>
      <point x="203" y="110"/>
      <point x="187" y="127"/>
      <point x="187" y="169" type="curve" smooth="yes"/>
      <point x="187" y="622" type="line" smooth="yes"/>
      <point x="187" y="638"/>
      <point x="180" y="643"/>
      <point x="166" y="643" type="curve" smooth="yes"/>
      <point x="81" y="643" type="line" smooth="yes"/>
      <point x="67" y="643"/>
      <point x="60" y="638"/>
      <point x="60" y="622" type="curve" smooth="yes"/>
      <point x="60" y="163" type="line" smooth="yes"/>
      <point x="60" y="58"/>
      <point x="120" y="0"/>
      <point x="225" y="0" type="curve" smooth="yes"/>
      <point x="335" y="0" type="line" smooth="yes"/>
      <point x="439" y="0"/>
      <point x="500" y="58"/>
      <point x="500" y="163" type="curve" smooth="yes"/>
      <point x="500" y="623" type="line" smooth="yes"/>
      <point x="500" y="638"/>
      <point x="493" y="643"/>
      <point x="478" y="643" type="curve" smooth="yes"/>
    </contour>
    <contour>
      <point x="309" y="836" type="line"/>
      <point x="296" y="836"/>
      <point x="286" y="831"/>
      <point x="279" y="817" type="curve" smooth="yes"/>
      <point x="234" y="728" type="line" smooth="yes"/>
      <point x="227" y="713"/>
      <point x="231" y="707"/>
      <point x="245" y="707" type="curve" smooth="yes"/>
      <point x="310" y="707" type="line" smooth="yes"/>
      <point x="320" y="707"/>
      <point x="330" y="712"/>
      <point x="336" y="720" type="curve" smooth="yes"/>
      <point x="418" y="816" type="line" smooth="yes"/>
      <point x="427" y="827"/>
      <point x="421" y="836"/>
      <point x="408" y="836" type="curve" smooth="yes"/>
    </contour>
  </outline>
</glyph>
<glyph name="Yacute" format="1">
  <advance width="517"/>
  <unicode hex="00DD"/>
  <outline>
    <contour>
      <point x="301" y="0" type="line" smooth="yes"/>
      <point x="315" y="0"/>
      <point x="322" y="5"/>
      <point x="322" y="21" type="curve" smooth="yes"/>
      <point x="322" y="235" type="line"/>
      <point x="505" y="621" type="line"/>
      <point x="512" y="634"/>
      <point x="504" y="643"/>
      <point x="491" y="643" type="curve" smooth="yes"/>
      <point x="385" y="643" type="line" smooth="yes"/>
      <point x="372" y="643"/>
      <point x="366" y="637"/>
      <point x="361" y="622" type="curve"/>
      <point x="263" y="379" type="line"/>
      <point x="256" y="379" type="line"/>
      <point x="156" y="622" type="line" smooth="yes"/>
      <point x="150" y="637"/>
      <point x="145" y="643"/>
      <point x="132" y="643" type="curve" smooth="yes"/>
      <point x="26" y="643" type="line" smooth="yes"/>
      <point x="15" y="643"/>
      <point x="6" y="634"/>
      <point x="12" y="621" type="curve" smooth="yes"/>
      <point x="195" y="235" type="line"/>
      <point x="195" y="21" type="line" smooth="yes"/>
      <point x="195" y="5"/>
      <point x="202" y="0"/>
      <point x="216" y="0" type="curve" smooth="yes"/>
    </contour>
    <contour>
      <point x="284" y="836" type="line"/>
      <point x="271" y="836"/>
      <point x="262" y="831"/>
      <point x="254" y="817" type="curve"/>
      <point x="210" y="728" type="line" smooth="yes"/>
      <point x="202" y="713"/>
      <point x="207" y="707"/>
      <point x="220" y="707" type="curve" smooth="yes"/>
      <point x="285" y="707" type="line" smooth="yes"/>
      <point x="295" y="707"/>
      <point x="305" y="712"/>
      <point x="312" y="720" type="curve" smooth="yes"/>
      <point x="393" y="816" type="line" smooth="yes"/>
      <point x="402" y="827"/>
      <point x="396" y="836"/>
      <point x="383" y="836" type="curve" smooth="yes"/>
    </contour>
  </outline>
</glyph>
<glyph name="Thorn" format="1">
  <advance width="504"/>
  <unicode hex="00DE"/>
  <outline>
    <contour>
      <point x="185" y="0" type="line" smooth="yes"/>
      <point x="199" y="0"/>
      <point x="206" y="5"/>
      <point x="206" y="21" type="curve" smooth="yes"/>
      <point x="206" y="120" type="line" smooth="yes"/>
      <point x="206" y="128"/>
      <point x="210" y="131"/>
      <point x="218" y="131" type="curve" smooth="yes"/>
      <point x="301" y="131" type="line" smooth="yes"/>
      <point x="405" y="131"/>
      <point x="466" y="189"/>
      <point x="466" y="294" type="curve" smooth="yes"/>
      <point x="466" y="347" type="line" smooth="yes"/>
      <point x="466" y="452"/>
      <point x="405" y="510"/>
      <point x="301" y="510" type="curve" smooth="yes"/>
      <point x="218" y="510" type="line" smooth="yes"/>
      <point x="210" y="510"/>
      <point x="206" y="513"/>
      <point x="206" y="521" type="curve" smooth="yes"/>
      <point x="206" y="622" type="line" smooth="yes"/>
      <point x="206" y="638"/>
      <point x="199" y="643"/>
      <point x="185" y="643" type="curve" smooth="yes"/>
      <point x="100" y="643" type="line" smooth="yes"/>
      <point x="86" y="643"/>
      <point x="79" y="638"/>
      <point x="79" y="622" type="curve" smooth="yes"/>
      <point x="79" y="21" type="line" smooth="yes"/>
      <point x="79" y="5"/>
      <point x="86" y="0"/>
      <point x="100" y="0" type="curve" smooth="yes"/>
    </contour>
    <contour>
      <point x="217" y="242" type="line" smooth="yes"/>
      <point x="210" y="242"/>
      <point x="206" y="245"/>
      <point x="206" y="253" type="curve" smooth="yes"/>
      <point x="206" y="389" type="line" smooth="yes"/>
      <point x="206" y="397"/>
      <point x="210" y="400"/>
      <point x="217" y="400" type="curve" smooth="yes"/>
      <point x="280" y="400" type="line" smooth="yes"/>
      <point x="323" y="400"/>
      <point x="338" y="383"/>
      <point x="338" y="341" type="curve" smooth="yes"/>
      <point x="338" y="300" type="line" smooth="yes"/>
      <point x="338" y="258"/>
      <point x="323" y="242"/>
      <point x="280" y="242" type="curve" smooth="yes"/>
    </contour>
  </outline>
</glyph>
<glyph name="aacute" format="1">
  <advance width="518"/>
  <unicode hex="00E1"/>
  <outline>
    <contour>
      <point x="336" y="186" type="line"/>
      <point x="336" y="143"/>
      <point x="322" y="110"/>
      <point x="267" y="110" type="curve" smooth="yes"/>
      <point x="230" y="110" type="line" smooth="yes"/>
      <point x="187" y="110"/>
      <point x="172" y="127"/>
      <point x="172" y="169" type="curve" smooth="yes"/>
      <point x="172" y="341" type="line" smooth="yes"/>
      <point x="172" y="383"/>
      <point x="187" y="400"/>
      <point x="230" y="400" type="curve" smooth="yes"/>
      <point x="324" y="400" type="line" smooth="yes"/>
      <point x="332" y="400"/>
      <point x="336" y="397"/>
      <point x="336" y="389" type="curve" smooth="yes"/>
    </contour>
    <contour>
      <point x="234" y="0" type="line" smooth="yes"/>
      <point x="271" y="0"/>
      <point x="316" y="15"/>
      <point x="332" y="54" type="curve"/>
      <point x="336" y="54" type="line"/>
      <point x="336" y="21" type="line" smooth="yes"/>
      <point x="336" y="5"/>
      <point x="343" y="0"/>
      <point x="357" y="0" type="curve" smooth="yes"/>
      <point x="441" y="0" type="line" smooth="yes"/>
      <point x="456" y="0"/>
      <point x="463" y="5"/>
      <point x="463" y="21" type="curve" smooth="yes"/>
      <point x="463" y="489" type="line" smooth="yes"/>
      <point x="463" y="505"/>
      <point x="456" y="510"/>
      <point x="441" y="510" type="curve" smooth="yes"/>
      <point x="210" y="510" type="line" smooth="yes"/>
      <point x="105" y="510"/>
      <point x="45" y="452"/>
      <point x="45" y="347" type="curve" smooth="yes"/>
      <point x="45" y="163" type="line" smooth="yes"/>
      <point x="45" y="58"/>
      <point x="105" y="0"/>
      <point x="210" y="0" type="curve" smooth="yes"/>
    </contour>
    <contour>
      <point x="301" y="703" type="line"/>
      <point x="288" y="703"/>
      <point x="278" y="698"/>
      <point x="271" y="684" type="curve" smooth="yes"/>
      <point x="226" y="595" type="line" smooth="yes"/>
      <point x="219" y="580"/>
      <point x="223" y="574"/>
      <point x="236" y="574" type="curve" smooth="yes"/>
      <point x="300" y="574" type="line" smooth="yes"/>
      <point x="312" y="574"/>
      <point x="321" y="579"/>
      <point x="328" y="587" type="curve" smooth="yes"/>
      <point x="409" y="683" type="line" smooth="yes"/>
      <point x="418" y="694"/>
      <point x="413" y="703"/>
      <point x="400" y="703" type="curve" smooth="yes"/>
    </contour>
  </outline>
</glyph>
<glyph name="adieresis" format="1">
  <advance width="518"/>
  <unicode hex="00E4"/>
  <outline>
    <contour>
      <point x="336" y="186" type="line"/>
      <point x="336" y="143"/>
      <point x="322" y="110"/>
      <point x="267" y="110" type="curve" smooth="yes"/>
      <point x="230" y="110" type="line" smooth="yes"/>
      <point x="187" y="110"/>
      <point x="172" y="127"/>
      <point x="172" y="169" type="curve" smooth="yes"/>
      <point x="172" y="341" type="line" smooth="yes"/>
      <point x="172" y="383"/>
      <point x="187" y="400"/>
      <point x="230" y="400" type="curve" smooth="yes"/>
      <point x="324" y="400" type="line" smooth="yes"/>
      <point x="332" y="400"/>
      <point x="336" y="397"/>
      <point x="336" y="389" type="curve" smooth="yes"/>
    </contour>
    <contour>
      <point x="234" y="0" type="line" smooth="yes"/>
      <point x="271" y="0"/>
      <point x="316" y="15"/>
      <point x="332" y="54" type="curve"/>
      <point x="336" y="54" type="line"/>
      <point x="336" y="21" type="line" smooth="yes"/>
      <point x="336" y="5"/>
      <point x="343" y="0"/>
      <point x="357" y="0" type="curve" smooth="yes"/>
      <point x="441" y="0" type="line" smooth="yes"/>
      <point x="456" y="0"/>
      <point x="463" y="5"/>
      <point x="463" y="21" type="curve" smooth="yes"/>
      <point x="463" y="489" type="line" smooth="yes"/>
      <point x="463" y="505"/>
      <point x="456" y="510"/>
      <point x="441" y="510" type="curve" smooth="yes"/>
      <point x="210" y="510" type="line" smooth="yes"/>
      <point x="105" y="510"/>
      <point x="45" y="452"/>
      <point x="45" y="347" type="curve" smooth="yes"/>
      <point x="45" y="163" type="line" smooth="yes"/>
      <point x="45" y="58"/>
      <point x="105" y="0"/>
      <point x="210" y="0" type="curve" smooth="yes"/>
    </contour>
    <contour>
      <point x="311" y="595" type="line"/>
      <point x="311" y="581"/>
      <point x="317" y="574"/>
      <point x="330" y="574" type="curve" smooth="yes"/>
      <point x="410" y="574" type="line" smooth="yes"/>
      <point x="423" y="574"/>
      <point x="429" y="581"/>
      <point x="429" y="595" type="curve" smooth="yes"/>
      <point x="429" y="684" type="line" smooth="yes"/>
      <point x="429" y="698"/>
      <point x="422" y="703"/>
      <point x="410" y="703" type="curve" smooth="yes"/>
      <point x="330" y="703" type="line" smooth="yes"/>
      <point x="317" y="703"/>
      <point x="311" y="697"/>
      <point x="311" y="683" type="curve" smooth="yes"/>
    </contour>
    <contour>
      <point x="121" y="595" type="line"/>
      <point x="121" y="581"/>
      <point x="127" y="574"/>
      <point x="140" y="574" type="curve" smooth="yes"/>
      <point x="220" y="574" type="line" smooth="yes"/>
      <point x="233" y="574"/>
      <point x="239" y="581"/>
      <point x="239" y="595" type="curve" smooth="yes"/>
      <point x="239" y="684" type="line" smooth="yes"/>
      <point x="239" y="698"/>
      <point x="232" y="703"/>
      <point x="220" y="703" type="curve" smooth="yes"/>
      <point x="140" y="703" type="line" smooth="yes"/>
      <point x="127" y="703"/>
      <point x="121" y="697"/>
      <point x="121" y="683" type="curve" smooth="yes"/>
    </contour>
  </outline>
</glyph>
<glyph name="edieresis" format="1">
  <advance width="494"/>
  <unicode hex="00EB"/>
  <outline>
    <contour>
      <point x="182" y="284" type="line" smooth="yes"/>
      <point x="175" y="284"/>
      <point x="171" y="287"/>
      <point x="171" y="295" type="curve" smooth="yes"/>
      <point x="171" y="343" type="line" smooth="yes"/>
      <point x="171" y="385"/>
      <point x="186" y="401"/>
      <point x="229" y="401" type="curve" smooth="yes"/>
      <point x="271" y="401" type="line" smooth="yes"/>
      <point x="314" y="401"/>
      <point x="329" y="385"/>
      <point x="329" y="343" type="curve" smooth="yes"/>
      <point x="329" y="295" type="line" smooth="yes"/>
      <point x="329" y="287"/>
      <point x="326" y="284"/>
      <point x="318" y="284" type="curve" smooth="yes"/>
    </contour>
    <contour>
      <point x="431" y="0" type="line"/>
      <point x="447" y="0"/>
      <point x="452" y="5"/>
      <point x="452" y="20" type="curve" smooth="yes"/>
      <point x="452" y="86" type="line" smooth="yes"/>
      <point x="452" y="101"/>
      <point x="447" y="108"/>
      <point x="431" y="108" type="curve" smooth="yes"/>
      <point x="229" y="108" type="line" smooth="yes"/>
      <point x="186" y="108"/>
      <point x="170" y="125"/>
      <point x="170" y="166" type="curve" smooth="yes"/>
      <point x="170" y="188" type="line" smooth="yes"/>
      <point x="170" y="196"/>
      <point x="174" y="199"/>
      <point x="182" y="199" type="curve" smooth="yes"/>
      <point x="433" y="199" type="line" smooth="yes"/>
      <point x="447" y="199"/>
      <point x="454" y="204"/>
      <point x="454" y="220" type="curve" smooth="yes"/>
      <point x="454" y="347" type="line" smooth="yes"/>
      <point x="454" y="452"/>
      <point x="394" y="510"/>
      <point x="289" y="510" type="curve" smooth="yes"/>
      <point x="210" y="510" type="line" smooth="yes"/>
      <point x="105" y="510"/>
      <point x="45" y="452"/>
      <point x="45" y="347" type="curve" smooth="yes"/>
      <point x="45" y="163" type="line" smooth="yes"/>
      <point x="45" y="58"/>
      <point x="105" y="0"/>
      <point x="210" y="0" type="curve" smooth="yes"/>
    </contour>
    <contour>
      <point x="290" y="595" type="line"/>
      <point x="290" y="581"/>
      <point x="297" y="574"/>
      <point x="310" y="574" type="curve" smooth="yes"/>
      <point x="389" y="574" type="line" smooth="yes"/>
      <point x="403" y="574"/>
      <point x="409" y="581"/>
      <point x="409" y="595" type="curve" smooth="yes"/>
      <point x="409" y="684" type="line" smooth="yes"/>
      <point x="409" y="698"/>
      <point x="402" y="703"/>
      <point x="389" y="703" type="curve" smooth="yes"/>
      <point x="310" y="703" type="line" smooth="yes"/>
      <point x="297" y="703"/>
      <point x="290" y="697"/>
      <point x="290" y="683" type="curve" smooth="yes"/>
    </contour>
    <contour>
      <point x="100" y="595" type="line"/>
      <point x="100" y="581"/>
      <point x="107" y="574"/>
      <point x="120" y="574" type="curve" smooth="yes"/>
      <point x="199" y="574" type="line" smooth="yes"/>
      <point x="213" y="574"/>
      <point x="219" y="581"/>
      <point x="219" y="595" type="curve" smooth="yes"/>
      <point x="219" y="684" type="line" smooth="yes"/>
      <point x="219" y="698"/>
      <point x="212" y="703"/>
      <point x="199" y="703" type="curve" smooth="yes"/>
      <point x="120" y="703" type="line" smooth="yes"/>
      <point x="107" y="703"/>
      <point x="100" y="697"/>
      <point x="100" y="683" type="curve" smooth="yes"/>
    </contour>
  </outline>
</glyph>
<glyph name="igrave" format="1">
  <advance width="247"/>
  <unicode hex="00EC"/>
  <outline>
    <contour>
      <point x="60" y="21" type="line"/>
      <point x="60" y="5"/>
      <point x="67" y="0"/>
      <point x="81" y="0" type="curve" smooth="yes"/>
      <point x="167" y="0" type="line" smooth="yes"/>
      <point x="182" y="0"/>
      <point x="187" y="4"/>
      <point x="187" y="21" type="curve" smooth="yes"/>
      <point x="187" y="489" type="line" smooth="yes"/>
      <point x="187" y="505"/>
      <point x="180" y="510"/>
      <point x="166" y="510" type="curve" smooth="yes"/>
      <point x="80" y="510" type="line" smooth="yes"/>
      <point x="66" y="510"/>
      <point x="60" y="505"/>
      <point x="60" y="489" type="curve" smooth="yes"/>
    </contour>
    <contour>
      <point x="121" y="684" type="line" smooth="yes"/>
      <point x="114" y="698"/>
      <point x="104" y="703"/>
      <point x="91" y="703" type="curve" smooth="yes"/>
      <point x="-8" y="703" type="line" smooth="yes"/>
      <point x="-21" y="703"/>
      <point x="-26" y="694"/>
      <point x="-17" y="683" type="curve" smooth="yes"/>
      <point x="64" y="587" type="line" smooth="yes"/>
      <point x="70" y="579"/>
      <point x="80" y="574"/>
      <point x="90" y="574" type="curve" smooth="yes"/>
      <point x="155" y="574" type="line" smooth="yes"/>
      <point x="169" y="574"/>
      <point x="173" y="580"/>
      <point x="166" y="595" type="curve" smooth="yes"/>
    </contour>
  </outline>
</glyph>
<glyph name="icircumflex" format="1">
  <advance width="246"/>
  <unicode hex="00EE"/>
  <outline>
    <contour>
      <point x="60" y="21" type="line"/>
      <point x="60" y="5"/>
      <point x="67" y="0"/>
      <point x="81" y="0" type="curve" smooth="yes"/>
      <point x="167" y="0" type="line" smooth="yes"/>
      <point x="182" y="0"/>
      <point x="187" y="4"/>
      <point x="187" y="21" type="curve" smooth="yes"/>
      <point x="187" y="489" type="line" smooth="yes"/>
      <point x="187" y="505"/>
      <point x="180" y="510"/>
      <point x="166" y="510" type="curve" smooth="yes"/>
      <point x="80" y="510" type="line" smooth="yes"/>
      <point x="66" y="510"/>
      <point x="60" y="505"/>
      <point x="60" y="489" type="curve" smooth="yes"/>
    </contour>
    <contour>
      <point x="178" y="692" type="line"/>
      <point x="173" y="699"/>
      <point x="166" y="703"/>
      <point x="156" y="703" type="curve" smooth="yes"/>
      <point x="156" y="703"/>
      <point x="91" y="703"/>
      <point x="91" y="703" type="curve"/>
      <point x="80" y="703"/>
      <point x="74" y="699"/>
      <point x="69" y="692" type="curve" smooth="yes"/>
      <point x="6" y="587" type="line" smooth="yes"/>
      <point x="2" y="580"/>
      <point x="5" y="574"/>
      <point x="14" y="574" type="curve" smooth="yes"/>
      <point x="73" y="574" type="line" smooth="yes"/>
      <point x="82" y="574"/>
      <point x="87" y="577"/>
      <point x="91" y="586" type="curve" smooth="yes"/>
      <point x="123" y="652" type="line"/>
      <point x="156" y="586" type="line"/>
      <point x="159" y="577"/>
      <point x="165" y="574"/>
      <point x="173" y="574" type="curve" smooth="yes"/>
      <point x="233" y="574" type="line" smooth="yes"/>
      <point x="242" y="574"/>
      <point x="244" y="580"/>
      <point x="240" y="587" type="curve" smooth="yes"/>
    </contour>
  </outline>
</glyph>
<glyph name="idieresis" format="1">
  <advance width="246"/>
  <unicode hex="00EF"/>
  <outline>
    <contour>
      <point x="60" y="21" type="line"/>
      <point x="60" y="5"/>
      <point x="67" y="0"/>
      <point x="81" y="0" type="curve" smooth="yes"/>
      <point x="167" y="0" type="line" smooth="yes"/>
      <point x="182" y="0"/>
      <point x="187" y="4"/>
      <point x="187" y="21" type="curve" smooth="yes"/>
      <point x="187" y="489" type="line" smooth="yes"/>
      <point x="187" y="505"/>
      <point x="180" y="510"/>
      <point x="166" y="510" type="curve" smooth="yes"/>
      <point x="80" y="510" type="line" smooth="yes"/>
      <point x="66" y="510"/>
      <point x="60" y="505"/>
      <point x="60" y="489" type="curve" smooth="yes"/>
    </contour>
    <contour>
      <point x="159" y="595" type="line"/>
      <point x="159" y="581"/>
      <point x="165" y="574"/>
      <point x="178" y="574" type="curve" smooth="yes"/>
      <point x="258" y="574" type="line" smooth="yes"/>
      <point x="271" y="574"/>
      <point x="278" y="581"/>
      <point x="278" y="595" type="curve" smooth="yes"/>
      <point x="278" y="684" type="line" smooth="yes"/>
      <point x="278" y="698"/>
      <point x="271" y="703"/>
      <point x="258" y="703" type="curve" smooth="yes"/>
      <point x="178" y="703" type="line" smooth="yes"/>
      <point x="165" y="703"/>
      <point x="159" y="697"/>
      <point x="159" y="683" type="curve" smooth="yes"/>
    </contour>
    <contour>
      <point x="-31" y="595" type="line"/>
      <point x="-31" y="581"/>
      <point x="-25" y="574"/>
      <point x="-12" y="574" type="curve" smooth="yes"/>
      <point x="68" y="574" type="line" smooth="yes"/>
      <point x="81" y="574"/>
      <point x="88" y="581"/>
      <point x="88" y="595" type="curve" smooth="yes"/>
      <point x="88" y="684" type="line" smooth="yes"/>
      <point x="88" y="698"/>
      <point x="80" y="703"/>
      <point x="68" y="703" type="curve" smooth="yes"/>
      <point x="-12" y="703" type="line" smooth="yes"/>
      <point x="-25" y="703"/>
      <point x="-31" y="697"/>
      <point x="-31" y="683" type="curve" smooth="yes"/>
    </contour>
  </outline>
</glyph>
<glyph name="ntilde" format="1">
  <advance width="523"/>
  <unicode hex="00F1"/>
  <outline>
    <contour>
      <point x="161" y="0" type="line"/>
      <point x="175" y="0"/>
      <point x="182" y="5"/>
      <point x="182" y="21" type="curve" smooth="yes"/>
      <point x="182" y="324" type="line" smooth="yes"/>
      <point x="182" y="367"/>
      <point x="196" y="400"/>
      <point x="251" y="400" type="curve" smooth="yes"/>
      <point x="287" y="400" type="line" smooth="yes"/>
      <point x="330" y="400"/>
      <point x="346" y="383"/>
      <point x="346" y="341" type="curve" smooth="yes"/>
      <point x="346" y="21" type="line" smooth="yes"/>
      <point x="346" y="5"/>
      <point x="353" y="0"/>
      <point x="367" y="0" type="curve" smooth="yes"/>
      <point x="451" y="0" type="line" smooth="yes"/>
      <point x="466" y="0"/>
      <point x="473" y="5"/>
      <point x="473" y="21" type="curve" smooth="yes"/>
      <point x="473" y="347" type="line" smooth="yes"/>
      <point x="473" y="452"/>
      <point x="421" y="510"/>
      <point x="316" y="510" type="curve" smooth="yes"/>
      <point x="284" y="510" type="line" smooth="yes"/>
      <point x="243" y="510"/>
      <point x="202" y="495"/>
      <point x="186" y="456" type="curve"/>
      <point x="182" y="456" type="line"/>
      <point x="182" y="489" type="line" smooth="yes"/>
      <point x="182" y="505"/>
      <point x="175" y="510"/>
      <point x="161" y="510" type="curve" smooth="yes"/>
      <point x="76" y="510" type="line" smooth="yes"/>
      <point x="62" y="510"/>
      <point x="55" y="505"/>
      <point x="55" y="489" type="curve" smooth="yes"/>
      <point x="55" y="21" type="line" smooth="yes"/>
      <point x="55" y="5"/>
      <point x="62" y="0"/>
      <point x="76" y="0" type="curve" smooth="yes"/>
    </contour>
    <contour>
      <point x="134" y="650" type="line" smooth="yes"/>
      <point x="134" y="610"/>
      <point x="150" y="574"/>
      <point x="206" y="574" type="curve" smooth="yes"/>
      <point x="229" y="574"/>
      <point x="248" y="579"/>
      <point x="269" y="609" type="curve"/>
      <point x="287" y="632"/>
      <point x="291" y="637"/>
      <point x="299" y="637" type="curve" smooth="yes"/>
      <point x="310" y="637"/>
      <point x="314" y="632"/>
      <point x="314" y="600" type="curve" smooth="yes"/>
      <point x="314" y="591" type="line" smooth="yes"/>
      <point x="314" y="581"/>
      <point x="316" y="578"/>
      <point x="325" y="578" type="curve" smooth="yes"/>
      <point x="364" y="578" type="line" smooth="yes"/>
      <point x="372" y="578"/>
      <point x="374" y="581"/>
      <point x="374" y="591" type="curve" smooth="yes"/>
      <point x="374" y="628" type="line" smooth="yes"/>
      <point x="374" y="668"/>
      <point x="358" y="704"/>
      <point x="303" y="704" type="curve" smooth="yes"/>
      <point x="279" y="704"/>
      <point x="262" y="698"/>
      <point x="243" y="673" type="curve" smooth="yes"/>
      <point x="222" y="647"/>
      <point x="217" y="641"/>
      <point x="210" y="641" type="curve" smooth="yes"/>
      <point x="199" y="641"/>
      <point x="195" y="647"/>
      <point x="195" y="677" type="curve" smooth="yes"/>
      <point x="195" y="688" type="line" smooth="yes"/>
      <point x="195" y="698"/>
      <point x="193" y="700"/>
      <point x="184" y="700" type="curve" smooth="yes"/>
      <point x="145" y="700" type="line" smooth="yes"/>
      <point x="137" y="700"/>
      <point x="134" y="698"/>
      <point x="134" y="688" type="curve" smooth="yes"/>
    </contour>
  </outline>
</glyph>
<glyph name="oacute" format="1">
  <advance width="509"/>
  <unicode hex="00F3"/>
  <outline>
    <contour>
      <point x="229" y="109" type="line"/>
      <point x="186" y="109"/>
      <point x="171" y="125"/>
      <point x="171" y="167" type="curve" smooth="yes"/>
      <point x="171" y="343" type="line" smooth="yes"/>
      <point x="171" y="385"/>
      <point x="186" y="401"/>
      <point x="229" y="401" type="curve" smooth="yes"/>
      <point x="280" y="401" type="line" smooth="yes"/>
      <point x="323" y="401"/>
      <point x="339" y="385"/>
      <point x="339" y="343" type="curve" smooth="yes"/>
      <point x="339" y="167" type="line" smooth="yes"/>
      <point x="339" y="125"/>
      <point x="323" y="109"/>
      <point x="280" y="109" type="curve" smooth="yes"/>
    </contour>
    <contour>
      <point x="299" y="0" type="line"/>
      <point x="403" y="0"/>
      <point x="464" y="58"/>
      <point x="464" y="163" type="curve" smooth="yes"/>
      <point x="464" y="347" type="line" smooth="yes"/>
      <point x="464" y="452"/>
      <point x="403" y="510"/>
      <point x="299" y="510" type="curve" smooth="yes"/>
      <point x="210" y="510" type="line" smooth="yes"/>
      <point x="105" y="510"/>
      <point x="45" y="452"/>
      <point x="45" y="347" type="curve" smooth="yes"/>
      <point x="45" y="163" type="line" smooth="yes"/>
      <point x="45" y="58"/>
      <point x="105" y="0"/>
      <point x="210" y="0" type="curve" smooth="yes"/>
    </contour>
    <contour>
      <point x="285" y="703" type="line"/>
      <point x="273" y="703"/>
      <point x="263" y="698"/>
      <point x="255" y="684" type="curve"/>
      <point x="211" y="595" type="line" smooth="yes"/>
      <point x="203" y="580"/>
      <point x="208" y="574"/>
      <point x="221" y="574" type="curve" smooth="yes"/>
      <point x="285" y="574" type="line" smooth="yes"/>
      <point x="296" y="574"/>
      <point x="305" y="579"/>
      <point x="313" y="587" type="curve"/>
      <point x="394" y="683" type="line" smooth="yes"/>
      <point x="403" y="694"/>
      <point x="398" y="703"/>
      <point x="384" y="703" type="curve" smooth="yes"/>
    </contour>
  </outline>
</glyph>
<glyph name="ocircumflex" format="1">
  <advance width="509"/>
  <unicode hex="00F4"/>
  <outline>
    <contour>
      <point x="229" y="109" type="line"/>
      <point x="186" y="109"/>
      <point x="171" y="125"/>
      <point x="171" y="167" type="curve" smooth="yes"/>
      <point x="171" y="343" type="line" smooth="yes"/>
      <point x="171" y="385"/>
      <point x="186" y="401"/>
      <point x="229" y="401" type="curve" smooth="yes"/>
      <point x="280" y="401" type="line" smooth="yes"/>
      <point x="323" y="401"/>
      <point x="339" y="385"/>
      <point x="339" y="343" type="curve" smooth="yes"/>
      <point x="339" y="167" type="line" smooth="yes"/>
      <point x="339" y="125"/>
      <point x="323" y="109"/>
      <point x="280" y="109" type="curve" smooth="yes"/>
    </contour>
    <contour>
      <point x="299" y="0" type="line"/>
      <point x="403" y="0"/>
      <point x="464" y="58"/>
      <point x="464" y="163" type="curve" smooth="yes"/>
      <point x="464" y="347" type="line" smooth="yes"/>
      <point x="464" y="452"/>
      <point x="403" y="510"/>
      <point x="299" y="510" type="curve" smooth="yes"/>
      <point x="210" y="510" type="line" smooth="yes"/>
      <point x="105" y="510"/>
      <point x="45" y="452"/>
      <point x="45" y="347" type="curve" smooth="yes"/>
      <point x="45" y="163" type="line" smooth="yes"/>
      <point x="45" y="58"/>
      <point x="105" y="0"/>
      <point x="210" y="0" type="curve" smooth="yes"/>
    </contour>
    <contour>
      <point x="309" y="692" type="line"/>
      <point x="304" y="699"/>
      <point x="297" y="703"/>
      <point x="287" y="703" type="curve" smooth="yes"/>
      <point x="287" y="703"/>
      <point x="222" y="703"/>
      <point x="222" y="703" type="curve"/>
      <point x="211" y="703"/>
      <point x="205" y="699"/>
      <point x="200" y="692" type="curve" smooth="yes"/>
      <point x="137" y="587" type="line" smooth="yes"/>
      <point x="133" y="580"/>
      <point x="136" y="574"/>
      <point x="145" y="574" type="curve" smooth="yes"/>
      <point x="204" y="574" type="line" smooth="yes"/>
      <point x="213" y="574"/>
      <point x="218" y="577"/>
      <point x="222" y="586" type="curve" smooth="yes"/>
      <point x="254" y="652" type="line"/>
      <point x="287" y="586" type="line"/>
      <point x="290" y="577"/>
      <point x="296" y="574"/>
      <point x="304" y="574" type="curve" smooth="yes"/>
      <point x="364" y="574" type="line" smooth="yes"/>
      <point x="374" y="574"/>
      <point x="375" y="580"/>
      <point x="371" y="587" type="curve" smooth="yes"/>
    </contour>
  </outline>
</glyph>
<glyph name="divide" format="1">
  <advance width="464"/>
  <unicode hex="00F7"/>
  <outline>
    <contour>
      <point x="190" y="432" type="line"/>
      <point x="190" y="417"/>
      <point x="197" y="412"/>
      <point x="211" y="412" type="curve" smooth="yes"/>
      <point x="254" y="412" type="line" smooth="yes"/>
      <point x="268" y="412"/>
      <point x="276" y="417"/>
      <point x="276" y="432" type="curve" smooth="yes"/>
      <point x="276" y="481" type="line" smooth="yes"/>
      <point x="276" y="497"/>
      <point x="268" y="502"/>
      <point x="254" y="502" type="curve" smooth="yes"/>
      <point x="211" y="502" type="line" smooth="yes"/>
      <point x="197" y="502"/>
      <point x="190" y="497"/>
      <point x="190" y="481" type="curve" smooth="yes"/>
    </contour>
    <contour>
      <point x="373" y="278" type="line"/>
      <point x="388" y="278"/>
      <point x="393" y="285"/>
      <point x="393" y="299" type="curve" smooth="yes"/>
      <point x="393" y="342" type="line" smooth="yes"/>
      <point x="393" y="356"/>
      <point x="388" y="363"/>
      <point x="373" y="363" type="curve" smooth="yes"/>
      <point x="92" y="363" type="line" smooth="yes"/>
      <point x="76" y="363"/>
      <point x="71" y="356"/>
      <point x="71" y="342" type="curve" smooth="yes"/>
      <point x="71" y="299" type="line" smooth="yes"/>
      <point x="71" y="285"/>
      <point x="76" y="278"/>
      <point x="92" y="278" type="curve" smooth="yes"/>
    </contour>
    <contour>
      <point x="190" y="160" type="line"/>
      <point x="190" y="144"/>
      <point x="197" y="139"/>
      <point x="211" y="139" type="curve" smooth="yes"/>
      <point x="254" y="139" type="line" smooth="yes"/>
      <point x="268" y="139"/>
      <point x="276" y="144"/>
      <point x="276" y="160" type="curve" smooth="yes"/>
      <point x="276" y="209" type="line" smooth="yes"/>
      <point x="276" y="224"/>
      <point x="268" y="229"/>
      <point x="254" y="229" type="curve" smooth="yes"/>
      <point x="211" y="229" type="line" smooth="yes"/>
      <point x="197" y="229"/>
      <point x="190" y="224"/>
      <point x="190" y="209" type="curve" smooth="yes"/>
    </contour>
  </outline>
</glyph>
<glyph name="udieresis" format="1">
  <advance width="523"/>
  <unicode hex="00FC"/>
  <outline>
    <contour>
      <point x="239" y="0" type="line" smooth="yes"/>
      <point x="276" y="0"/>
      <point x="321" y="15"/>
      <point x="337" y="54" type="curve"/>
      <point x="341" y="54" type="line"/>
      <point x="341" y="21" type="line" smooth="yes"/>
      <point x="341" y="5"/>
      <point x="348" y="0"/>
      <point x="362" y="0" type="curve" smooth="yes"/>
      <point x="446" y="0" type="line" smooth="yes"/>
      <point x="461" y="0"/>
      <point x="468" y="5"/>
      <point x="468" y="21" type="curve" smooth="yes"/>
      <point x="468" y="489" type="line" smooth="yes"/>
      <point x="468" y="505"/>
      <point x="461" y="510"/>
      <point x="446" y="510" type="curve" smooth="yes"/>
      <point x="362" y="510" type="line" smooth="yes"/>
      <point x="348" y="510"/>
      <point x="341" y="505"/>
      <point x="341" y="489" type="curve" smooth="yes"/>
      <point x="341" y="186" type="line" smooth="yes"/>
      <point x="341" y="143"/>
      <point x="327" y="110"/>
      <point x="272" y="110" type="curve" smooth="yes"/>
      <point x="235" y="110" type="line" smooth="yes"/>
      <point x="193" y="110"/>
      <point x="177" y="127"/>
      <point x="177" y="169" type="curve" smooth="yes"/>
      <point x="177" y="489" type="line" smooth="yes"/>
      <point x="177" y="505"/>
      <point x="170" y="510"/>
      <point x="156" y="510" type="curve" smooth="yes"/>
      <point x="71" y="510" type="line" smooth="yes"/>
      <point x="57" y="510"/>
      <point x="50" y="505"/>
      <point x="50" y="489" type="curve" smooth="yes"/>
      <point x="50" y="163" type="line" smooth="yes"/>
      <point x="50" y="58"/>
      <point x="102" y="0"/>
      <point x="206" y="0" type="curve" smooth="yes"/>
    </contour>
    <contour>
      <point x="295" y="595" type="line"/>
      <point x="295" y="581"/>
      <point x="301" y="574"/>
      <point x="314" y="574" type="curve" smooth="yes"/>
      <point x="394" y="574" type="line" smooth="yes"/>
      <point x="407" y="574"/>
      <point x="413" y="581"/>
      <point x="413" y="595" type="curve" smooth="yes"/>
      <point x="413" y="684" type="line" smooth="yes"/>
      <point x="413" y="698"/>
      <point x="406" y="703"/>
      <point x="394" y="703" type="curve" smooth="yes"/>
      <point x="314" y="703" type="line" smooth="yes"/>
      <point x="301" y="703"/>
      <point x="295" y="697"/>
      <point x="295" y="683" type="curve" smooth="yes"/>
    </contour>
    <contour>
      <point x="105" y="595" type="line"/>
      <point x="105" y="581"/>
      <point x="111" y="574"/>
      <point x="124" y="574" type="curve" smooth="yes"/>
      <point x="204" y="574" type="line" smooth="yes"/>
      <point x="217" y="574"/>
      <point x="223" y="581"/>
      <point x="223" y="595" type="curve" smooth="yes"/>
      <point x="223" y="684" type="line" smooth="yes"/>
      <point x="223" y="698"/>
      <point x="216" y="703"/>
      <point x="204" y="703" type="curve" smooth="yes"/>
      <point x="124" y="703" type="line" smooth="yes"/>
      <point x="111" y="703"/>
      <point x="105" y="697"/>
      <point x="105" y="683" type="curve" smooth="yes"/>
    </contour>
  </outline>
</glyph>
<glyph name="yacute" format="1">
  <advance width="472"/>
  <unicode hex="00FD"/>
  <outline>
    <contour>
      <point x="138" y="-169" type="line" smooth="yes"/>
      <point x="248" y="-169"/>
      <point x="303" y="-106"/>
      <point x="331" y="0" type="curve"/>
      <point x="453" y="488" type="line" smooth="yes"/>
      <point x="456" y="502"/>
      <point x="448" y="510"/>
      <point x="433" y="510" type="curve" smooth="yes"/>
      <point x="349" y="510" type="line" smooth="yes"/>
      <point x="336" y="510"/>
      <point x="327" y="504"/>
      <point x="324" y="489" type="curve" smooth="yes"/>
      <point x="239" y="120" type="line"/>
      <point x="235" y="120" type="line"/>
      <point x="149" y="489" type="line" smooth="yes"/>
      <point x="145" y="505"/>
      <point x="137" y="510"/>
      <point x="124" y="510" type="curve" smooth="yes"/>
      <point x="35" y="510" type="line" smooth="yes"/>
      <point x="21" y="510"/>
      <point x="16" y="503"/>
      <point x="20" y="489" type="curve" smooth="yes"/>
      <point x="137" y="48" type="line" smooth="yes"/>
      <point x="141" y="34"/>
      <point x="147" y="27"/>
      <point x="162" y="27" type="curve" smooth="yes"/>
      <point x="215" y="27" type="line"/>
      <point x="200" y="-36"/>
      <point x="183" y="-58"/>
      <point x="95" y="-58" type="curve" smooth="yes"/>
      <point x="74" y="-58" type="line" smooth="yes"/>
      <point x="59" y="-58"/>
      <point x="54" y="-66"/>
      <point x="54" y="-80" type="curve" smooth="yes"/>
      <point x="54" y="-147" type="line" smooth="yes"/>
      <point x="54" y="-161"/>
      <point x="59" y="-169"/>
      <point x="74" y="-169" type="curve" smooth="yes"/>
    </contour>
    <contour>
      <point x="264" y="703" type="line"/>
      <point x="251" y="703"/>
      <point x="241" y="698"/>
      <point x="234" y="684" type="curve" smooth="yes"/>
      <point x="189" y="595" type="line" smooth="yes"/>
      <point x="182" y="580"/>
      <point x="186" y="574"/>
      <point x="199" y="574" type="curve" smooth="yes"/>
      <point x="263" y="574" type="line" smooth="yes"/>
      <point x="275" y="574"/>
      <point x="284" y="579"/>
      <point x="291" y="587" type="curve" smooth="yes"/>
      <point x="372" y="683" type="line" smooth="yes"/>
      <point x="381" y="694"/>
      <point x="376" y="703"/>
      <point x="362" y="703" type="curve" smooth="yes"/>
    </contour>
  </outline>
</glyph>
<glyph name="amacron" format="1">
  <advance width="518"/>
  <unicode hex="0101"/>
  <outline>
    <contour>
      <point x="336" y="186" type="line"/>
      <point x="336" y="143"/>
      <point x="322" y="110"/>
      <point x="267" y="110" type="curve" smooth="yes"/>
      <point x="230" y="110" type="line" smooth="yes"/>
      <point x="187" y="110"/>
      <point x="172" y="127"/>
      <point x="172" y="169" type="curve" smooth="yes"/>
      <point x="172" y="341" type="line" smooth="yes"/>
      <point x="172" y="383"/>
      <point x="187" y="400"/>
      <point x="230" y="400" type="curve" smooth="yes"/>
      <point x="324" y="400" type="line" smooth="yes"/>
      <point x="332" y="400"/>
      <point x="336" y="397"/>
      <point x="336" y="389" type="curve" smooth="yes"/>
    </contour>
    <contour>
      <point x="234" y="0" type="line" smooth="yes"/>
      <point x="271" y="0"/>
      <point x="316" y="15"/>
      <point x="332" y="54" type="curve"/>
      <point x="336" y="54" type="line"/>
      <point x="336" y="21" type="line" smooth="yes"/>
      <point x="336" y="5"/>
      <point x="343" y="0"/>
      <point x="357" y="0" type="curve" smooth="yes"/>
      <point x="441" y="0" type="line" smooth="yes"/>
      <point x="456" y="0"/>
      <point x="463" y="5"/>
      <point x="463" y="21" type="curve" smooth="yes"/>
      <point x="463" y="489" type="line" smooth="yes"/>
      <point x="463" y="505"/>
      <point x="456" y="510"/>
      <point x="441" y="510" type="curve" smooth="yes"/>
      <point x="210" y="510" type="line" smooth="yes"/>
      <point x="105" y="510"/>
      <point x="45" y="452"/>
      <point x="45" y="347" type="curve" smooth="yes"/>
      <point x="45" y="163" type="line" smooth="yes"/>
      <point x="45" y="58"/>
      <point x="105" y="0"/>
      <point x="210" y="0" type="curve" smooth="yes"/>
    </contour>
    <contour>
      <point x="381" y="595" type="line"/>
      <point x="396" y="595"/>
      <point x="402" y="603"/>
      <point x="402" y="617" type="curve" smooth="yes"/>
      <point x="402" y="661" type="line" smooth="yes"/>
      <point x="402" y="675"/>
      <point x="396" y="682"/>
      <point x="381" y="682" type="curve" smooth="yes"/>
      <point x="184" y="682" type="line" smooth="yes"/>
      <point x="168" y="682"/>
      <point x="163" y="675"/>
      <point x="163" y="661" type="curve" smooth="yes"/>
      <point x="163" y="617" type="line" smooth="yes"/>
      <point x="163" y="603"/>
      <point x="168" y="595"/>
      <point x="184" y="595" type="curve" smooth="yes"/>
    </contour>
  </outline>
</glyph>
<glyph name="abreve" format="1">
  <advance width="518"/>
  <unicode hex="0103"/>
  <outline>
    <contour>
      <point x="336" y="186" type="line"/>
      <point x="336" y="143"/>
      <point x="322" y="110"/>
      <point x="267" y="110" type="curve" smooth="yes"/>
      <point x="230" y="110" type="line" smooth="yes"/>
      <point x="187" y="110"/>
      <point x="172" y="127"/>
      <point x="172" y="169" type="curve" smooth="yes"/>
      <point x="172" y="341" type="line" smooth="yes"/>
      <point x="172" y="383"/>
      <point x="187" y="400"/>
      <point x="230" y="400" type="curve" smooth="yes"/>
      <point x="324" y="400" type="line" smooth="yes"/>
      <point x="332" y="400"/>
      <point x="336" y="397"/>
      <point x="336" y="389" type="curve" smooth="yes"/>
    </contour>
    <contour>
      <point x="234" y="0" type="line" smooth="yes"/>
      <point x="271" y="0"/>
      <point x="316" y="15"/>
      <point x="332" y="54" type="curve"/>
      <point x="336" y="54" type="line"/>
      <point x="336" y="21" type="line" smooth="yes"/>
      <point x="336" y="5"/>
      <point x="343" y="0"/>
      <point x="357" y="0" type="curve" smooth="yes"/>
      <point x="441" y="0" type="line" smooth="yes"/>
      <point x="456" y="0"/>
      <point x="463" y="5"/>
      <point x="463" y="21" type="curve" smooth="yes"/>
      <point x="463" y="489" type="line" smooth="yes"/>
      <point x="463" y="505"/>
      <point x="456" y="510"/>
      <point x="441" y="510" type="curve" smooth="yes"/>
      <point x="210" y="510" type="line" smooth="yes"/>
      <point x="105" y="510"/>
      <point x="45" y="452"/>
      <point x="45" y="347" type="curve" smooth="yes"/>
      <point x="45" y="163" type="line" smooth="yes"/>
      <point x="45" y="58"/>
      <point x="105" y="0"/>
      <point x="210" y="0" type="curve" smooth="yes"/>
    </contour>
    <contour>
      <point x="161" y="690" type="curve"/>
      <point x="161" y="690"/>
      <point x="161" y="679"/>
      <point x="161" y="679" type="curve"/>
      <point x="161" y="610"/>
      <point x="199" y="574"/>
      <point x="259" y="574" type="curve" smooth="yes"/>
      <point x="294" y="574" type="line" smooth="yes"/>
      <point x="354" y="574"/>
      <point x="392" y="610"/>
      <point x="392" y="679" type="curve" smooth="yes"/>
      <point x="392" y="682"/>
      <point x="392" y="686"/>
      <point x="392" y="690" type="curve" smooth="yes"/>
      <point x="392" y="699"/>
      <point x="387" y="703"/>
      <point x="378" y="703" type="curve" smooth="yes"/>
      <point x="329" y="703" type="line" smooth="yes"/>
      <point x="320" y="703"/>
      <point x="315" y="699"/>
      <point x="315" y="690" type="curve" smooth="yes"/>
      <point x="315" y="687"/>
      <point x="315" y="684"/>
      <point x="315" y="681" type="curve" smooth="yes"/>
      <point x="315" y="650"/>
      <point x="304" y="638"/>
      <point x="281" y="638" type="curve" smooth="yes"/>
      <point x="273" y="638" type="line" smooth="yes"/>
      <point x="249" y="638"/>
      <point x="239" y="649"/>
      <point x="239" y="681" type="curve" smooth="yes"/>
      <point x="239" y="681"/>
      <point x="239" y="690"/>
      <point x="239" y="690" type="curve"/>
      <point x="239" y="699"/>
      <point x="234" y="703"/>
      <point x="225" y="703" type="curve" smooth="yes"/>
      <point x="175" y="703" type="line" smooth="yes"/>
      <point x="166" y="703"/>
      <point x="161" y="699"/>
    </contour>
  </outline>
</glyph>
<glyph name="Cacute" format="1">
  <advance width="538"/>
  <unicode hex="0106"/>
  <outline>
    <contour>
      <point x="329" y="0" type="line"/>
      <point x="433" y="0"/>
      <point x="494" y="58"/>
      <point x="494" y="163" type="curve" smooth="yes"/>
      <point x="494" y="166"/>
      <point x="494" y="210"/>
      <point x="494" y="210" type="curve"/>
      <point x="494" y="225"/>
      <point x="487" y="232"/>
      <point x="472" y="232" type="curve" smooth="yes"/>
      <point x="388" y="232" type="line" smooth="yes"/>
      <point x="374" y="232"/>
      <point x="367" y="225"/>
      <point x="367" y="210" type="curve" smooth="yes"/>
      <point x="367" y="210"/>
      <point x="367" y="169"/>
      <point x="367" y="169" type="curve"/>
      <point x="367" y="127"/>
      <point x="351" y="110"/>
      <point x="308" y="110" type="curve" smooth="yes"/>
      <point x="240" y="110" type="line" smooth="yes"/>
      <point x="198" y="110"/>
      <point x="182" y="127"/>
      <point x="182" y="169" type="curve" smooth="yes"/>
      <point x="182" y="474" type="line" smooth="yes"/>
      <point x="182" y="516"/>
      <point x="198" y="533"/>
      <point x="240" y="533" type="curve" smooth="yes"/>
      <point x="308" y="533" type="line" smooth="yes"/>
      <point x="351" y="533"/>
      <point x="367" y="516"/>
      <point x="367" y="474" type="curve" smooth="yes"/>
      <point x="367" y="474"/>
      <point x="367" y="433"/>
      <point x="367" y="433" type="curve"/>
      <point x="367" y="418"/>
      <point x="374" y="411"/>
      <point x="388" y="411" type="curve" smooth="yes"/>
      <point x="472" y="411" type="line" smooth="yes"/>
      <point x="487" y="411"/>
      <point x="494" y="418"/>
      <point x="494" y="433" type="curve" smooth="yes"/>
      <point x="494" y="433"/>
      <point x="494" y="480"/>
      <point x="494" y="480" type="curve"/>
      <point x="494" y="585"/>
      <point x="433" y="643"/>
      <point x="329" y="643" type="curve" smooth="yes"/>
      <point x="220" y="643" type="line" smooth="yes"/>
      <point x="115" y="643"/>
      <point x="55" y="585"/>
      <point x="55" y="480" type="curve" smooth="yes"/>
      <point x="55" y="163" type="line" smooth="yes"/>
      <point x="55" y="58"/>
      <point x="115" y="0"/>
      <point x="220" y="0" type="curve" smooth="yes"/>
    </contour>
    <contour>
      <point x="290" y="836" type="line"/>
      <point x="277" y="836"/>
      <point x="267" y="831"/>
      <point x="260" y="817" type="curve" smooth="yes"/>
      <point x="215" y="728" type="line" smooth="yes"/>
      <point x="208" y="713"/>
      <point x="213" y="707"/>
      <point x="226" y="707" type="curve" smooth="yes"/>
      <point x="291" y="707" type="line" smooth="yes"/>
      <point x="301" y="707"/>
      <point x="311" y="712"/>
      <point x="318" y="720" type="curve" smooth="yes"/>
      <point x="399" y="816" type="line" smooth="yes"/>
      <point x="408" y="827"/>
      <point x="402" y="836"/>
      <point x="389" y="836" type="curve" smooth="yes"/>
    </contour>
  </outline>
</glyph>
<glyph name="Dcaron" format="1">
  <advance width="553"/>
  <unicode hex="010E"/>
  <outline>
    <contour>
      <point x="65" y="21" type="line"/>
      <point x="65" y="5"/>
      <point x="72" y="0"/>
      <point x="86" y="0" type="curve" smooth="yes"/>
      <point x="333" y="0" type="line" smooth="yes"/>
      <point x="437" y="0"/>
      <point x="498" y="58"/>
      <point x="498" y="163" type="curve" smooth="yes"/>
      <point x="498" y="480" type="line" smooth="yes"/>
      <point x="498" y="585"/>
      <point x="437" y="643"/>
      <point x="333" y="643" type="curve" smooth="yes"/>
      <point x="86" y="643" type="line" smooth="yes"/>
      <point x="72" y="643"/>
      <point x="65" y="638"/>
      <point x="65" y="622" type="curve" smooth="yes"/>
    </contour>
    <contour>
      <point x="203" y="110" type="line" smooth="yes"/>
      <point x="196" y="110"/>
      <point x="192" y="113"/>
      <point x="192" y="121" type="curve" smooth="yes"/>
      <point x="192" y="522" type="line" smooth="yes"/>
      <point x="192" y="530"/>
      <point x="196" y="533"/>
      <point x="203" y="533" type="curve" smooth="yes"/>
      <point x="312" y="533" type="line" smooth="yes"/>
      <point x="355" y="533"/>
      <point x="371" y="516"/>
      <point x="371" y="474" type="curve" smooth="yes"/>
      <point x="371" y="169" type="line" smooth="yes"/>
      <point x="371" y="127"/>
      <point x="355" y="110"/>
      <point x="312" y="110" type="curve" smooth="yes"/>
    </contour>
    <contour>
      <point x="243" y="707" type="curve"/>
      <point x="243" y="707"/>
      <point x="308" y="707"/>
      <point x="308" y="707" type="curve"/>
      <point x="318" y="707"/>
      <point x="325" y="711"/>
      <point x="330" y="718" type="curve"/>
      <point x="392" y="823" type="line" smooth="yes"/>
      <point x="396" y="830"/>
      <point x="395" y="836"/>
      <point x="385" y="836" type="curve" smooth="yes"/>
      <point x="326" y="836" type="line" smooth="yes"/>
      <point x="317" y="836"/>
      <point x="312" y="833"/>
      <point x="308" y="824" type="curve" smooth="yes"/>
      <point x="275" y="758" type="line"/>
      <point x="243" y="824" type="line" smooth="yes"/>
      <point x="239" y="833"/>
      <point x="234" y="836"/>
      <point x="225" y="836" type="curve" smooth="yes"/>
      <point x="167" y="836" type="line" smooth="yes"/>
      <point x="157" y="836"/>
      <point x="154" y="830"/>
      <point x="158" y="823" type="curve" smooth="yes"/>
      <point x="221" y="718" type="line" smooth="yes"/>
      <point x="226" y="711"/>
      <point x="232" y="707"/>
    </contour>
  </outline>
</glyph>
<glyph name="dcroat" format="1">
  <advance width="563"/>
  <unicode hex="0111"/>
  <outline>
    <contour>
      <point x="344" y="186" type="line"/>
      <point x="344" y="143"/>
      <point x="330" y="110"/>
      <point x="275" y="110" type="curve" smooth="yes"/>
      <point x="230" y="110" type="line" smooth="yes"/>
      <point x="187" y="110"/>
      <point x="172" y="127"/>
      <point x="172" y="169" type="curve" smooth="yes"/>
      <point x="172" y="288" type="line" smooth="yes"/>
      <point x="172" y="330"/>
      <point x="187" y="346"/>
      <point x="230" y="346" type="curve" smooth="yes"/>
      <point x="275" y="346" type="line" smooth="yes"/>
      <point x="330" y="346"/>
      <point x="344" y="314"/>
      <point x="344" y="271" type="curve" smooth="yes"/>
    </contour>
    <contour>
      <point x="242" y="0" type="line"/>
      <point x="279" y="0"/>
      <point x="324" y="15"/>
      <point x="340" y="54" type="curve"/>
      <point x="344" y="54" type="line"/>
      <point x="344" y="21" type="line" smooth="yes"/>
      <point x="344" y="5"/>
      <point x="351" y="0"/>
      <point x="365" y="0" type="curve" smooth="yes"/>
      <point x="450" y="0" type="line" smooth="yes"/>
      <point x="464" y="0"/>
      <point x="471" y="5"/>
      <point x="471" y="21" type="curve" smooth="yes"/>
      <point x="471" y="522" type="line" smooth="yes"/>
      <point x="471" y="531"/>
      <point x="475" y="534"/>
      <point x="483" y="534" type="curve" smooth="yes"/>
      <point x="537" y="534" type="line" smooth="yes"/>
      <point x="553" y="534"/>
      <point x="558" y="539"/>
      <point x="558" y="554" type="curve" smooth="yes"/>
      <point x="558" y="606" type="line" smooth="yes"/>
      <point x="558" y="620"/>
      <point x="552" y="627"/>
      <point x="537" y="627" type="curve" smooth="yes"/>
      <point x="483" y="627" type="line" smooth="yes"/>
      <point x="475" y="627"/>
      <point x="471" y="630"/>
      <point x="471" y="639" type="curve" smooth="yes"/>
      <point x="471" y="682" type="line" smooth="yes"/>
      <point x="471" y="698"/>
      <point x="464" y="703"/>
      <point x="450" y="703" type="curve" smooth="yes"/>
      <point x="365" y="703" type="line" smooth="yes"/>
      <point x="351" y="703"/>
      <point x="344" y="698"/>
      <point x="344" y="682" type="curve" smooth="yes"/>
      <point x="344" y="639" type="line" smooth="yes"/>
      <point x="344" y="630"/>
      <point x="340" y="627"/>
      <point x="332" y="627" type="curve" smooth="yes"/>
      <point x="202" y="627" type="line" smooth="yes"/>
      <point x="187" y="627"/>
      <point x="182" y="620"/>
      <point x="182" y="606" type="curve" smooth="yes"/>
      <point x="182" y="554" type="line" smooth="yes"/>
      <point x="182" y="539"/>
      <point x="186" y="534"/>
      <point x="202" y="534" type="curve" smooth="yes"/>
      <point x="332" y="534" type="line" smooth="yes"/>
      <point x="340" y="534"/>
      <point x="344" y="531"/>
      <point x="344" y="522" type="curve" smooth="yes"/>
      <point x="344" y="402" type="line"/>
      <point x="340" y="402" type="line"/>
      <point x="324" y="441"/>
      <point x="279" y="457"/>
      <point x="242" y="457" type="curve" smooth="yes"/>
      <point x="210" y="457" type="line" smooth="yes"/>
      <point x="105" y="457"/>
      <point x="45" y="399"/>
      <point x="45" y="294" type="curve" smooth="yes"/>
      <point x="45" y="163" type="line" smooth="yes"/>
      <point x="45" y="58"/>
      <point x="105" y="0"/>
      <point x="210" y="0" type="curve" smooth="yes"/>
    </contour>
  </outline>
</glyph>
<glyph name="Emacron" format="1">
  <advance width="479"/>
  <unicode hex="0112"/>
  <outline>
    <contour>
      <point x="413" y="0" type="line"/>
      <point x="428" y="0"/>
      <point x="433" y="7"/>
      <point x="433" y="21" type="curve" smooth="yes"/>
      <point x="433" y="89" type="line" smooth="yes"/>
      <point x="433" y="103"/>
      <point x="428" y="110"/>
      <point x="413" y="110" type="curve" smooth="yes"/>
      <point x="204" y="110" type="line" smooth="yes"/>
      <point x="196" y="110"/>
      <point x="192" y="113"/>
      <point x="192" y="121" type="curve" smooth="yes"/>
      <point x="192" y="260" type="line" smooth="yes"/>
      <point x="192" y="268"/>
      <point x="196" y="271"/>
      <point x="204" y="271" type="curve" smooth="yes"/>
      <point x="375" y="271" type="line" smooth="yes"/>
      <point x="390" y="271"/>
      <point x="396" y="278"/>
      <point x="396" y="292" type="curve" smooth="yes"/>
      <point x="396" y="360" type="line" smooth="yes"/>
      <point x="396" y="374"/>
      <point x="390" y="381"/>
      <point x="375" y="381" type="curve" smooth="yes"/>
      <point x="204" y="381" type="line" smooth="yes"/>
      <point x="196" y="381"/>
      <point x="192" y="384"/>
      <point x="192" y="392" type="curve" smooth="yes"/>
      <point x="192" y="522" type="line" smooth="yes"/>
      <point x="192" y="530"/>
      <point x="196" y="533"/>
      <point x="204" y="533" type="curve" smooth="yes"/>
      <point x="413" y="533" type="line" smooth="yes"/>
      <point x="428" y="533"/>
      <point x="433" y="540"/>
      <point x="433" y="554" type="curve" smooth="yes"/>
      <point x="433" y="622" type="line" smooth="yes"/>
      <point x="433" y="636"/>
      <point x="428" y="643"/>
      <point x="413" y="643" type="curve" smooth="yes"/>
      <point x="86" y="643" type="line" smooth="yes"/>
      <point x="72" y="643"/>
      <point x="65" y="638"/>
      <point x="65" y="622" type="curve" smooth="yes"/>
      <point x="65" y="21" type="line" smooth="yes"/>
      <point x="65" y="5"/>
      <point x="72" y="0"/>
      <point x="86" y="0" type="curve" smooth="yes"/>
    </contour>
    <contour>
      <point x="348" y="732" type="line"/>
      <point x="363" y="732"/>
      <point x="368" y="739"/>
      <point x="368" y="753" type="curve" smooth="yes"/>
      <point x="368" y="798" type="line" smooth="yes"/>
      <point x="368" y="812"/>
      <point x="363" y="819"/>
      <point x="348" y="819" type="curve" smooth="yes"/>
      <point x="150" y="819" type="line" smooth="yes"/>
      <point x="135" y="819"/>
      <point x="130" y="812"/>
      <point x="130" y="798" type="curve" smooth="yes"/>
      <point x="130" y="753" type="line" smooth="yes"/>
      <point x="130" y="739"/>
      <point x="135" y="732"/>
      <point x="150" y="732" type="curve" smooth="yes"/>
    </contour>
  </outline>
</glyph>
<glyph name="Edotaccent" format="1">
  <advance width="482"/>
  <unicode hex="0116"/>
  <outline>
    <contour>
      <point x="413" y="0" type="line"/>
      <point x="428" y="0"/>
      <point x="433" y="7"/>
      <point x="433" y="21" type="curve" smooth="yes"/>
      <point x="433" y="89" type="line" smooth="yes"/>
      <point x="433" y="103"/>
      <point x="428" y="110"/>
      <point x="413" y="110" type="curve" smooth="yes"/>
      <point x="204" y="110" type="line" smooth="yes"/>
      <point x="196" y="110"/>
      <point x="192" y="113"/>
      <point x="192" y="121" type="curve" smooth="yes"/>
      <point x="192" y="260" type="line" smooth="yes"/>
      <point x="192" y="268"/>
      <point x="196" y="271"/>
      <point x="204" y="271" type="curve" smooth="yes"/>
      <point x="375" y="271" type="line" smooth="yes"/>
      <point x="390" y="271"/>
      <point x="396" y="278"/>
      <point x="396" y="292" type="curve" smooth="yes"/>
      <point x="396" y="360" type="line" smooth="yes"/>
      <point x="396" y="374"/>
      <point x="390" y="381"/>
      <point x="375" y="381" type="curve" smooth="yes"/>
      <point x="204" y="381" type="line" smooth="yes"/>
      <point x="196" y="381"/>
      <point x="192" y="384"/>
      <point x="192" y="392" type="curve" smooth="yes"/>
      <point x="192" y="522" type="line" smooth="yes"/>
      <point x="192" y="530"/>
      <point x="196" y="533"/>
      <point x="204" y="533" type="curve" smooth="yes"/>
      <point x="413" y="533" type="line" smooth="yes"/>
      <point x="428" y="533"/>
      <point x="433" y="540"/>
      <point x="433" y="554" type="curve" smooth="yes"/>
      <point x="433" y="622" type="line" smooth="yes"/>
      <point x="433" y="636"/>
      <point x="428" y="643"/>
      <point x="413" y="643" type="curve" smooth="yes"/>
      <point x="86" y="643" type="line" smooth="yes"/>
      <point x="72" y="643"/>
      <point x="65" y="638"/>
      <point x="65" y="622" type="curve" smooth="yes"/>
      <point x="65" y="21" type="line" smooth="yes"/>
      <point x="65" y="5"/>
      <point x="72" y="0"/>
      <point x="86" y="0" type="curve" smooth="yes"/>
    </contour>
    <contour>
      <point x="186" y="729" type="line"/>
      <point x="186" y="715"/>
      <point x="192" y="708"/>
      <point x="206" y="708" type="curve" smooth="yes"/>
      <point x="294" y="708" type="line" smooth="yes"/>
      <point x="307" y="708"/>
      <point x="313" y="715"/>
      <point x="313" y="729" type="curve" smooth="yes"/>
      <point x="313" y="824" type="line" smooth="yes"/>
      <point x="313" y="838"/>
      <point x="306" y="843"/>
      <point x="294" y="843" type="curve" smooth="yes"/>
      <point x="206" y="843" type="line" smooth="yes"/>
      <point x="192" y="843"/>
      <point x="186" y="837"/>
      <point x="186" y="823" type="curve" smooth="yes"/>
    </contour>
  </outline>
</glyph>
<glyph name="Imacron" format="1">
  <advance width="266"/>
  <unicode hex="012A"/>
  <outline>
    <contour>
      <point x="197" y="622" type="line" smooth="yes"/>
      <point x="197" y="638"/>
      <point x="190" y="643"/>
      <point x="176" y="643" type="curve" smooth="yes"/>
      <point x="91" y="643" type="line" smooth="yes"/>
      <point x="77" y="643"/>
      <point x="70" y="638"/>
      <point x="70" y="622" type="curve" smooth="yes"/>
      <point x="70" y="21" type="line" smooth="yes"/>
      <point x="70" y="5"/>
      <point x="77" y="0"/>
      <point x="91" y="0" type="curve" smooth="yes"/>
      <point x="176" y="0" type="line" smooth="yes"/>
      <point x="190" y="0"/>
      <point x="197" y="5"/>
      <point x="197" y="21" type="curve" smooth="yes"/>
    </contour>
    <contour>
      <point x="232" y="732" type="line"/>
      <point x="247" y="732"/>
      <point x="253" y="739"/>
      <point x="253" y="753" type="curve" smooth="yes"/>
      <point x="253" y="798" type="line" smooth="yes"/>
      <point x="253" y="812"/>
      <point x="247" y="819"/>
      <point x="232" y="819" type="curve" smooth="yes"/>
      <point x="35" y="819" type="line" smooth="yes"/>
      <point x="19" y="819"/>
      <point x="14" y="812"/>
      <point x="14" y="798" type="curve" smooth="yes"/>
      <point x="14" y="753" type="line" smooth="yes"/>
      <point x="14" y="739"/>
      <point x="19" y="732"/>
      <point x="35" y="732" type="curve" smooth="yes"/>
    </contour>
  </outline>
</glyph>
<glyph name="imacron" format="1">
  <advance width="246"/>
  <unicode hex="012B"/>
  <outline>
    <contour>
      <point x="60" y="21" type="line"/>
      <point x="60" y="5"/>
      <point x="67" y="0"/>
      <point x="81" y="0" type="curve" smooth="yes"/>
      <point x="167" y="0" type="line" smooth="yes"/>
      <point x="182" y="0"/>
      <point x="187" y="4"/>
      <point x="187" y="21" type="curve" smooth="yes"/>
      <point x="187" y="489" type="line" smooth="yes"/>
      <point x="187" y="505"/>
      <point x="180" y="510"/>
      <point x="166" y="510" type="curve" smooth="yes"/>
      <point x="80" y="510" type="line" smooth="yes"/>
      <point x="66" y="510"/>
      <point x="60" y="505"/>
      <point x="60" y="489" type="curve" smooth="yes"/>
    </contour>
    <contour>
      <point x="222" y="595" type="line"/>
      <point x="237" y="595"/>
      <point x="242" y="603"/>
      <point x="242" y="617" type="curve" smooth="yes"/>
      <point x="242" y="661" type="line" smooth="yes"/>
      <point x="242" y="675"/>
      <point x="237" y="682"/>
      <point x="222" y="682" type="curve" smooth="yes"/>
      <point x="24" y="682" type="line" smooth="yes"/>
      <point x="9" y="682"/>
      <point x="4" y="675"/>
      <point x="4" y="661" type="curve" smooth="yes"/>
      <point x="4" y="617" type="line" smooth="yes"/>
      <point x="4" y="603"/>
      <point x="9" y="595"/>
      <point x="24" y="595" type="curve" smooth="yes"/>
    </contour>
  </outline>
</glyph>
<glyph name="Iogonek" format="1">
  <advance width="267"/>
  <unicode hex="012E"/>
  <outline>
    <contour>
      <point x="197" y="622" type="line" smooth="yes"/>
      <point x="197" y="638"/>
      <point x="190" y="643"/>
      <point x="176" y="643" type="curve" smooth="yes"/>
      <point x="91" y="643" type="line" smooth="yes"/>
      <point x="77" y="643"/>
      <point x="70" y="638"/>
      <point x="70" y="622" type="curve" smooth="yes"/>
      <point x="70" y="21" type="line" smooth="yes"/>
      <point x="70" y="5"/>
      <point x="77" y="0"/>
      <point x="91" y="0" type="curve" smooth="yes"/>
      <point x="176" y="0" type="line" smooth="yes"/>
      <point x="190" y="0"/>
      <point x="197" y="5"/>
      <point x="197" y="21" type="curve" smooth="yes"/>
    </contour>
    <contour>
      <point x="68" y="-68" type="line"/>
      <point x="50" y="-95"/>
      <point x="60" y="-123"/>
      <point x="98" y="-123" type="curve" smooth="yes"/>
      <point x="130" y="-123"/>
      <point x="195" y="-109"/>
      <point x="195" y="-77" type="curve" smooth="yes"/>
      <point x="195" y="-60"/>
      <point x="190" y="-57"/>
      <point x="174" y="-57" type="curve" smooth="yes"/>
      <point x="171" y="-57"/>
      <point x="134" y="-57"/>
      <point x="132" y="-57" type="curve" smooth="yes"/>
      <point x="132" y="-57"/>
      <point x="183" y="20"/>
      <point x="183" y="20" type="curve"/>
      <point x="121" y="20" type="line"/>
    </contour>
  </outline>
</glyph>
<glyph name="iogonek" format="1">
  <advance width="247"/>
  <unicode hex="012F"/>
  <outline>
    <contour>
      <point x="60" y="21" type="line"/>
      <point x="60" y="5"/>
      <point x="67" y="0"/>
      <point x="81" y="0" type="curve" smooth="yes"/>
      <point x="167" y="0" type="line" smooth="yes"/>
      <point x="182" y="0"/>
      <point x="187" y="4"/>
      <point x="187" y="21" type="curve" smooth="yes"/>
      <point x="187" y="489" type="line" smooth="yes"/>
      <point x="187" y="505"/>
      <point x="180" y="510"/>
      <point x="166" y="510" type="curve" smooth="yes"/>
      <point x="80" y="510" type="line" smooth="yes"/>
      <point x="66" y="510"/>
      <point x="60" y="505"/>
      <point x="60" y="489" type="curve" smooth="yes"/>
    </contour>
    <contour>
      <point x="60" y="596" type="line"/>
      <point x="60" y="583"/>
      <point x="66" y="576"/>
      <point x="80" y="576" type="curve" smooth="yes"/>
      <point x="167" y="576" type="line" smooth="yes"/>
      <point x="181" y="576"/>
      <point x="187" y="583"/>
      <point x="187" y="596" type="curve" smooth="yes"/>
      <point x="187" y="684" type="line" smooth="yes"/>
      <point x="187" y="697"/>
      <point x="180" y="703"/>
      <point x="167" y="703" type="curve" smooth="yes"/>
      <point x="80" y="703" type="line" smooth="yes"/>
      <point x="66" y="703"/>
      <point x="60" y="697"/>
      <point x="60" y="683" type="curve" smooth="yes"/>
    </contour>
    <contour>
      <point x="73" y="-53" type="line"/>
      <point x="58" y="-77"/>
      <point x="55" y="-118"/>
      <point x="87" y="-118" type="curve" smooth="yes"/>
      <point x="114" y="-118"/>
      <point x="177" y="-106"/>
      <point x="179" y="-75" type="curve"/>
      <point x="183" y="-62"/>
      <point x="177" y="-57"/>
      <point x="165" y="-58" type="curve"/>
      <point x="165" y="-60"/>
      <point x="128" y="-63"/>
      <point x="121" y="-63" type="curve" smooth="yes"/>
      <point x="116" y="-63"/>
      <point x="153" y="2"/>
      <point x="155" y="5" type="curve"/>
      <point x="110" y="20" type="line"/>
    </contour>
  </outline>
</glyph>
<glyph name="Idotaccent" format="1">
  <advance width="267"/>
  <unicode hex="0130"/>
  <outline>
    <contour>
      <point x="70" y="724" type="line"/>
      <point x="70" y="710"/>
      <point x="76" y="703"/>
      <point x="90" y="703" type="curve" smooth="yes"/>
      <point x="177" y="703" type="line" smooth="yes"/>
      <point x="191" y="703"/>
      <point x="197" y="710"/>
      <point x="197" y="724" type="curve" smooth="yes"/>
      <point x="197" y="811" type="line" smooth="yes"/>
      <point x="197" y="825"/>
      <point x="190" y="830"/>
      <point x="177" y="830" type="curve" smooth="yes"/>
      <point x="90" y="830" type="line" smooth="yes"/>
      <point x="76" y="830"/>
      <point x="70" y="824"/>
      <point x="70" y="810" type="curve" smooth="yes"/>
    </contour>
    <contour>
      <point x="197" y="622" type="line" smooth="yes"/>
      <point x="197" y="638"/>
      <point x="190" y="643"/>
      <point x="176" y="643" type="curve" smooth="yes"/>
      <point x="91" y="643" type="line" smooth="yes"/>
      <point x="77" y="643"/>
      <point x="70" y="638"/>
      <point x="70" y="622" type="curve" smooth="yes"/>
      <point x="70" y="21" type="line" smooth="yes"/>
      <point x="70" y="5"/>
      <point x="77" y="0"/>
      <point x="91" y="0" type="curve" smooth="yes"/>
      <point x="176" y="0" type="line" smooth="yes"/>
      <point x="190" y="0"/>
      <point x="197" y="5"/>
      <point x="197" y="21" type="curve" smooth="yes"/>
    </contour>
  </outline>
</glyph>
<glyph name="dotlessi" format="1">
  <advance width="256"/>
  <unicode hex="0131"/>
  <outline>
    <contour>
      <point x="64" y="21" type="line"/>
      <point x="64" y="5"/>
      <point x="71" y="0"/>
      <point x="85" y="0" type="curve" smooth="yes"/>
      <point x="171" y="0" type="line" smooth="yes"/>
      <point x="186" y="0"/>
      <point x="191" y="4"/>
      <point x="191" y="21" type="curve" smooth="yes"/>
      <point x="191" y="489" type="line" smooth="yes"/>
      <point x="191" y="505"/>
      <point x="184" y="510"/>
      <point x="170" y="510" type="curve" smooth="yes"/>
      <point x="84" y="510" type="line" smooth="yes"/>
      <point x="70" y="510"/>
      <point x="64" y="505"/>
      <point x="64" y="489" type="curve" smooth="yes"/>
    </contour>
  </outline>
</glyph>
<glyph name="Kcommaaccent" format="1">
  <advance width="558"/>
  <unicode hex="0136"/>
  <outline>
    <contour>
      <point x="171" y="0" type="line" smooth="yes"/>
      <point x="185" y="0"/>
      <point x="192" y="5"/>
      <point x="192" y="21" type="curve" smooth="yes"/>
      <point x="192" y="192" type="line"/>
      <point x="255" y="266" type="line"/>
      <point x="408" y="21" type="line" smooth="yes"/>
      <point x="418" y="4"/>
      <point x="433" y="0"/>
      <point x="455" y="0" type="curve" smooth="yes"/>
      <point x="528" y="0" type="line" smooth="yes"/>
      <point x="546" y="0"/>
      <point x="554" y="9"/>
      <point x="544" y="25" type="curve" smooth="yes"/>
      <point x="332" y="357" type="line"/>
      <point x="522" y="620" type="line" smooth="yes"/>
      <point x="533" y="634"/>
      <point x="528" y="643"/>
      <point x="514" y="643" type="curve" smooth="yes"/>
      <point x="416" y="643" type="line" smooth="yes"/>
      <point x="394" y="643"/>
      <point x="387" y="638"/>
      <point x="377" y="622" type="curve"/>
      <point x="225" y="399" type="line" smooth="yes"/>
      <point x="217" y="386"/>
      <point x="202" y="362"/>
      <point x="194" y="337" type="curve"/>
      <point x="192" y="337" type="line"/>
      <point x="192" y="622" type="line" smooth="yes"/>
      <point x="192" y="638"/>
      <point x="185" y="643"/>
      <point x="171" y="643" type="curve" smooth="yes"/>
      <point x="86" y="643" type="line" smooth="yes"/>
      <point x="72" y="643"/>
      <point x="65" y="638"/>
      <point x="65" y="622" type="curve" smooth="yes"/>
      <point x="65" y="21" type="line" smooth="yes"/>
      <point x="65" y="5"/>
      <point x="72" y="0"/>
      <point x="86" y="0" type="curve" smooth="yes"/>
    </contour>
    <contour>
      <point x="356" y="-51" type="line" smooth="yes"/>
      <point x="356" y="-37"/>
      <point x="349" y="-32"/>
      <point x="337" y="-32" type="curve" smooth="yes"/>
      <point x="264" y="-32" type="line" smooth="yes"/>
      <point x="251" y="-32"/>
      <point x="245" y="-38"/>
      <point x="245" y="-52" type="curve" smooth="yes"/>
      <point x="245" y="-218" type="line" smooth="yes"/>
      <point x="245" y="-233"/>
      <point x="253" y="-238"/>
      <point x="262" y="-238" type="curve" smooth="yes"/>
      <point x="269" y="-238"/>
      <point x="276" y="-234"/>
      <point x="281" y="-228" type="curve" smooth="yes"/>
      <point x="334" y="-160" type="line" smooth="yes"/>
      <point x="350" y="-140"/>
      <point x="356" y="-120"/>
      <point x="356" y="-98" type="curve" smooth="yes"/>
    </contour>
  </outline>
</glyph>
